M48
; DRILL file {KiCad 9.0.7} date 2026-02-14T21:04:37+0300
; FORMAT={-:-/ absolute / metric / decimal}
; #@! TF.CreationDate,2026-02-14T21:04:37+03:00
; #@! TF.GenerationSoftware,Kicad,Pcbnew,9.0.7
; #@! TF.FileFunction,Plated,1,2,PTH
FMAT,2
METRIC
; #@! TA.AperFunction,Plated,PTH,ComponentDrill
T1C0.300
; #@! TA.AperFunction,Plated,PTH,ComponentDrill
T2C0.700
; #@! TA.AperFunction,Plated,PTH,ComponentDrill
T3C0.750
; #@! TA.AperFunction,Plated,PTH,ComponentDrill
T4C0.800
; #@! TA.AperFunction,Plated,PTH,ComponentDrill
T5C1.020
; #@! TA.AperFunction,Plated,PTH,ComponentDrill
T6C1.100
; #@! TA.AperFunction,Plated,PTH,ComponentDrill
T7C1.300
; #@! TA.AperFunction,Plated,PTH,ComponentDrill
T8C1.800
%
G90
G05
T1
X97.35Y-83.76
X97.35Y-85.16
X98.05Y-83.06
X98.05Y-84.46
X98.05Y-85.86
X98.75Y-83.76
X98.75Y-85.16
X99.45Y-83.06
X99.45Y-84.46
X99.45Y-85.86
X100.15Y-83.76
X100.15Y-85.16
T2
X86.25Y-78.94
X86.25Y-86.56
X86.69Y-121.25
X86.75Y-111.5
X86.75Y-119.12
X89.0Y-111.5
X89.0Y-119.12
X91.44Y-111.0
X91.69Y-98.5
X91.69Y-100.75
X91.69Y-103.0
X94.31Y-121.25
X98.94Y-108.5
X99.06Y-111.0
X99.31Y-98.5
X99.31Y-100.75
X99.31Y-103.0
X100.525Y-115.715
X100.525Y-118.275
X106.56Y-108.5
X108.19Y-97.25
X113.69Y-92.5
X115.81Y-97.25
X118.75Y-78.19
X118.75Y-85.81
X121.31Y-92.5
T3
X102.25Y-104.25
X102.375Y-101.25
X102.46Y-98.25
X104.79Y-104.25
X104.915Y-101.25
X105.0Y-98.25
T4
X86.75Y-76.75
X89.25Y-76.75
X90.25Y-105.5
X90.25Y-108.0
X91.25Y-113.25
X91.25Y-115.75
X111.5Y-87.5
X111.5Y-90.0
X113.75Y-85.5
X116.25Y-85.5
T5
X114.0Y-77.5
X114.0Y-80.04
X114.0Y-82.58
T6
X104.0Y-111.84
X104.0Y-122.0
X114.0Y-100.17
X114.0Y-110.33
T7
X84.75Y-89.0
X84.75Y-95.5
X114.0Y-89.25
X120.5Y-89.25
X122.0Y-79.25
X122.0Y-85.75
T8
X109.5Y-119.0
X113.46Y-119.0
X117.42Y-119.0
M30
