%TF.GenerationSoftware,KiCad,Pcbnew,9.0.7*%
%TF.CreationDate,2026-02-14T21:04:24+03:00*%
%TF.ProjectId,Transmitter,5472616e-736d-4697-9474-65722e6b6963,rev?*%
%TF.SameCoordinates,Original*%
%TF.FileFunction,Copper,L2,Bot*%
%TF.FilePolarity,Positive*%
%FSLAX46Y46*%
G04 Gerber Fmt 4.6, Leading zero omitted, Abs format (unit mm)*
G04 Created by KiCad (PCBNEW 9.0.7) date 2026-02-14 21:04:24*
%MOMM*%
%LPD*%
G01*
G04 APERTURE LIST*
G04 Aperture macros list*
%AMRoundRect*
0 Rectangle with rounded corners*
0 $1 Rounding radius*
0 $2 $3 $4 $5 $6 $7 $8 $9 X,Y pos of 4 corners*
0 Add a 4 corners polygon primitive as box body*
4,1,4,$2,$3,$4,$5,$6,$7,$8,$9,$2,$3,0*
0 Add four circle primitives for the rounded corners*
1,1,$1+$1,$2,$3*
1,1,$1+$1,$4,$5*
1,1,$1+$1,$6,$7*
1,1,$1+$1,$8,$9*
0 Add four rect primitives between the rounded corners*
20,1,$1+$1,$2,$3,$4,$5,0*
20,1,$1+$1,$4,$5,$6,$7,0*
20,1,$1+$1,$6,$7,$8,$9,0*
20,1,$1+$1,$8,$9,$2,$3,0*%
G04 Aperture macros list end*
%TA.AperFunction,ComponentPad*%
%ADD10C,1.600000*%
%TD*%
%TA.AperFunction,ComponentPad*%
%ADD11R,2.250000X2.250000*%
%TD*%
%TA.AperFunction,ComponentPad*%
%ADD12C,2.250000*%
%TD*%
%TA.AperFunction,ComponentPad*%
%ADD13RoundRect,0.249200X0.450800X-0.450800X0.450800X0.450800X-0.450800X0.450800X-0.450800X-0.450800X0*%
%TD*%
%TA.AperFunction,ComponentPad*%
%ADD14C,1.400000*%
%TD*%
%TA.AperFunction,ComponentPad*%
%ADD15R,2.030000X1.730000*%
%TD*%
%TA.AperFunction,ComponentPad*%
%ADD16O,2.030000X1.730000*%
%TD*%
%TA.AperFunction,ComponentPad*%
%ADD17RoundRect,0.249999X-0.850001X0.850001X-0.850001X-0.850001X0.850001X-0.850001X0.850001X0.850001X0*%
%TD*%
%TA.AperFunction,ComponentPad*%
%ADD18C,2.200000*%
%TD*%
%TA.AperFunction,ComponentPad*%
%ADD19RoundRect,0.250001X0.499999X0.499999X-0.499999X0.499999X-0.499999X-0.499999X0.499999X-0.499999X0*%
%TD*%
%TA.AperFunction,ComponentPad*%
%ADD20C,1.500000*%
%TD*%
%TA.AperFunction,HeatsinkPad*%
%ADD21C,0.600000*%
%TD*%
%TA.AperFunction,ComponentPad*%
%ADD22RoundRect,0.250000X0.980000X1.150000X-0.980000X1.150000X-0.980000X-1.150000X0.980000X-1.150000X0*%
%TD*%
%TA.AperFunction,ComponentPad*%
%ADD23O,2.460000X2.800000*%
%TD*%
%TA.AperFunction,ComponentPad*%
%ADD24RoundRect,0.249999X0.850001X-0.850001X0.850001X0.850001X-0.850001X0.850001X-0.850001X-0.850001X0*%
%TD*%
%TA.AperFunction,Conductor*%
%ADD25C,0.500000*%
%TD*%
%TA.AperFunction,Conductor*%
%ADD26C,1.000000*%
%TD*%
G04 APERTURE END LIST*
D10*
%TO.P,C5,1*%
%TO.N,+3.3V*%
X86750000Y-76750000D03*
%TO.P,C5,2*%
%TO.N,GND*%
X89250000Y-76750000D03*
%TD*%
D11*
%TO.P,SW1,1,1*%
%TO.N,GND*%
X122000000Y-79250000D03*
D12*
%TO.P,SW1,2,2*%
%TO.N,Net-(U1-IO19)*%
X122000000Y-85750000D03*
%TD*%
D11*
%TO.P,SW2,1,1*%
%TO.N,GND*%
X120500000Y-89250000D03*
D12*
%TO.P,SW2,2,2*%
%TO.N,Net-(U1-IO18)*%
X114000000Y-89250000D03*
%TD*%
D13*
%TO.P,D1,1,K*%
%TO.N,Net-(D1-K)*%
X100525000Y-118275000D03*
D14*
%TO.P,D1,2,A*%
%TO.N,Net-(D1-A)*%
X100525000Y-115715000D03*
%TD*%
D15*
%TO.P,J2,1,Pin_1*%
%TO.N,Net-(J2-Pin_1)*%
X114000000Y-77500000D03*
D16*
%TO.P,J2,2,Pin_2*%
%TO.N,Net-(J2-Pin_2)*%
X114000000Y-80040000D03*
%TO.P,J2,3,Pin_3*%
%TO.N,GND*%
X114000000Y-82580000D03*
%TD*%
D10*
%TO.P,C4,1*%
%TO.N,GND*%
X111500000Y-90000000D03*
%TO.P,C4,2*%
%TO.N,Net-(U1-IO18)*%
X111500000Y-87500000D03*
%TD*%
D11*
%TO.P,BOOT,1,1*%
%TO.N,Net-(U1-EN)*%
X84750000Y-89000000D03*
D12*
%TO.P,BOOT,2,2*%
%TO.N,GND*%
X84750000Y-95500000D03*
%TD*%
D14*
%TO.P,R2,1*%
%TO.N,+5V*%
X86750000Y-119120000D03*
%TO.P,R2,2*%
%TO.N,Net-(U1-IO34)*%
X86750000Y-111500000D03*
%TD*%
D17*
%TO.P,D6,1,K*%
%TO.N,+3.3V*%
X114000000Y-100170000D03*
D18*
%TO.P,D6,2,A*%
%TO.N,Net-(D6-A)*%
X114000000Y-110330000D03*
%TD*%
D14*
%TO.P,R12,1*%
%TO.N,+3.3V*%
X115810000Y-97250000D03*
%TO.P,R12,2*%
%TO.N,Net-(JP1-B)*%
X108190000Y-97250000D03*
%TD*%
%TO.P,R10,1*%
%TO.N,+3.3V*%
X118750000Y-78190000D03*
%TO.P,R10,2*%
%TO.N,Net-(U1-IO19)*%
X118750000Y-85810000D03*
%TD*%
%TO.P,R7,1*%
%TO.N,GND*%
X106560000Y-108500000D03*
%TO.P,R7,2*%
%TO.N,Net-(Q1-G)*%
X98940000Y-108500000D03*
%TD*%
%TO.P,R6,1*%
%TO.N,Net-(U1-IO35)*%
X91440000Y-111000000D03*
%TO.P,R6,2*%
%TO.N,Net-(Q1-G)*%
X99060000Y-111000000D03*
%TD*%
D19*
%TO.P,D3,1,K*%
%TO.N,GND*%
X104915330Y-101250000D03*
D20*
%TO.P,D3,2,A*%
%TO.N,Net-(D3-A)*%
X102375330Y-101250000D03*
%TD*%
D21*
%TO.P,U1,39,GND*%
%TO.N,GND*%
X97350000Y-83760000D03*
X97350000Y-85160000D03*
X98050000Y-83060000D03*
X98050000Y-84460000D03*
X98050000Y-85860000D03*
X98750000Y-83760000D03*
X98750000Y-85160000D03*
X99450000Y-83060000D03*
X99450000Y-84460000D03*
X99450000Y-85860000D03*
X100150000Y-83760000D03*
X100150000Y-85160000D03*
%TD*%
D14*
%TO.P,R11,1*%
%TO.N,+3.3V*%
X121310000Y-92500000D03*
%TO.P,R11,2*%
%TO.N,Net-(U1-IO18)*%
X113690000Y-92500000D03*
%TD*%
D22*
%TO.P,J1,1,Pin_1*%
%TO.N,GND*%
X117420000Y-119000000D03*
D23*
%TO.P,J1,2,Pin_2*%
%TO.N,Net-(D6-A)*%
X113460000Y-119000000D03*
%TO.P,J1,3,Pin_3*%
%TO.N,Net-(D5-A)*%
X109500000Y-119000000D03*
%TD*%
D14*
%TO.P,R8,1*%
%TO.N,+3.3V*%
X86250000Y-86560000D03*
%TO.P,R8,2*%
%TO.N,Net-(U1-EN)*%
X86250000Y-78940000D03*
%TD*%
D24*
%TO.P,D5,1,K*%
%TO.N,+5V*%
X104000000Y-122000000D03*
D18*
%TO.P,D5,2,A*%
%TO.N,Net-(D5-A)*%
X104000000Y-111840000D03*
%TD*%
D14*
%TO.P,R3,1*%
%TO.N,Net-(D1-K)*%
X94310000Y-121250000D03*
%TO.P,R3,2*%
%TO.N,+5V*%
X86690000Y-121250000D03*
%TD*%
%TO.P,R5,1*%
%TO.N,Net-(U1-IO33)*%
X91690000Y-100750000D03*
%TO.P,R5,2*%
%TO.N,Net-(D3-A)*%
X99310000Y-100750000D03*
%TD*%
%TO.P,R4,1*%
%TO.N,Net-(U1-IO32)*%
X91690000Y-103000000D03*
%TO.P,R4,2*%
%TO.N,Net-(D2-A)*%
X99310000Y-103000000D03*
%TD*%
D19*
%TO.P,D2,1,K*%
%TO.N,GND*%
X104790000Y-104250000D03*
D20*
%TO.P,D2,2,A*%
%TO.N,Net-(D2-A)*%
X102250000Y-104250000D03*
%TD*%
D10*
%TO.P,C2,1*%
%TO.N,GND*%
X90250000Y-105500000D03*
%TO.P,C2,2*%
%TO.N,+3.3V*%
X90250000Y-108000000D03*
%TD*%
D14*
%TO.P,R9,1*%
%TO.N,Net-(U1-IO25)*%
X91690000Y-98500000D03*
%TO.P,R9,2*%
%TO.N,Net-(D4-A)*%
X99310000Y-98500000D03*
%TD*%
%TO.P,R1,1*%
%TO.N,GND*%
X89000000Y-119120000D03*
%TO.P,R1,2*%
%TO.N,Net-(U1-IO34)*%
X89000000Y-111500000D03*
%TD*%
D19*
%TO.P,D4,1,K*%
%TO.N,GND*%
X105000000Y-98250000D03*
D20*
%TO.P,D4,2,A*%
%TO.N,Net-(D4-A)*%
X102460000Y-98250000D03*
%TD*%
D10*
%TO.P,C3,1*%
%TO.N,GND*%
X116250000Y-85500000D03*
%TO.P,C3,2*%
%TO.N,Net-(U1-IO19)*%
X113750000Y-85500000D03*
%TD*%
%TO.P,C1,1*%
%TO.N,Net-(U1-IO34)*%
X91250000Y-113250000D03*
%TO.P,C1,2*%
%TO.N,GND*%
X91250000Y-115750000D03*
%TD*%
D25*
%TO.N,+3.3V*%
X118924000Y-91103949D02*
X120320051Y-92500000D01*
X107420000Y-106750000D02*
X114000000Y-100170000D01*
X119901000Y-86697000D02*
X118924000Y-87674000D01*
X90250000Y-108000000D02*
X87000000Y-104750000D01*
X91500000Y-106750000D02*
X107420000Y-106750000D01*
X119901000Y-79341000D02*
X119901000Y-86697000D01*
X87000000Y-87310000D02*
X86250000Y-86560000D01*
X118750000Y-78190000D02*
X119901000Y-79341000D01*
X86250000Y-86560000D02*
X87401000Y-85409000D01*
X90250000Y-108000000D02*
X91500000Y-106750000D01*
X87000000Y-104750000D02*
X87000000Y-87310000D01*
X118924000Y-87674000D02*
X118924000Y-91103949D01*
X87401000Y-77401000D02*
X86750000Y-76750000D01*
X87401000Y-85409000D02*
X87401000Y-77401000D01*
X120320051Y-92500000D02*
X121310000Y-92500000D01*
%TO.N,Net-(U1-IO34)*%
X91250000Y-113250000D02*
X90750000Y-113250000D01*
D26*
X90750000Y-113250000D02*
X89000000Y-111500000D01*
D25*
%TO.N,Net-(U1-EN)*%
X84750000Y-89000000D02*
X84750000Y-80440000D01*
X84750000Y-80440000D02*
X86250000Y-78940000D01*
%TO.N,+5V*%
X86690000Y-119180000D02*
X86750000Y-119120000D01*
%TD*%
%TA.AperFunction,Conductor*%
%TO.N,GND*%
G36*
X86025924Y-75459685D02*
G01*
X86071679Y-75512489D01*
X86081623Y-75581647D01*
X86052598Y-75645203D01*
X86031770Y-75664318D01*
X85902786Y-75758028D01*
X85758028Y-75902786D01*
X85637715Y-76068386D01*
X85544781Y-76250776D01*
X85481522Y-76445465D01*
X85449500Y-76647648D01*
X85449500Y-76852351D01*
X85481522Y-77054534D01*
X85544781Y-77249223D01*
X85584453Y-77327082D01*
X85625644Y-77407924D01*
X85637715Y-77431613D01*
X85758028Y-77597213D01*
X85800380Y-77639565D01*
X85833865Y-77700888D01*
X85828881Y-77770580D01*
X85787009Y-77826513D01*
X85768994Y-77837731D01*
X85620800Y-77913240D01*
X85533579Y-77976610D01*
X85467927Y-78024310D01*
X85467925Y-78024312D01*
X85467924Y-78024312D01*
X85334312Y-78157924D01*
X85334312Y-78157925D01*
X85334310Y-78157927D01*
X85286610Y-78223579D01*
X85223240Y-78310800D01*
X85137454Y-78479163D01*
X85079059Y-78658881D01*
X85049500Y-78845513D01*
X85049500Y-79027770D01*
X85029815Y-79094809D01*
X85013181Y-79115451D01*
X84167047Y-79961584D01*
X84167042Y-79961590D01*
X84137317Y-80006081D01*
X84137315Y-80006084D01*
X84111025Y-80045429D01*
X84084914Y-80084507D01*
X84028343Y-80221082D01*
X84028340Y-80221092D01*
X83999500Y-80366079D01*
X83999500Y-87250500D01*
X83979815Y-87317539D01*
X83927011Y-87363294D01*
X83875500Y-87374500D01*
X83577130Y-87374500D01*
X83577123Y-87374501D01*
X83517516Y-87380908D01*
X83382671Y-87431202D01*
X83382664Y-87431206D01*
X83267455Y-87517452D01*
X83267452Y-87517455D01*
X83181206Y-87632664D01*
X83181202Y-87632671D01*
X83130908Y-87767517D01*
X83124501Y-87827116D01*
X83124500Y-87827135D01*
X83124500Y-90172870D01*
X83124501Y-90172876D01*
X83130908Y-90232483D01*
X83181202Y-90367328D01*
X83181206Y-90367335D01*
X83267452Y-90482544D01*
X83267455Y-90482547D01*
X83382664Y-90568793D01*
X83382671Y-90568797D01*
X83517517Y-90619091D01*
X83517516Y-90619091D01*
X83524444Y-90619835D01*
X83577127Y-90625500D01*
X85922872Y-90625499D01*
X85982483Y-90619091D01*
X86082168Y-90581910D01*
X86151858Y-90576927D01*
X86213181Y-90610412D01*
X86246666Y-90671735D01*
X86249500Y-90698093D01*
X86249500Y-94422005D01*
X86229815Y-94489044D01*
X86177011Y-94534799D01*
X86115771Y-94545623D01*
X86062148Y-94541402D01*
X85351041Y-95252510D01*
X85326022Y-95192110D01*
X85254888Y-95085649D01*
X85164351Y-94995112D01*
X85057890Y-94923978D01*
X84997487Y-94898957D01*
X85708596Y-94187850D01*
X85601686Y-94110175D01*
X85373784Y-93994052D01*
X85373781Y-93994051D01*
X85130523Y-93915013D01*
X84877889Y-93875000D01*
X84622111Y-93875000D01*
X84369476Y-93915013D01*
X84126218Y-93994051D01*
X84126215Y-93994052D01*
X83898310Y-94110177D01*
X83791403Y-94187849D01*
X83791402Y-94187850D01*
X84502511Y-94898958D01*
X84442110Y-94923978D01*
X84335649Y-94995112D01*
X84245112Y-95085649D01*
X84173978Y-95192110D01*
X84148958Y-95252511D01*
X83437850Y-94541402D01*
X83437849Y-94541403D01*
X83360177Y-94648310D01*
X83244052Y-94876215D01*
X83244051Y-94876218D01*
X83165013Y-95119476D01*
X83125000Y-95372110D01*
X83125000Y-95627889D01*
X83165013Y-95880523D01*
X83244051Y-96123781D01*
X83244052Y-96123784D01*
X83360175Y-96351686D01*
X83437850Y-96458595D01*
X83437850Y-96458596D01*
X84148958Y-95747488D01*
X84173978Y-95807890D01*
X84245112Y-95914351D01*
X84335649Y-96004888D01*
X84442110Y-96076022D01*
X84502510Y-96101041D01*
X83791402Y-96812148D01*
X83898313Y-96889824D01*
X84126215Y-97005947D01*
X84126218Y-97005948D01*
X84369476Y-97084986D01*
X84622111Y-97125000D01*
X84877889Y-97125000D01*
X85130523Y-97084986D01*
X85373781Y-97005948D01*
X85373784Y-97005947D01*
X85601685Y-96889825D01*
X85708595Y-96812148D01*
X85708596Y-96812148D01*
X84997488Y-96101041D01*
X85057890Y-96076022D01*
X85164351Y-96004888D01*
X85254888Y-95914351D01*
X85326022Y-95807890D01*
X85351041Y-95747489D01*
X86062147Y-96458595D01*
X86115770Y-96454375D01*
X86184148Y-96468739D01*
X86233905Y-96517790D01*
X86249500Y-96577993D01*
X86249500Y-104823918D01*
X86249500Y-104823920D01*
X86249499Y-104823920D01*
X86278340Y-104968907D01*
X86278343Y-104968917D01*
X86334913Y-105105490D01*
X86334914Y-105105491D01*
X86334916Y-105105495D01*
X86348282Y-105125498D01*
X86348283Y-105125501D01*
X86417046Y-105228414D01*
X86417052Y-105228421D01*
X88923526Y-107734894D01*
X88957011Y-107796217D01*
X88958318Y-107841972D01*
X88949500Y-107897647D01*
X88949500Y-108102351D01*
X88981522Y-108304534D01*
X89044781Y-108499223D01*
X89137715Y-108681613D01*
X89258028Y-108847213D01*
X89402786Y-108991971D01*
X89557749Y-109104556D01*
X89568390Y-109112287D01*
X89684607Y-109171503D01*
X89750776Y-109205218D01*
X89750778Y-109205218D01*
X89750781Y-109205220D01*
X89855137Y-109239127D01*
X89945465Y-109268477D01*
X90031306Y-109282073D01*
X90147648Y-109300500D01*
X90147649Y-109300500D01*
X90352351Y-109300500D01*
X90352352Y-109300500D01*
X90554534Y-109268477D01*
X90749219Y-109205220D01*
X90931610Y-109112287D01*
X91024590Y-109044732D01*
X91097213Y-108991971D01*
X91097215Y-108991968D01*
X91097219Y-108991966D01*
X91241966Y-108847219D01*
X91241968Y-108847215D01*
X91241971Y-108847213D01*
X91327493Y-108729500D01*
X91362287Y-108681610D01*
X91455220Y-108499219D01*
X91518477Y-108304534D01*
X91550500Y-108102352D01*
X91550500Y-107897648D01*
X91541681Y-107841971D01*
X91550635Y-107772680D01*
X91576468Y-107734898D01*
X91774550Y-107536816D01*
X91835873Y-107503334D01*
X91862230Y-107500500D01*
X97942375Y-107500500D01*
X98009414Y-107520185D01*
X98055169Y-107572989D01*
X98065113Y-107642147D01*
X98036088Y-107705703D01*
X98030056Y-107712181D01*
X98024312Y-107717924D01*
X98024312Y-107717925D01*
X98024310Y-107717927D01*
X97979524Y-107779570D01*
X97913240Y-107870800D01*
X97827454Y-108039163D01*
X97769059Y-108218881D01*
X97739500Y-108405513D01*
X97739500Y-108594486D01*
X97769059Y-108781118D01*
X97827454Y-108960836D01*
X97904621Y-109112284D01*
X97913240Y-109129199D01*
X98024310Y-109282073D01*
X98157927Y-109415690D01*
X98310801Y-109526760D01*
X98479168Y-109612547D01*
X98599250Y-109651564D01*
X98656926Y-109691002D01*
X98684124Y-109755360D01*
X98672209Y-109824207D01*
X98624965Y-109875682D01*
X98603598Y-109885441D01*
X98603661Y-109885592D01*
X98599463Y-109887330D01*
X98599265Y-109887421D01*
X98599169Y-109887451D01*
X98430800Y-109973240D01*
X98343579Y-110036610D01*
X98277927Y-110084310D01*
X98277925Y-110084312D01*
X98277924Y-110084312D01*
X98144312Y-110217924D01*
X98144312Y-110217925D01*
X98144310Y-110217927D01*
X98100003Y-110278910D01*
X98033240Y-110370800D01*
X97947454Y-110539163D01*
X97889059Y-110718881D01*
X97859500Y-110905513D01*
X97859500Y-111094486D01*
X97889059Y-111281118D01*
X97947454Y-111460836D01*
X98015550Y-111594481D01*
X98033240Y-111629199D01*
X98144310Y-111782073D01*
X98277927Y-111915690D01*
X98430801Y-112026760D01*
X98467783Y-112045603D01*
X98599163Y-112112545D01*
X98599165Y-112112545D01*
X98599168Y-112112547D01*
X98695497Y-112143846D01*
X98778881Y-112170940D01*
X98965514Y-112200500D01*
X98965519Y-112200500D01*
X99154486Y-112200500D01*
X99341118Y-112170940D01*
X99520832Y-112112547D01*
X99689199Y-112026760D01*
X99842073Y-111915690D01*
X99975690Y-111782073D01*
X100025121Y-111714038D01*
X102399500Y-111714038D01*
X102399500Y-111965962D01*
X102422717Y-112112545D01*
X102438910Y-112214785D01*
X102516760Y-112454383D01*
X102574848Y-112568386D01*
X102627102Y-112670940D01*
X102631132Y-112678848D01*
X102779201Y-112882649D01*
X102779205Y-112882654D01*
X102957345Y-113060794D01*
X102957350Y-113060798D01*
X103076890Y-113147648D01*
X103161155Y-113208870D01*
X103304184Y-113281747D01*
X103385616Y-113323239D01*
X103385618Y-113323239D01*
X103385621Y-113323241D01*
X103625215Y-113401090D01*
X103874038Y-113440500D01*
X103874039Y-113440500D01*
X104125961Y-113440500D01*
X104125962Y-113440500D01*
X104374785Y-113401090D01*
X104614379Y-113323241D01*
X104838845Y-113208870D01*
X105042656Y-113060793D01*
X105220793Y-112882656D01*
X105368870Y-112678845D01*
X105483241Y-112454379D01*
X105561090Y-112214785D01*
X105600500Y-111965962D01*
X105600500Y-111714038D01*
X105561090Y-111465215D01*
X105483241Y-111225621D01*
X105483239Y-111225618D01*
X105483239Y-111225616D01*
X105416422Y-111094481D01*
X105368870Y-111001155D01*
X105283736Y-110883978D01*
X105220798Y-110797350D01*
X105220794Y-110797345D01*
X105042654Y-110619205D01*
X105042649Y-110619201D01*
X104838848Y-110471132D01*
X104838847Y-110471131D01*
X104838845Y-110471130D01*
X104768747Y-110435413D01*
X104614383Y-110356760D01*
X104492312Y-110317097D01*
X104374785Y-110278910D01*
X104125962Y-110239500D01*
X103874038Y-110239500D01*
X103749626Y-110259205D01*
X103625214Y-110278910D01*
X103385616Y-110356760D01*
X103161151Y-110471132D01*
X102957350Y-110619201D01*
X102957345Y-110619205D01*
X102779205Y-110797345D01*
X102779201Y-110797350D01*
X102631132Y-111001151D01*
X102516760Y-111225616D01*
X102438910Y-111465214D01*
X102425355Y-111550798D01*
X102399500Y-111714038D01*
X100025121Y-111714038D01*
X100086760Y-111629199D01*
X100172547Y-111460832D01*
X100230940Y-111281118D01*
X100240797Y-111218882D01*
X100260500Y-111094486D01*
X100260500Y-110905513D01*
X100230940Y-110718881D01*
X100187215Y-110584312D01*
X100172547Y-110539168D01*
X100172545Y-110539165D01*
X100172545Y-110539163D01*
X100095245Y-110387454D01*
X100086760Y-110370801D01*
X99975690Y-110217927D01*
X99961801Y-110204038D01*
X112399500Y-110204038D01*
X112399500Y-110455962D01*
X112419829Y-110584312D01*
X112438910Y-110704785D01*
X112516760Y-110944383D01*
X112631132Y-111168848D01*
X112779201Y-111372649D01*
X112779205Y-111372654D01*
X112957345Y-111550794D01*
X112957350Y-111550798D01*
X113075007Y-111636280D01*
X113161155Y-111698870D01*
X113304184Y-111771747D01*
X113385616Y-111813239D01*
X113385618Y-111813239D01*
X113385621Y-111813241D01*
X113625215Y-111891090D01*
X113874038Y-111930500D01*
X113874039Y-111930500D01*
X114125961Y-111930500D01*
X114125962Y-111930500D01*
X114374785Y-111891090D01*
X114614379Y-111813241D01*
X114838845Y-111698870D01*
X115042656Y-111550793D01*
X115220793Y-111372656D01*
X115368870Y-111168845D01*
X115483241Y-110944379D01*
X115561090Y-110704785D01*
X115600500Y-110455962D01*
X115600500Y-110204038D01*
X115561090Y-109955215D01*
X115483241Y-109715621D01*
X115483239Y-109715618D01*
X115483239Y-109715616D01*
X115430487Y-109612085D01*
X115368870Y-109491155D01*
X115314042Y-109415690D01*
X115220798Y-109287350D01*
X115220794Y-109287345D01*
X115042654Y-109109205D01*
X115042649Y-109109201D01*
X114838848Y-108961132D01*
X114838847Y-108961131D01*
X114838845Y-108961130D01*
X114768747Y-108925413D01*
X114614383Y-108846760D01*
X114374785Y-108768910D01*
X114125962Y-108729500D01*
X113874038Y-108729500D01*
X113749626Y-108749205D01*
X113625214Y-108768910D01*
X113385616Y-108846760D01*
X113161151Y-108961132D01*
X112957350Y-109109201D01*
X112957345Y-109109205D01*
X112779205Y-109287345D01*
X112779201Y-109287350D01*
X112631132Y-109491151D01*
X112516760Y-109715616D01*
X112460928Y-109887451D01*
X112438910Y-109955215D01*
X112399500Y-110204038D01*
X99961801Y-110204038D01*
X99842073Y-110084310D01*
X99689199Y-109973240D01*
X99653821Y-109955214D01*
X99520836Y-109887454D01*
X99400748Y-109848435D01*
X99343073Y-109808997D01*
X99315875Y-109744638D01*
X99327790Y-109675792D01*
X99375034Y-109624316D01*
X99396401Y-109614559D01*
X99396339Y-109614408D01*
X99400587Y-109612648D01*
X99400755Y-109612571D01*
X99400832Y-109612547D01*
X99569199Y-109526760D01*
X99595182Y-109507882D01*
X105905669Y-109507882D01*
X105905670Y-109507883D01*
X105931059Y-109526329D01*
X106099362Y-109612085D01*
X106278997Y-109670451D01*
X106465553Y-109700000D01*
X106654447Y-109700000D01*
X106841002Y-109670451D01*
X107020637Y-109612085D01*
X107188937Y-109526331D01*
X107214328Y-109507883D01*
X107214328Y-109507882D01*
X106560001Y-108853554D01*
X106560000Y-108853554D01*
X105905669Y-109507882D01*
X99595182Y-109507882D01*
X99722073Y-109415690D01*
X99855690Y-109282073D01*
X99966760Y-109129199D01*
X100052547Y-108960832D01*
X100110940Y-108781118D01*
X100112874Y-108768910D01*
X100140500Y-108594486D01*
X100140500Y-108405552D01*
X105360000Y-108405552D01*
X105360000Y-108594447D01*
X105389548Y-108781002D01*
X105447914Y-108960637D01*
X105533666Y-109128933D01*
X105552116Y-109154328D01*
X106206446Y-108500000D01*
X106206446Y-108499999D01*
X106160369Y-108453922D01*
X106210000Y-108453922D01*
X106210000Y-108546078D01*
X106233852Y-108635095D01*
X106279930Y-108714905D01*
X106345095Y-108780070D01*
X106424905Y-108826148D01*
X106513922Y-108850000D01*
X106606078Y-108850000D01*
X106695095Y-108826148D01*
X106774905Y-108780070D01*
X106840070Y-108714905D01*
X106886148Y-108635095D01*
X106910000Y-108546078D01*
X106910000Y-108499999D01*
X106913554Y-108499999D01*
X106913554Y-108500000D01*
X107567882Y-109154328D01*
X107567883Y-109154328D01*
X107586331Y-109128937D01*
X107672085Y-108960637D01*
X107730451Y-108781002D01*
X107760000Y-108594447D01*
X107760000Y-108405552D01*
X107730451Y-108218997D01*
X107672085Y-108039362D01*
X107586329Y-107871059D01*
X107567883Y-107845670D01*
X107567882Y-107845669D01*
X106913554Y-108499999D01*
X106910000Y-108499999D01*
X106910000Y-108453922D01*
X106886148Y-108364905D01*
X106840070Y-108285095D01*
X106774905Y-108219930D01*
X106695095Y-108173852D01*
X106606078Y-108150000D01*
X106513922Y-108150000D01*
X106424905Y-108173852D01*
X106345095Y-108219930D01*
X106279930Y-108285095D01*
X106233852Y-108364905D01*
X106210000Y-108453922D01*
X106160369Y-108453922D01*
X105552116Y-107845669D01*
X105552116Y-107845670D01*
X105533669Y-107871060D01*
X105447914Y-108039362D01*
X105389548Y-108218997D01*
X105360000Y-108405552D01*
X100140500Y-108405552D01*
X100140500Y-108405513D01*
X100110940Y-108218881D01*
X100073077Y-108102352D01*
X100052547Y-108039168D01*
X100052545Y-108039165D01*
X100052545Y-108039163D01*
X100007290Y-107950347D01*
X99966760Y-107870801D01*
X99855690Y-107717927D01*
X99849944Y-107712181D01*
X99816459Y-107650858D01*
X99821443Y-107581166D01*
X99863315Y-107525233D01*
X99928779Y-107500816D01*
X99937625Y-107500500D01*
X105862692Y-107500500D01*
X105929731Y-107520185D01*
X105950373Y-107536819D01*
X106560000Y-108146446D01*
X107169627Y-107536819D01*
X107230950Y-107503334D01*
X107257308Y-107500500D01*
X107493920Y-107500500D01*
X107591462Y-107481096D01*
X107638913Y-107471658D01*
X107775495Y-107415084D01*
X107824729Y-107382186D01*
X107898416Y-107332952D01*
X113424548Y-101806818D01*
X113485871Y-101773334D01*
X113512229Y-101770500D01*
X114900005Y-101770500D01*
X114900010Y-101770500D01*
X115002798Y-101759999D01*
X115169335Y-101704814D01*
X115318656Y-101612712D01*
X115442712Y-101488656D01*
X115534814Y-101339335D01*
X115589999Y-101172798D01*
X115600500Y-101070010D01*
X115600500Y-99269990D01*
X115589999Y-99167202D01*
X115534814Y-99000665D01*
X115442712Y-98851344D01*
X115318656Y-98727288D01*
X115169335Y-98635186D01*
X115002798Y-98580001D01*
X115002796Y-98580000D01*
X114900017Y-98569500D01*
X114900010Y-98569500D01*
X113099990Y-98569500D01*
X113099982Y-98569500D01*
X112997203Y-98580000D01*
X112997202Y-98580001D01*
X112938527Y-98599444D01*
X112830667Y-98635185D01*
X112830662Y-98635187D01*
X112681342Y-98727289D01*
X112557289Y-98851342D01*
X112465187Y-99000662D01*
X112465186Y-99000665D01*
X112410001Y-99167202D01*
X112410001Y-99167203D01*
X112410000Y-99167203D01*
X112399500Y-99269982D01*
X112399500Y-100657770D01*
X112379815Y-100724809D01*
X112363181Y-100745451D01*
X107145451Y-105963181D01*
X107084128Y-105996666D01*
X107057770Y-105999500D01*
X91625276Y-105999500D01*
X91558237Y-105979815D01*
X91512482Y-105927011D01*
X91502538Y-105857853D01*
X91507345Y-105837183D01*
X91517988Y-105804425D01*
X91517989Y-105804418D01*
X91550000Y-105602317D01*
X91550000Y-105397682D01*
X91517990Y-105195582D01*
X91454755Y-105000968D01*
X91361859Y-104818650D01*
X91329474Y-104774077D01*
X91329474Y-104774076D01*
X90650000Y-105453551D01*
X90650000Y-105447339D01*
X90622741Y-105345606D01*
X90570080Y-105254394D01*
X90495606Y-105179920D01*
X90404394Y-105127259D01*
X90302661Y-105100000D01*
X90296446Y-105100000D01*
X90975922Y-104420524D01*
X90975921Y-104420523D01*
X90931359Y-104388147D01*
X90931350Y-104388141D01*
X90749031Y-104295244D01*
X90554417Y-104232009D01*
X90352317Y-104200000D01*
X90147683Y-104200000D01*
X89945582Y-104232009D01*
X89750968Y-104295244D01*
X89568644Y-104388143D01*
X89524077Y-104420523D01*
X89524077Y-104420524D01*
X90203554Y-105100000D01*
X90197339Y-105100000D01*
X90095606Y-105127259D01*
X90004394Y-105179920D01*
X89929920Y-105254394D01*
X89877259Y-105345606D01*
X89850000Y-105447339D01*
X89850000Y-105453553D01*
X89170524Y-104774077D01*
X89170523Y-104774077D01*
X89138143Y-104818644D01*
X89045244Y-105000968D01*
X88982010Y-105195581D01*
X88955125Y-105365321D01*
X88925195Y-105428455D01*
X88865884Y-105465386D01*
X88796021Y-105464388D01*
X88744971Y-105433603D01*
X87786819Y-104475451D01*
X87753334Y-104414128D01*
X87750500Y-104387770D01*
X87750500Y-98405513D01*
X90489500Y-98405513D01*
X90489500Y-98594486D01*
X90519059Y-98781118D01*
X90577454Y-98960836D01*
X90663240Y-99129199D01*
X90774310Y-99282073D01*
X90907927Y-99415690D01*
X90976573Y-99465564D01*
X91057940Y-99524682D01*
X91100605Y-99580013D01*
X91106584Y-99649626D01*
X91073978Y-99711421D01*
X91057940Y-99725318D01*
X90907925Y-99834311D01*
X90774312Y-99967924D01*
X90774312Y-99967925D01*
X90774310Y-99967927D01*
X90743384Y-100010493D01*
X90663240Y-100120800D01*
X90577454Y-100289163D01*
X90519059Y-100468881D01*
X90489500Y-100655513D01*
X90489500Y-100844486D01*
X90519059Y-101031118D01*
X90577454Y-101210836D01*
X90622565Y-101299370D01*
X90663240Y-101379199D01*
X90774310Y-101532073D01*
X90907927Y-101665690D01*
X90961774Y-101704812D01*
X91057940Y-101774682D01*
X91100605Y-101830013D01*
X91106584Y-101899626D01*
X91073978Y-101961421D01*
X91057940Y-101975318D01*
X90907925Y-102084311D01*
X90774312Y-102217924D01*
X90774312Y-102217925D01*
X90774310Y-102217927D01*
X90726610Y-102283579D01*
X90663240Y-102370800D01*
X90577454Y-102539163D01*
X90519059Y-102718881D01*
X90489500Y-102905513D01*
X90489500Y-103094486D01*
X90519059Y-103281118D01*
X90577454Y-103460836D01*
X90642499Y-103588492D01*
X90663240Y-103629199D01*
X90774310Y-103782073D01*
X90907927Y-103915690D01*
X91060801Y-104026760D01*
X91140347Y-104067290D01*
X91229163Y-104112545D01*
X91229165Y-104112545D01*
X91229168Y-104112547D01*
X91325497Y-104143846D01*
X91408881Y-104170940D01*
X91595514Y-104200500D01*
X91595519Y-104200500D01*
X91784486Y-104200500D01*
X91971118Y-104170940D01*
X92030692Y-104151583D01*
X92150832Y-104112547D01*
X92319199Y-104026760D01*
X92472073Y-103915690D01*
X92605690Y-103782073D01*
X92716760Y-103629199D01*
X92802547Y-103460832D01*
X92860940Y-103281118D01*
X92880490Y-103157684D01*
X92890500Y-103094486D01*
X92890500Y-102905513D01*
X92860940Y-102718881D01*
X92802545Y-102539163D01*
X92716759Y-102370800D01*
X92605690Y-102217927D01*
X92472073Y-102084310D01*
X92322058Y-101975317D01*
X92279394Y-101919988D01*
X92273415Y-101850374D01*
X92306021Y-101788579D01*
X92322059Y-101774682D01*
X92342268Y-101759999D01*
X92472073Y-101665690D01*
X92605690Y-101532073D01*
X92716760Y-101379199D01*
X92802547Y-101210832D01*
X92860940Y-101031118D01*
X92865869Y-101000000D01*
X92890500Y-100844486D01*
X92890500Y-100655513D01*
X92860940Y-100468881D01*
X92804823Y-100296174D01*
X92802547Y-100289168D01*
X92802545Y-100289165D01*
X92802545Y-100289163D01*
X92716759Y-100120800D01*
X92695192Y-100091116D01*
X92605690Y-99967927D01*
X92472073Y-99834310D01*
X92322058Y-99725317D01*
X92279394Y-99669988D01*
X92273415Y-99600374D01*
X92306021Y-99538579D01*
X92322059Y-99524682D01*
X92472073Y-99415690D01*
X92605690Y-99282073D01*
X92716760Y-99129199D01*
X92802547Y-98960832D01*
X92860940Y-98781118D01*
X92869466Y-98727288D01*
X92890500Y-98594486D01*
X92890500Y-98405513D01*
X98109500Y-98405513D01*
X98109500Y-98594486D01*
X98139059Y-98781118D01*
X98197454Y-98960836D01*
X98283240Y-99129199D01*
X98394310Y-99282073D01*
X98527927Y-99415690D01*
X98596573Y-99465564D01*
X98677940Y-99524682D01*
X98720605Y-99580013D01*
X98726584Y-99649626D01*
X98693978Y-99711421D01*
X98677940Y-99725318D01*
X98527925Y-99834311D01*
X98394312Y-99967924D01*
X98394312Y-99967925D01*
X98394310Y-99967927D01*
X98363384Y-100010493D01*
X98283240Y-100120800D01*
X98197454Y-100289163D01*
X98139059Y-100468881D01*
X98109500Y-100655513D01*
X98109500Y-100844486D01*
X98139059Y-101031118D01*
X98197454Y-101210836D01*
X98242565Y-101299370D01*
X98283240Y-101379199D01*
X98394310Y-101532073D01*
X98527927Y-101665690D01*
X98581774Y-101704812D01*
X98677940Y-101774682D01*
X98720605Y-101830013D01*
X98726584Y-101899626D01*
X98693978Y-101961421D01*
X98677940Y-101975318D01*
X98527925Y-102084311D01*
X98394312Y-102217924D01*
X98394312Y-102217925D01*
X98394310Y-102217927D01*
X98346610Y-102283579D01*
X98283240Y-102370800D01*
X98197454Y-102539163D01*
X98139059Y-102718881D01*
X98109500Y-102905513D01*
X98109500Y-103094486D01*
X98139059Y-103281118D01*
X98197454Y-103460836D01*
X98262499Y-103588492D01*
X98283240Y-103629199D01*
X98394310Y-103782073D01*
X98527927Y-103915690D01*
X98680801Y-104026760D01*
X98760347Y-104067290D01*
X98849163Y-104112545D01*
X98849165Y-104112545D01*
X98849168Y-104112547D01*
X98945497Y-104143846D01*
X99028881Y-104170940D01*
X99215514Y-104200500D01*
X99215519Y-104200500D01*
X99404486Y-104200500D01*
X99591118Y-104170940D01*
X99650692Y-104151583D01*
X99650710Y-104151577D01*
X100999500Y-104151577D01*
X100999500Y-104348422D01*
X101030290Y-104542826D01*
X101091117Y-104730029D01*
X101179092Y-104902689D01*
X101180476Y-104905405D01*
X101296172Y-105064646D01*
X101435354Y-105203828D01*
X101594595Y-105319524D01*
X101677455Y-105361743D01*
X101769970Y-105408882D01*
X101769972Y-105408882D01*
X101769975Y-105408884D01*
X101870317Y-105441487D01*
X101957173Y-105469709D01*
X102151578Y-105500500D01*
X102151583Y-105500500D01*
X102348422Y-105500500D01*
X102542826Y-105469709D01*
X102611673Y-105447339D01*
X102730025Y-105408884D01*
X102905405Y-105319524D01*
X103064646Y-105203828D01*
X103203828Y-105064646D01*
X103319524Y-104905405D01*
X103325222Y-104894221D01*
X103373190Y-104843426D01*
X103441010Y-104826625D01*
X103507146Y-104849158D01*
X103550602Y-104903870D01*
X103553414Y-104911508D01*
X103605641Y-105069118D01*
X103605643Y-105069123D01*
X103697684Y-105218344D01*
X103821655Y-105342315D01*
X103970876Y-105434356D01*
X103970881Y-105434358D01*
X104137303Y-105489505D01*
X104137310Y-105489506D01*
X104240014Y-105499999D01*
X104240027Y-105500000D01*
X104540000Y-105500000D01*
X104540000Y-104530330D01*
X104559745Y-104550075D01*
X104645255Y-104599444D01*
X104740630Y-104625000D01*
X104839370Y-104625000D01*
X104934745Y-104599444D01*
X105020255Y-104550075D01*
X105040000Y-104530330D01*
X105040000Y-105500000D01*
X105339973Y-105500000D01*
X105339985Y-105499999D01*
X105442689Y-105489506D01*
X105442696Y-105489505D01*
X105609118Y-105434358D01*
X105609123Y-105434356D01*
X105758344Y-105342315D01*
X105882315Y-105218344D01*
X105974356Y-105069123D01*
X105974358Y-105069118D01*
X106029505Y-104902696D01*
X106029506Y-104902689D01*
X106039999Y-104799985D01*
X106040000Y-104799972D01*
X106040000Y-104500000D01*
X105070330Y-104500000D01*
X105090075Y-104480255D01*
X105139444Y-104394745D01*
X105165000Y-104299370D01*
X105165000Y-104200630D01*
X105139444Y-104105255D01*
X105090075Y-104019745D01*
X105070330Y-104000000D01*
X106040000Y-104000000D01*
X106040000Y-103700027D01*
X106039999Y-103700014D01*
X106029506Y-103597310D01*
X106029505Y-103597303D01*
X105974358Y-103430881D01*
X105974356Y-103430876D01*
X105882315Y-103281655D01*
X105758344Y-103157684D01*
X105609123Y-103065643D01*
X105609118Y-103065641D01*
X105442696Y-103010494D01*
X105442689Y-103010493D01*
X105339985Y-103000000D01*
X105040000Y-103000000D01*
X105040000Y-103969670D01*
X105020255Y-103949925D01*
X104934745Y-103900556D01*
X104839370Y-103875000D01*
X104740630Y-103875000D01*
X104645255Y-103900556D01*
X104559745Y-103949925D01*
X104540000Y-103969670D01*
X104540000Y-103000000D01*
X104240014Y-103000000D01*
X104137310Y-103010493D01*
X104137303Y-103010494D01*
X103970881Y-103065641D01*
X103970876Y-103065643D01*
X103821655Y-103157684D01*
X103697684Y-103281655D01*
X103605643Y-103430876D01*
X103605642Y-103430879D01*
X103553414Y-103588492D01*
X103513641Y-103645936D01*
X103449125Y-103672759D01*
X103380349Y-103660444D01*
X103329149Y-103612901D01*
X103325221Y-103605777D01*
X103319524Y-103594595D01*
X103315090Y-103588492D01*
X103203828Y-103435354D01*
X103064646Y-103296172D01*
X102905405Y-103180476D01*
X102860673Y-103157684D01*
X102730029Y-103091117D01*
X102542826Y-103030290D01*
X102348422Y-102999500D01*
X102348417Y-102999500D01*
X102151583Y-102999500D01*
X102151578Y-102999500D01*
X101957173Y-103030290D01*
X101769970Y-103091117D01*
X101594594Y-103180476D01*
X101503741Y-103246485D01*
X101435354Y-103296172D01*
X101435352Y-103296174D01*
X101435351Y-103296174D01*
X101296174Y-103435351D01*
X101296174Y-103435352D01*
X101296172Y-103435354D01*
X101277661Y-103460832D01*
X101180476Y-103594594D01*
X101091117Y-103769970D01*
X101030290Y-103957173D01*
X100999500Y-104151577D01*
X99650710Y-104151577D01*
X99770832Y-104112547D01*
X99939199Y-104026760D01*
X100092073Y-103915690D01*
X100225690Y-103782073D01*
X100336760Y-103629199D01*
X100422547Y-103460832D01*
X100480940Y-103281118D01*
X100500490Y-103157684D01*
X100510500Y-103094486D01*
X100510500Y-102905513D01*
X100480940Y-102718881D01*
X100422545Y-102539163D01*
X100336759Y-102370800D01*
X100225690Y-102217927D01*
X100092073Y-102084310D01*
X99942058Y-101975317D01*
X99899394Y-101919988D01*
X99893415Y-101850374D01*
X99926021Y-101788579D01*
X99942059Y-101774682D01*
X99962268Y-101759999D01*
X100092073Y-101665690D01*
X100225690Y-101532073D01*
X100336760Y-101379199D01*
X100422547Y-101210832D01*
X100441800Y-101151577D01*
X101124830Y-101151577D01*
X101124830Y-101348422D01*
X101155620Y-101542826D01*
X101216447Y-101730029D01*
X101302861Y-101899626D01*
X101305806Y-101905405D01*
X101421502Y-102064646D01*
X101560684Y-102203828D01*
X101719925Y-102319524D01*
X101802785Y-102361743D01*
X101895300Y-102408882D01*
X101895302Y-102408882D01*
X101895305Y-102408884D01*
X101995647Y-102441487D01*
X102082503Y-102469709D01*
X102276908Y-102500500D01*
X102276913Y-102500500D01*
X102473752Y-102500500D01*
X102668156Y-102469709D01*
X102855355Y-102408884D01*
X103030735Y-102319524D01*
X103189976Y-102203828D01*
X103329158Y-102064646D01*
X103444854Y-101905405D01*
X103450552Y-101894221D01*
X103498520Y-101843426D01*
X103566340Y-101826625D01*
X103632476Y-101849158D01*
X103675932Y-101903870D01*
X103678744Y-101911508D01*
X103730971Y-102069118D01*
X103730973Y-102069123D01*
X103823014Y-102218344D01*
X103946985Y-102342315D01*
X104096206Y-102434356D01*
X104096211Y-102434358D01*
X104262633Y-102489505D01*
X104262640Y-102489506D01*
X104365344Y-102499999D01*
X104365357Y-102500000D01*
X104665330Y-102500000D01*
X104665330Y-101530330D01*
X104685075Y-101550075D01*
X104770585Y-101599444D01*
X104865960Y-101625000D01*
X104964700Y-101625000D01*
X105060075Y-101599444D01*
X105145585Y-101550075D01*
X105165330Y-101530330D01*
X105165330Y-102500000D01*
X105465303Y-102500000D01*
X105465315Y-102499999D01*
X105568019Y-102489506D01*
X105568026Y-102489505D01*
X105734448Y-102434358D01*
X105734453Y-102434356D01*
X105883674Y-102342315D01*
X106007645Y-102218344D01*
X106099686Y-102069123D01*
X106099688Y-102069118D01*
X106154835Y-101902696D01*
X106154836Y-101902689D01*
X106165329Y-101799985D01*
X106165330Y-101799972D01*
X106165330Y-101500000D01*
X105195660Y-101500000D01*
X105215405Y-101480255D01*
X105264774Y-101394745D01*
X105290330Y-101299370D01*
X105290330Y-101200630D01*
X105264774Y-101105255D01*
X105215405Y-101019745D01*
X105195660Y-101000000D01*
X106165330Y-101000000D01*
X106165330Y-100700027D01*
X106165329Y-100700014D01*
X106154836Y-100597310D01*
X106154835Y-100597303D01*
X106099688Y-100430881D01*
X106099686Y-100430876D01*
X106007645Y-100281655D01*
X105883674Y-100157684D01*
X105734453Y-100065643D01*
X105734448Y-100065641D01*
X105568026Y-100010494D01*
X105568019Y-100010493D01*
X105465315Y-100000000D01*
X105165330Y-100000000D01*
X105165330Y-100969670D01*
X105145585Y-100949925D01*
X105060075Y-100900556D01*
X104964700Y-100875000D01*
X104865960Y-100875000D01*
X104770585Y-100900556D01*
X104685075Y-100949925D01*
X104665330Y-100969670D01*
X104665330Y-100000000D01*
X104365344Y-100000000D01*
X104262640Y-100010493D01*
X104262633Y-100010494D01*
X104096211Y-100065641D01*
X104096206Y-100065643D01*
X103946985Y-100157684D01*
X103823014Y-100281655D01*
X103730973Y-100430876D01*
X103730972Y-100430879D01*
X103678744Y-100588492D01*
X103638971Y-100645936D01*
X103574455Y-100672759D01*
X103505679Y-100660444D01*
X103454479Y-100612901D01*
X103450551Y-100605777D01*
X103444854Y-100594595D01*
X103440420Y-100588492D01*
X103329158Y-100435354D01*
X103189976Y-100296172D01*
X103030735Y-100180476D01*
X102986003Y-100157684D01*
X102855359Y-100091117D01*
X102668156Y-100030290D01*
X102473752Y-99999500D01*
X102473747Y-99999500D01*
X102276913Y-99999500D01*
X102276908Y-99999500D01*
X102082503Y-100030290D01*
X101895300Y-100091117D01*
X101719924Y-100180476D01*
X101629071Y-100246485D01*
X101560684Y-100296172D01*
X101560682Y-100296174D01*
X101560681Y-100296174D01*
X101421504Y-100435351D01*
X101421504Y-100435352D01*
X101421502Y-100435354D01*
X101371815Y-100503741D01*
X101305806Y-100594594D01*
X101216447Y-100769970D01*
X101155620Y-100957173D01*
X101124830Y-101151577D01*
X100441800Y-101151577D01*
X100480940Y-101031118D01*
X100485869Y-101000000D01*
X100510500Y-100844486D01*
X100510500Y-100655513D01*
X100480940Y-100468881D01*
X100424823Y-100296174D01*
X100422547Y-100289168D01*
X100422545Y-100289165D01*
X100422545Y-100289163D01*
X100336759Y-100120800D01*
X100315192Y-100091116D01*
X100225690Y-99967927D01*
X100092073Y-99834310D01*
X99942058Y-99725317D01*
X99899394Y-99669988D01*
X99893415Y-99600374D01*
X99926021Y-99538579D01*
X99942059Y-99524682D01*
X100092073Y-99415690D01*
X100225690Y-99282073D01*
X100336760Y-99129199D01*
X100422547Y-98960832D01*
X100480940Y-98781118D01*
X100489466Y-98727288D01*
X100510500Y-98594486D01*
X100510500Y-98405513D01*
X100490107Y-98276759D01*
X100480940Y-98218882D01*
X100480939Y-98218878D01*
X100480939Y-98218877D01*
X100469941Y-98185029D01*
X100459071Y-98151577D01*
X101209500Y-98151577D01*
X101209500Y-98348422D01*
X101240290Y-98542826D01*
X101301117Y-98730029D01*
X101389092Y-98902689D01*
X101390476Y-98905405D01*
X101506172Y-99064646D01*
X101645354Y-99203828D01*
X101804595Y-99319524D01*
X101887455Y-99361743D01*
X101979970Y-99408882D01*
X101979972Y-99408882D01*
X101979975Y-99408884D01*
X102080317Y-99441487D01*
X102167173Y-99469709D01*
X102361578Y-99500500D01*
X102361583Y-99500500D01*
X102558422Y-99500500D01*
X102752826Y-99469709D01*
X102940025Y-99408884D01*
X103115405Y-99319524D01*
X103274646Y-99203828D01*
X103413828Y-99064646D01*
X103529524Y-98905405D01*
X103535222Y-98894221D01*
X103583190Y-98843426D01*
X103651010Y-98826625D01*
X103717146Y-98849158D01*
X103760602Y-98903870D01*
X103763414Y-98911508D01*
X103815641Y-99069118D01*
X103815643Y-99069123D01*
X103907684Y-99218344D01*
X104031655Y-99342315D01*
X104180876Y-99434356D01*
X104180881Y-99434358D01*
X104347303Y-99489505D01*
X104347310Y-99489506D01*
X104450014Y-99499999D01*
X104450027Y-99500000D01*
X104750000Y-99500000D01*
X104750000Y-98530330D01*
X104769745Y-98550075D01*
X104855255Y-98599444D01*
X104950630Y-98625000D01*
X105049370Y-98625000D01*
X105144745Y-98599444D01*
X105230255Y-98550075D01*
X105250000Y-98530330D01*
X105250000Y-99500000D01*
X105549973Y-99500000D01*
X105549985Y-99499999D01*
X105652689Y-99489506D01*
X105652696Y-99489505D01*
X105819118Y-99434358D01*
X105819123Y-99434356D01*
X105968344Y-99342315D01*
X106092315Y-99218344D01*
X106184356Y-99069123D01*
X106184358Y-99069118D01*
X106239505Y-98902696D01*
X106239506Y-98902689D01*
X106249999Y-98799985D01*
X106250000Y-98799972D01*
X106250000Y-98500000D01*
X105280330Y-98500000D01*
X105300075Y-98480255D01*
X105349444Y-98394745D01*
X105375000Y-98299370D01*
X105375000Y-98200630D01*
X105349444Y-98105255D01*
X105300075Y-98019745D01*
X105280330Y-98000000D01*
X106250000Y-98000000D01*
X106250000Y-97700027D01*
X106249999Y-97700014D01*
X106239506Y-97597310D01*
X106239505Y-97597303D01*
X106184358Y-97430881D01*
X106184356Y-97430876D01*
X106092315Y-97281655D01*
X105968344Y-97157684D01*
X105964824Y-97155513D01*
X106989500Y-97155513D01*
X106989500Y-97344486D01*
X107019059Y-97531118D01*
X107077454Y-97710836D01*
X107163240Y-97879199D01*
X107274310Y-98032073D01*
X107407927Y-98165690D01*
X107560801Y-98276760D01*
X107605176Y-98299370D01*
X107729163Y-98362545D01*
X107729165Y-98362545D01*
X107729168Y-98362547D01*
X107825497Y-98393846D01*
X107908881Y-98420940D01*
X108095514Y-98450500D01*
X108095519Y-98450500D01*
X108284486Y-98450500D01*
X108471118Y-98420940D01*
X108650832Y-98362547D01*
X108819199Y-98276760D01*
X108972073Y-98165690D01*
X109105690Y-98032073D01*
X109216760Y-97879199D01*
X109302547Y-97710832D01*
X109360940Y-97531118D01*
X109370107Y-97473240D01*
X109390500Y-97344486D01*
X109390500Y-97155513D01*
X114609500Y-97155513D01*
X114609500Y-97344486D01*
X114639059Y-97531118D01*
X114697454Y-97710836D01*
X114783240Y-97879199D01*
X114894310Y-98032073D01*
X115027927Y-98165690D01*
X115180801Y-98276760D01*
X115225176Y-98299370D01*
X115349163Y-98362545D01*
X115349165Y-98362545D01*
X115349168Y-98362547D01*
X115445497Y-98393846D01*
X115528881Y-98420940D01*
X115715514Y-98450500D01*
X115715519Y-98450500D01*
X115904486Y-98450500D01*
X116091118Y-98420940D01*
X116270832Y-98362547D01*
X116439199Y-98276760D01*
X116592073Y-98165690D01*
X116725690Y-98032073D01*
X116836760Y-97879199D01*
X116922547Y-97710832D01*
X116980940Y-97531118D01*
X116990107Y-97473240D01*
X117010500Y-97344486D01*
X117010500Y-97155513D01*
X116980940Y-96968881D01*
X116953846Y-96885497D01*
X116922547Y-96789168D01*
X116922545Y-96789165D01*
X116922545Y-96789163D01*
X116836759Y-96620800D01*
X116725690Y-96467927D01*
X116592073Y-96334310D01*
X116439199Y-96223240D01*
X116270836Y-96137454D01*
X116091118Y-96079059D01*
X115904486Y-96049500D01*
X115904481Y-96049500D01*
X115715519Y-96049500D01*
X115715514Y-96049500D01*
X115528881Y-96079059D01*
X115349163Y-96137454D01*
X115180800Y-96223240D01*
X115093579Y-96286610D01*
X115027927Y-96334310D01*
X115027925Y-96334312D01*
X115027924Y-96334312D01*
X114894312Y-96467924D01*
X114894312Y-96467925D01*
X114894310Y-96467927D01*
X114858082Y-96517790D01*
X114783240Y-96620800D01*
X114697454Y-96789163D01*
X114639059Y-96968881D01*
X114609500Y-97155513D01*
X109390500Y-97155513D01*
X109360940Y-96968881D01*
X109333846Y-96885497D01*
X109302547Y-96789168D01*
X109302545Y-96789165D01*
X109302545Y-96789163D01*
X109216759Y-96620800D01*
X109105690Y-96467927D01*
X108972073Y-96334310D01*
X108819199Y-96223240D01*
X108650836Y-96137454D01*
X108471118Y-96079059D01*
X108284486Y-96049500D01*
X108284481Y-96049500D01*
X108095519Y-96049500D01*
X108095514Y-96049500D01*
X107908881Y-96079059D01*
X107729163Y-96137454D01*
X107560800Y-96223240D01*
X107473579Y-96286610D01*
X107407927Y-96334310D01*
X107407925Y-96334312D01*
X107407924Y-96334312D01*
X107274312Y-96467924D01*
X107274312Y-96467925D01*
X107274310Y-96467927D01*
X107238082Y-96517790D01*
X107163240Y-96620800D01*
X107077454Y-96789163D01*
X107019059Y-96968881D01*
X106989500Y-97155513D01*
X105964824Y-97155513D01*
X105819123Y-97065643D01*
X105819118Y-97065641D01*
X105652696Y-97010494D01*
X105652689Y-97010493D01*
X105549985Y-97000000D01*
X105250000Y-97000000D01*
X105250000Y-97969670D01*
X105230255Y-97949925D01*
X105144745Y-97900556D01*
X105049370Y-97875000D01*
X104950630Y-97875000D01*
X104855255Y-97900556D01*
X104769745Y-97949925D01*
X104750000Y-97969670D01*
X104750000Y-97000000D01*
X104450014Y-97000000D01*
X104347310Y-97010493D01*
X104347303Y-97010494D01*
X104180881Y-97065641D01*
X104180876Y-97065643D01*
X104031655Y-97157684D01*
X103907684Y-97281655D01*
X103815643Y-97430876D01*
X103815642Y-97430879D01*
X103763414Y-97588492D01*
X103723641Y-97645936D01*
X103659125Y-97672759D01*
X103590349Y-97660444D01*
X103539149Y-97612901D01*
X103535221Y-97605777D01*
X103529524Y-97594595D01*
X103522051Y-97584310D01*
X103413828Y-97435354D01*
X103274646Y-97296172D01*
X103115405Y-97180476D01*
X103066424Y-97155519D01*
X102940029Y-97091117D01*
X102752826Y-97030290D01*
X102558422Y-96999500D01*
X102558417Y-96999500D01*
X102361583Y-96999500D01*
X102361578Y-96999500D01*
X102167173Y-97030290D01*
X101979970Y-97091117D01*
X101804594Y-97180476D01*
X101713741Y-97246485D01*
X101645354Y-97296172D01*
X101645352Y-97296174D01*
X101645351Y-97296174D01*
X101506174Y-97435351D01*
X101506174Y-97435352D01*
X101506172Y-97435354D01*
X101478646Y-97473240D01*
X101390476Y-97594594D01*
X101301117Y-97769970D01*
X101240290Y-97957173D01*
X101209500Y-98151577D01*
X100459071Y-98151577D01*
X100422545Y-98039163D01*
X100336759Y-97870800D01*
X100225690Y-97717927D01*
X100092073Y-97584310D01*
X99939199Y-97473240D01*
X99770836Y-97387454D01*
X99591118Y-97329059D01*
X99404486Y-97299500D01*
X99404481Y-97299500D01*
X99215519Y-97299500D01*
X99215514Y-97299500D01*
X99028881Y-97329059D01*
X98849163Y-97387454D01*
X98680800Y-97473240D01*
X98601139Y-97531118D01*
X98527927Y-97584310D01*
X98527925Y-97584312D01*
X98527924Y-97584312D01*
X98394312Y-97717924D01*
X98394312Y-97717925D01*
X98394310Y-97717927D01*
X98356498Y-97769970D01*
X98283240Y-97870800D01*
X98197454Y-98039163D01*
X98139059Y-98218881D01*
X98109500Y-98405513D01*
X92890500Y-98405513D01*
X92860940Y-98218881D01*
X92802545Y-98039163D01*
X92716759Y-97870800D01*
X92605690Y-97717927D01*
X92472073Y-97584310D01*
X92319199Y-97473240D01*
X92150836Y-97387454D01*
X91971118Y-97329059D01*
X91784486Y-97299500D01*
X91784481Y-97299500D01*
X91595519Y-97299500D01*
X91595514Y-97299500D01*
X91408881Y-97329059D01*
X91229163Y-97387454D01*
X91060800Y-97473240D01*
X90981139Y-97531118D01*
X90907927Y-97584310D01*
X90907925Y-97584312D01*
X90907924Y-97584312D01*
X90774312Y-97717924D01*
X90774312Y-97717925D01*
X90774310Y-97717927D01*
X90736498Y-97769970D01*
X90663240Y-97870800D01*
X90577454Y-98039163D01*
X90519059Y-98218881D01*
X90489500Y-98405513D01*
X87750500Y-98405513D01*
X87750500Y-92405513D01*
X112489500Y-92405513D01*
X112489500Y-92594486D01*
X112519059Y-92781118D01*
X112577454Y-92960836D01*
X112639676Y-93082952D01*
X112663240Y-93129199D01*
X112774310Y-93282073D01*
X112907927Y-93415690D01*
X113060801Y-93526760D01*
X113140347Y-93567290D01*
X113229163Y-93612545D01*
X113229165Y-93612545D01*
X113229168Y-93612547D01*
X113325497Y-93643846D01*
X113408881Y-93670940D01*
X113595514Y-93700500D01*
X113595519Y-93700500D01*
X113784486Y-93700500D01*
X113971118Y-93670940D01*
X114150832Y-93612547D01*
X114319199Y-93526760D01*
X114472073Y-93415690D01*
X114605690Y-93282073D01*
X114716760Y-93129199D01*
X114802547Y-92960832D01*
X114860940Y-92781118D01*
X114890500Y-92594486D01*
X114890500Y-92405513D01*
X114860940Y-92218881D01*
X114802545Y-92039163D01*
X114716759Y-91870800D01*
X114605690Y-91717927D01*
X114472073Y-91584310D01*
X114319199Y-91473240D01*
X114292117Y-91459441D01*
X114150836Y-91387454D01*
X113971118Y-91329059D01*
X113784486Y-91299500D01*
X113784481Y-91299500D01*
X113595519Y-91299500D01*
X113595514Y-91299500D01*
X113408881Y-91329059D01*
X113229163Y-91387454D01*
X113060800Y-91473240D01*
X112974976Y-91535596D01*
X112907927Y-91584310D01*
X112907925Y-91584312D01*
X112907924Y-91584312D01*
X112774312Y-91717924D01*
X112774312Y-91717925D01*
X112774310Y-91717927D01*
X112726610Y-91783579D01*
X112663240Y-91870800D01*
X112577454Y-92039163D01*
X112519059Y-92218881D01*
X112489500Y-92405513D01*
X87750500Y-92405513D01*
X87750500Y-87397648D01*
X110199500Y-87397648D01*
X110199500Y-87602351D01*
X110231522Y-87804534D01*
X110294781Y-87999223D01*
X110387715Y-88181613D01*
X110508028Y-88347213D01*
X110652786Y-88491971D01*
X110818385Y-88612284D01*
X110818387Y-88612285D01*
X110818390Y-88612287D01*
X110872378Y-88639795D01*
X110923174Y-88687769D01*
X110939969Y-88755590D01*
X110917432Y-88821725D01*
X110872378Y-88860765D01*
X110818644Y-88888143D01*
X110774077Y-88920523D01*
X110774077Y-88920524D01*
X111453554Y-89600000D01*
X111447339Y-89600000D01*
X111345606Y-89627259D01*
X111254394Y-89679920D01*
X111179920Y-89754394D01*
X111127259Y-89845606D01*
X111100000Y-89947339D01*
X111100000Y-89953553D01*
X110420524Y-89274077D01*
X110420523Y-89274077D01*
X110388143Y-89318644D01*
X110295244Y-89500968D01*
X110232009Y-89695582D01*
X110200000Y-89897682D01*
X110200000Y-90102317D01*
X110232009Y-90304417D01*
X110295244Y-90499031D01*
X110388141Y-90681350D01*
X110388147Y-90681359D01*
X110420523Y-90725921D01*
X110420524Y-90725922D01*
X111100000Y-90046446D01*
X111100000Y-90052661D01*
X111127259Y-90154394D01*
X111179920Y-90245606D01*
X111254394Y-90320080D01*
X111345606Y-90372741D01*
X111447339Y-90400000D01*
X111453553Y-90400000D01*
X110774076Y-91079474D01*
X110818650Y-91111859D01*
X111000968Y-91204755D01*
X111195582Y-91267990D01*
X111397683Y-91300000D01*
X111602317Y-91300000D01*
X111804417Y-91267990D01*
X111999031Y-91204755D01*
X112181349Y-91111859D01*
X112225921Y-91079474D01*
X111546447Y-90400000D01*
X111552661Y-90400000D01*
X111654394Y-90372741D01*
X111745606Y-90320080D01*
X111820080Y-90245606D01*
X111872741Y-90154394D01*
X111900000Y-90052661D01*
X111900000Y-90046446D01*
X112579474Y-90725921D01*
X112611859Y-90681349D01*
X112704752Y-90499036D01*
X112705627Y-90496924D01*
X112706175Y-90496242D01*
X112706969Y-90494686D01*
X112707295Y-90494852D01*
X112749461Y-90442515D01*
X112815752Y-90420441D01*
X112883453Y-90437710D01*
X112907876Y-90456680D01*
X112941059Y-90489863D01*
X112941064Y-90489867D01*
X113049703Y-90568797D01*
X113148053Y-90640252D01*
X113261572Y-90698093D01*
X113376024Y-90756410D01*
X113376027Y-90756411D01*
X113488888Y-90793081D01*
X113619361Y-90835474D01*
X113872070Y-90875500D01*
X113872071Y-90875500D01*
X114127929Y-90875500D01*
X114127930Y-90875500D01*
X114380639Y-90835474D01*
X114623975Y-90756410D01*
X114851947Y-90640252D01*
X115058942Y-90489862D01*
X115239862Y-90308942D01*
X115390252Y-90101947D01*
X115506410Y-89873975D01*
X115585474Y-89630639D01*
X115625500Y-89377930D01*
X115625500Y-89122070D01*
X115585474Y-88869361D01*
X115506410Y-88626025D01*
X115506410Y-88626024D01*
X115466185Y-88547080D01*
X115390252Y-88398053D01*
X115353315Y-88347213D01*
X115239867Y-88191064D01*
X115239863Y-88191059D01*
X115058940Y-88010136D01*
X115058935Y-88010132D01*
X114851950Y-87859750D01*
X114851949Y-87859749D01*
X114851947Y-87859748D01*
X114743584Y-87804534D01*
X114623975Y-87743589D01*
X114623972Y-87743588D01*
X114380640Y-87664526D01*
X114254284Y-87644513D01*
X114127930Y-87624500D01*
X113872070Y-87624500D01*
X113787833Y-87637842D01*
X113619359Y-87664526D01*
X113376027Y-87743588D01*
X113376024Y-87743589D01*
X113148049Y-87859750D01*
X112937116Y-88013001D01*
X112935854Y-88011264D01*
X112880238Y-88036156D01*
X112811157Y-88025689D01*
X112758701Y-87979535D01*
X112739526Y-87912348D01*
X112745591Y-87874969D01*
X112768477Y-87804534D01*
X112800500Y-87602351D01*
X112800500Y-87397648D01*
X112768477Y-87195465D01*
X112722023Y-87052495D01*
X112705220Y-87000781D01*
X112705218Y-87000778D01*
X112705218Y-87000776D01*
X112633544Y-86860110D01*
X112612287Y-86818390D01*
X112577796Y-86770917D01*
X112491971Y-86652786D01*
X112347213Y-86508028D01*
X112181613Y-86387715D01*
X112181612Y-86387714D01*
X112181610Y-86387713D01*
X112124653Y-86358691D01*
X111999223Y-86294781D01*
X111804534Y-86231522D01*
X111629995Y-86203878D01*
X111602352Y-86199500D01*
X111397648Y-86199500D01*
X111373329Y-86203351D01*
X111195465Y-86231522D01*
X111000776Y-86294781D01*
X110818386Y-86387715D01*
X110652786Y-86508028D01*
X110508028Y-86652786D01*
X110387715Y-86818386D01*
X110294781Y-87000776D01*
X110231522Y-87195465D01*
X110199500Y-87397648D01*
X87750500Y-87397648D01*
X87750500Y-87236079D01*
X87721659Y-87091092D01*
X87721658Y-87091091D01*
X87721658Y-87091087D01*
X87680950Y-86992809D01*
X87665087Y-86954511D01*
X87665080Y-86954498D01*
X87582951Y-86831584D01*
X87582948Y-86831580D01*
X87486819Y-86735451D01*
X87472115Y-86708523D01*
X87455523Y-86682705D01*
X87454631Y-86676504D01*
X87453334Y-86674128D01*
X87450500Y-86647770D01*
X87450500Y-86472229D01*
X87470185Y-86405190D01*
X87486819Y-86384548D01*
X87718710Y-86152658D01*
X87983952Y-85887416D01*
X88039331Y-85804534D01*
X88057105Y-85777934D01*
X88057109Y-85777927D01*
X88066084Y-85764495D01*
X88122658Y-85627913D01*
X88148102Y-85500000D01*
X88151500Y-85482920D01*
X88151500Y-85397648D01*
X112449500Y-85397648D01*
X112449500Y-85602351D01*
X112481522Y-85804534D01*
X112544781Y-85999223D01*
X112587248Y-86082567D01*
X112637585Y-86181359D01*
X112637715Y-86181613D01*
X112758028Y-86347213D01*
X112902786Y-86491971D01*
X113040569Y-86592074D01*
X113068390Y-86612287D01*
X113160880Y-86659413D01*
X113250776Y-86705218D01*
X113250778Y-86705218D01*
X113250781Y-86705220D01*
X113355137Y-86739127D01*
X113445465Y-86768477D01*
X113546557Y-86784488D01*
X113647648Y-86800500D01*
X113647649Y-86800500D01*
X113852351Y-86800500D01*
X113852352Y-86800500D01*
X114054534Y-86768477D01*
X114249219Y-86705220D01*
X114431610Y-86612287D01*
X114524590Y-86544732D01*
X114597213Y-86491971D01*
X114597215Y-86491968D01*
X114597219Y-86491966D01*
X114741966Y-86347219D01*
X114741968Y-86347215D01*
X114741971Y-86347213D01*
X114862286Y-86181611D01*
X114862415Y-86181359D01*
X114889795Y-86127621D01*
X114937769Y-86076826D01*
X115005589Y-86060030D01*
X115071725Y-86082567D01*
X115110765Y-86127621D01*
X115138141Y-86181350D01*
X115138147Y-86181359D01*
X115170523Y-86225921D01*
X115170524Y-86225922D01*
X115850000Y-85546446D01*
X115850000Y-85552661D01*
X115877259Y-85654394D01*
X115929920Y-85745606D01*
X116004394Y-85820080D01*
X116095606Y-85872741D01*
X116197339Y-85900000D01*
X116203553Y-85900000D01*
X115524076Y-86579474D01*
X115568650Y-86611859D01*
X115750968Y-86704755D01*
X115945582Y-86767990D01*
X116147683Y-86800000D01*
X116352317Y-86800000D01*
X116554417Y-86767990D01*
X116749031Y-86704755D01*
X116931349Y-86611859D01*
X116975921Y-86579474D01*
X116296447Y-85900000D01*
X116302661Y-85900000D01*
X116404394Y-85872741D01*
X116495606Y-85820080D01*
X116570080Y-85745606D01*
X116622741Y-85654394D01*
X116650000Y-85552661D01*
X116650000Y-85546447D01*
X117329474Y-86225921D01*
X117361861Y-86181347D01*
X117376478Y-86152658D01*
X117424451Y-86101861D01*
X117492271Y-86085064D01*
X117558407Y-86107599D01*
X117601860Y-86162313D01*
X117604895Y-86170631D01*
X117637454Y-86270835D01*
X117717011Y-86426973D01*
X117723240Y-86439199D01*
X117834310Y-86592073D01*
X117967927Y-86725690D01*
X118120801Y-86836760D01*
X118289168Y-86922547D01*
X118341957Y-86939699D01*
X118399633Y-86979137D01*
X118426831Y-87043495D01*
X118414916Y-87112342D01*
X118391321Y-87145310D01*
X118341051Y-87195580D01*
X118341047Y-87195585D01*
X118300405Y-87256409D01*
X118300406Y-87256410D01*
X118258914Y-87318508D01*
X118202343Y-87455082D01*
X118202340Y-87455092D01*
X118173500Y-87600079D01*
X118173500Y-87600082D01*
X118173500Y-91177867D01*
X118173500Y-91177869D01*
X118173499Y-91177869D01*
X118202340Y-91322856D01*
X118202343Y-91322866D01*
X118258914Y-91459441D01*
X118258915Y-91459443D01*
X118258916Y-91459444D01*
X118268135Y-91473242D01*
X118291812Y-91508676D01*
X118291813Y-91508679D01*
X118341046Y-91582363D01*
X118341052Y-91582370D01*
X119737100Y-92978416D01*
X119841635Y-93082951D01*
X119841636Y-93082952D01*
X119964549Y-93165080D01*
X119964562Y-93165087D01*
X120101133Y-93221656D01*
X120101138Y-93221658D01*
X120101142Y-93221658D01*
X120101143Y-93221659D01*
X120246130Y-93250500D01*
X120246133Y-93250500D01*
X120311375Y-93250500D01*
X120378414Y-93270185D01*
X120399056Y-93286819D01*
X120527927Y-93415690D01*
X120680801Y-93526760D01*
X120760347Y-93567290D01*
X120849163Y-93612545D01*
X120849165Y-93612545D01*
X120849168Y-93612547D01*
X120945497Y-93643846D01*
X121028881Y-93670940D01*
X121215514Y-93700500D01*
X121215519Y-93700500D01*
X121404486Y-93700500D01*
X121591118Y-93670940D01*
X121770832Y-93612547D01*
X121939199Y-93526760D01*
X122092073Y-93415690D01*
X122225690Y-93282073D01*
X122336760Y-93129199D01*
X122422547Y-92960832D01*
X122480940Y-92781118D01*
X122510500Y-92594486D01*
X122510500Y-92405513D01*
X122480940Y-92218881D01*
X122422545Y-92039163D01*
X122336759Y-91870800D01*
X122225690Y-91717927D01*
X122092073Y-91584310D01*
X121939199Y-91473240D01*
X121912117Y-91459441D01*
X121770836Y-91387454D01*
X121591118Y-91329059D01*
X121404486Y-91299500D01*
X121404481Y-91299500D01*
X121215519Y-91299500D01*
X121215514Y-91299500D01*
X121028881Y-91329059D01*
X120849163Y-91387454D01*
X120680796Y-91473242D01*
X120577580Y-91548233D01*
X120511773Y-91571713D01*
X120443720Y-91555887D01*
X120417014Y-91535596D01*
X119968100Y-91086681D01*
X119934615Y-91025358D01*
X119939599Y-90955666D01*
X119981471Y-90899733D01*
X120046935Y-90875316D01*
X120055781Y-90875000D01*
X120250000Y-90875000D01*
X120250000Y-89850001D01*
X120310402Y-89875021D01*
X120435981Y-89900000D01*
X120564019Y-89900000D01*
X120689598Y-89875021D01*
X120750000Y-89850001D01*
X120750000Y-90875000D01*
X121672828Y-90875000D01*
X121672844Y-90874999D01*
X121732372Y-90868598D01*
X121732379Y-90868596D01*
X121867086Y-90818354D01*
X121867093Y-90818350D01*
X121982187Y-90732190D01*
X121982190Y-90732187D01*
X122068350Y-90617093D01*
X122068354Y-90617086D01*
X122118596Y-90482379D01*
X122118598Y-90482372D01*
X122124999Y-90422844D01*
X122125000Y-90422827D01*
X122125000Y-89500000D01*
X121100001Y-89500000D01*
X121125021Y-89439598D01*
X121150000Y-89314019D01*
X121150000Y-89185981D01*
X121125021Y-89060402D01*
X121100001Y-89000000D01*
X122125000Y-89000000D01*
X122125000Y-88077172D01*
X122124999Y-88077155D01*
X122118598Y-88017627D01*
X122118596Y-88017620D01*
X122068354Y-87882913D01*
X122068350Y-87882906D01*
X121982190Y-87767812D01*
X121982187Y-87767809D01*
X121867093Y-87681649D01*
X121867086Y-87681645D01*
X121732379Y-87631403D01*
X121732372Y-87631401D01*
X121672844Y-87625000D01*
X120750000Y-87625000D01*
X120750000Y-88649998D01*
X120689598Y-88624979D01*
X120564019Y-88600000D01*
X120435981Y-88600000D01*
X120310402Y-88624979D01*
X120250000Y-88649998D01*
X120250000Y-87625000D01*
X120229864Y-87604864D01*
X120196379Y-87543541D01*
X120201363Y-87473849D01*
X120229862Y-87429504D01*
X120483952Y-87175415D01*
X120511205Y-87134627D01*
X120566084Y-87052495D01*
X120607569Y-86952342D01*
X120622659Y-86915912D01*
X120622659Y-86915907D01*
X120623237Y-86914514D01*
X120667077Y-86860110D01*
X120733371Y-86838044D01*
X120801071Y-86855322D01*
X120825480Y-86874284D01*
X120941059Y-86989863D01*
X120941064Y-86989867D01*
X121080376Y-87091082D01*
X121148053Y-87140252D01*
X121256640Y-87195580D01*
X121376024Y-87256410D01*
X121376027Y-87256411D01*
X121497693Y-87295942D01*
X121619361Y-87335474D01*
X121872070Y-87375500D01*
X121872071Y-87375500D01*
X122127929Y-87375500D01*
X122127930Y-87375500D01*
X122380639Y-87335474D01*
X122623975Y-87256410D01*
X122851947Y-87140252D01*
X123058942Y-86989862D01*
X123239862Y-86808942D01*
X123390252Y-86601947D01*
X123506410Y-86373975D01*
X123585474Y-86130639D01*
X123625500Y-85877930D01*
X123625500Y-85622070D01*
X123585474Y-85369361D01*
X123528972Y-85195465D01*
X123506411Y-85126027D01*
X123506410Y-85126024D01*
X123442690Y-85000968D01*
X123390252Y-84898053D01*
X123300178Y-84774076D01*
X123239867Y-84691064D01*
X123239863Y-84691059D01*
X123058940Y-84510136D01*
X123058935Y-84510132D01*
X122851950Y-84359750D01*
X122851949Y-84359749D01*
X122851947Y-84359748D01*
X122778910Y-84322533D01*
X122623975Y-84243589D01*
X122623972Y-84243588D01*
X122380640Y-84164526D01*
X122254284Y-84144513D01*
X122127930Y-84124500D01*
X121872070Y-84124500D01*
X121787833Y-84137842D01*
X121619359Y-84164526D01*
X121376027Y-84243588D01*
X121376024Y-84243589D01*
X121148049Y-84359750D01*
X120941064Y-84510132D01*
X120941059Y-84510136D01*
X120863181Y-84588015D01*
X120801858Y-84621500D01*
X120732166Y-84616516D01*
X120676233Y-84574644D01*
X120651816Y-84509180D01*
X120651500Y-84500334D01*
X120651500Y-80994159D01*
X120671185Y-80927120D01*
X120723989Y-80881365D01*
X120788757Y-80870870D01*
X120827158Y-80874999D01*
X120827172Y-80875000D01*
X121750000Y-80875000D01*
X121750000Y-79850001D01*
X121810402Y-79875021D01*
X121935981Y-79900000D01*
X122064019Y-79900000D01*
X122189598Y-79875021D01*
X122250000Y-79850001D01*
X122250000Y-80875000D01*
X123172828Y-80875000D01*
X123172844Y-80874999D01*
X123232372Y-80868598D01*
X123232379Y-80868596D01*
X123367086Y-80818354D01*
X123367093Y-80818350D01*
X123482187Y-80732190D01*
X123482190Y-80732187D01*
X123568350Y-80617093D01*
X123568354Y-80617086D01*
X123618596Y-80482379D01*
X123618598Y-80482372D01*
X123624999Y-80422844D01*
X123625000Y-80422827D01*
X123625000Y-79500000D01*
X122600001Y-79500000D01*
X122625021Y-79439598D01*
X122650000Y-79314019D01*
X122650000Y-79185981D01*
X122625021Y-79060402D01*
X122600001Y-79000000D01*
X123625000Y-79000000D01*
X123625000Y-78077172D01*
X123624999Y-78077155D01*
X123618598Y-78017627D01*
X123618596Y-78017620D01*
X123568354Y-77882913D01*
X123568350Y-77882906D01*
X123482190Y-77767812D01*
X123482187Y-77767809D01*
X123367093Y-77681649D01*
X123367086Y-77681645D01*
X123232379Y-77631403D01*
X123232372Y-77631401D01*
X123172844Y-77625000D01*
X122250000Y-77625000D01*
X122250000Y-78649998D01*
X122189598Y-78624979D01*
X122064019Y-78600000D01*
X121935981Y-78600000D01*
X121810402Y-78624979D01*
X121750000Y-78649998D01*
X121750000Y-77625000D01*
X120827155Y-77625000D01*
X120767627Y-77631401D01*
X120767620Y-77631403D01*
X120632913Y-77681645D01*
X120632906Y-77681649D01*
X120517812Y-77767809D01*
X120517809Y-77767812D01*
X120431649Y-77882906D01*
X120431645Y-77882913D01*
X120381403Y-78017620D01*
X120381401Y-78017627D01*
X120375000Y-78077155D01*
X120375000Y-78454270D01*
X120368761Y-78475515D01*
X120367182Y-78497604D01*
X120359109Y-78508387D01*
X120355315Y-78521309D01*
X120338581Y-78535808D01*
X120325310Y-78553537D01*
X120312689Y-78558244D01*
X120302511Y-78567064D01*
X120280593Y-78570215D01*
X120259846Y-78577954D01*
X120246685Y-78575091D01*
X120233353Y-78577008D01*
X120213209Y-78567808D01*
X120191573Y-78563102D01*
X120173847Y-78549833D01*
X120169797Y-78547983D01*
X120163319Y-78541951D01*
X119986819Y-78365451D01*
X119953334Y-78304128D01*
X119950500Y-78277770D01*
X119950500Y-78095513D01*
X119920940Y-77908881D01*
X119877610Y-77775528D01*
X119862547Y-77729168D01*
X119862545Y-77729165D01*
X119862545Y-77729163D01*
X119776759Y-77560800D01*
X119766230Y-77546308D01*
X119665690Y-77407927D01*
X119532073Y-77274310D01*
X119379199Y-77163240D01*
X119353214Y-77150000D01*
X119210836Y-77077454D01*
X119031118Y-77019059D01*
X118844486Y-76989500D01*
X118844481Y-76989500D01*
X118655519Y-76989500D01*
X118655514Y-76989500D01*
X118468881Y-77019059D01*
X118289163Y-77077454D01*
X118120800Y-77163240D01*
X118094860Y-77182087D01*
X117967927Y-77274310D01*
X117967925Y-77274312D01*
X117967924Y-77274312D01*
X117834312Y-77407924D01*
X117834312Y-77407925D01*
X117834310Y-77407927D01*
X117817101Y-77431613D01*
X117723240Y-77560800D01*
X117637454Y-77729163D01*
X117579059Y-77908881D01*
X117549500Y-78095513D01*
X117549500Y-78284486D01*
X117579059Y-78471118D01*
X117637454Y-78650836D01*
X117717938Y-78808793D01*
X117723240Y-78819199D01*
X117834310Y-78972073D01*
X117967927Y-79105690D01*
X118120801Y-79216760D01*
X118200347Y-79257290D01*
X118289163Y-79302545D01*
X118289165Y-79302545D01*
X118289168Y-79302547D01*
X118356181Y-79324321D01*
X118468881Y-79360940D01*
X118655514Y-79390500D01*
X118837770Y-79390500D01*
X118904809Y-79410185D01*
X118925451Y-79426819D01*
X119114181Y-79615549D01*
X119147666Y-79676872D01*
X119150500Y-79703230D01*
X119150500Y-84512783D01*
X119130815Y-84579822D01*
X119078011Y-84625577D01*
X119008853Y-84635521D01*
X119007102Y-84635256D01*
X118844486Y-84609500D01*
X118844481Y-84609500D01*
X118655519Y-84609500D01*
X118655514Y-84609500D01*
X118468881Y-84639059D01*
X118289163Y-84697454D01*
X118120800Y-84783240D01*
X118041871Y-84840586D01*
X117967927Y-84894310D01*
X117967925Y-84894312D01*
X117967924Y-84894312D01*
X117834312Y-85027924D01*
X117834305Y-85027933D01*
X117721141Y-85183687D01*
X117665811Y-85226353D01*
X117596198Y-85232331D01*
X117534403Y-85199724D01*
X117502893Y-85149120D01*
X117454754Y-85000968D01*
X117361859Y-84818650D01*
X117329474Y-84774077D01*
X117329474Y-84774076D01*
X116650000Y-85453551D01*
X116650000Y-85447339D01*
X116622741Y-85345606D01*
X116570080Y-85254394D01*
X116495606Y-85179920D01*
X116404394Y-85127259D01*
X116302661Y-85100000D01*
X116296446Y-85100000D01*
X116975922Y-84420524D01*
X116975921Y-84420523D01*
X116931359Y-84388147D01*
X116931350Y-84388141D01*
X116749031Y-84295244D01*
X116554417Y-84232009D01*
X116352317Y-84200000D01*
X116147683Y-84200000D01*
X115945582Y-84232009D01*
X115750968Y-84295244D01*
X115568644Y-84388143D01*
X115524077Y-84420523D01*
X115524077Y-84420524D01*
X116203554Y-85100000D01*
X116197339Y-85100000D01*
X116095606Y-85127259D01*
X116004394Y-85179920D01*
X115929920Y-85254394D01*
X115877259Y-85345606D01*
X115850000Y-85447339D01*
X115850000Y-85453553D01*
X115170524Y-84774077D01*
X115170523Y-84774077D01*
X115138143Y-84818644D01*
X115110765Y-84872378D01*
X115062790Y-84923174D01*
X114994969Y-84939969D01*
X114928834Y-84917431D01*
X114889795Y-84872378D01*
X114862284Y-84818385D01*
X114741971Y-84652786D01*
X114597213Y-84508028D01*
X114431613Y-84387715D01*
X114431612Y-84387714D01*
X114431610Y-84387713D01*
X114374653Y-84358691D01*
X114249223Y-84294781D01*
X114054534Y-84231522D01*
X113879995Y-84203878D01*
X113852352Y-84199500D01*
X113647648Y-84199500D01*
X113623329Y-84203351D01*
X113445465Y-84231522D01*
X113250776Y-84294781D01*
X113068386Y-84387715D01*
X112902786Y-84508028D01*
X112758028Y-84652786D01*
X112637715Y-84818386D01*
X112544781Y-85000776D01*
X112481522Y-85195465D01*
X112449500Y-85397648D01*
X88151500Y-85397648D01*
X88151500Y-77546308D01*
X88171185Y-77479269D01*
X88187819Y-77458627D01*
X88850000Y-76796446D01*
X88850000Y-76802661D01*
X88877259Y-76904394D01*
X88929920Y-76995606D01*
X89004394Y-77070080D01*
X89095606Y-77122741D01*
X89197339Y-77150000D01*
X89203553Y-77150000D01*
X88524076Y-77829474D01*
X88568650Y-77861859D01*
X88750968Y-77954755D01*
X88945582Y-78017990D01*
X89147683Y-78050000D01*
X89352317Y-78050000D01*
X89554417Y-78017990D01*
X89749031Y-77954755D01*
X89931349Y-77861859D01*
X89975921Y-77829474D01*
X89296447Y-77150000D01*
X89302661Y-77150000D01*
X89404394Y-77122741D01*
X89495606Y-77070080D01*
X89570080Y-76995606D01*
X89622741Y-76904394D01*
X89650000Y-76802661D01*
X89650000Y-76796447D01*
X90329474Y-77475921D01*
X90361859Y-77431349D01*
X90454755Y-77249031D01*
X90517990Y-77054417D01*
X90550000Y-76852317D01*
X90550000Y-76647683D01*
X90542955Y-76603205D01*
X90542955Y-76603204D01*
X90540410Y-76587135D01*
X112484500Y-76587135D01*
X112484500Y-78412870D01*
X112484501Y-78412876D01*
X112490908Y-78472483D01*
X112541202Y-78607328D01*
X112541206Y-78607335D01*
X112627452Y-78722544D01*
X112627455Y-78722547D01*
X112742664Y-78808793D01*
X112742673Y-78808798D01*
X112810723Y-78834178D01*
X112858632Y-78852047D01*
X112914566Y-78893917D01*
X112938984Y-78959381D01*
X112924133Y-79027654D01*
X112902982Y-79055910D01*
X112808454Y-79150438D01*
X112682120Y-79324321D01*
X112584541Y-79515829D01*
X112584540Y-79515832D01*
X112518124Y-79720240D01*
X112518124Y-79720243D01*
X112518124Y-79720245D01*
X112484500Y-79932533D01*
X112484500Y-80147467D01*
X112498435Y-80235444D01*
X112518124Y-80359756D01*
X112518124Y-80359759D01*
X112584540Y-80564167D01*
X112584541Y-80564170D01*
X112661163Y-80714547D01*
X112682120Y-80755678D01*
X112808455Y-80929563D01*
X112960437Y-81081545D01*
X112960440Y-81081547D01*
X113137226Y-81209990D01*
X113179892Y-81265320D01*
X113185871Y-81334933D01*
X113153265Y-81396728D01*
X113137227Y-81410626D01*
X112960760Y-81538838D01*
X112960759Y-81538838D01*
X112808838Y-81690759D01*
X112682547Y-81864583D01*
X112585003Y-82056024D01*
X112518610Y-82260364D01*
X112507581Y-82330000D01*
X113555440Y-82330000D01*
X113524755Y-82383147D01*
X113490000Y-82512857D01*
X113490000Y-82647143D01*
X113524755Y-82776853D01*
X113555440Y-82830000D01*
X112507581Y-82830000D01*
X112518610Y-82899635D01*
X112585003Y-83103975D01*
X112682547Y-83295416D01*
X112808838Y-83469240D01*
X112960759Y-83621161D01*
X113134583Y-83747452D01*
X113326024Y-83844996D01*
X113530358Y-83911388D01*
X113742573Y-83945000D01*
X113750000Y-83945000D01*
X113750000Y-83024560D01*
X113803147Y-83055245D01*
X113932857Y-83090000D01*
X114067143Y-83090000D01*
X114196853Y-83055245D01*
X114250000Y-83024560D01*
X114250000Y-83945000D01*
X114257427Y-83945000D01*
X114469639Y-83911388D01*
X114469642Y-83911388D01*
X114673975Y-83844996D01*
X114865416Y-83747452D01*
X115039240Y-83621161D01*
X115191161Y-83469240D01*
X115317452Y-83295416D01*
X115414996Y-83103975D01*
X115481389Y-82899635D01*
X115492419Y-82830000D01*
X114444560Y-82830000D01*
X114475245Y-82776853D01*
X114510000Y-82647143D01*
X114510000Y-82512857D01*
X114475245Y-82383147D01*
X114444560Y-82330000D01*
X115492419Y-82330000D01*
X115481389Y-82260364D01*
X115414996Y-82056024D01*
X115317452Y-81864583D01*
X115191161Y-81690759D01*
X115039240Y-81538838D01*
X114862772Y-81410626D01*
X114820107Y-81355296D01*
X114814128Y-81285682D01*
X114846734Y-81223888D01*
X114862773Y-81209990D01*
X114865675Y-81207881D01*
X114865678Y-81207880D01*
X115039563Y-81081545D01*
X115191545Y-80929563D01*
X115317880Y-80755678D01*
X115415458Y-80564170D01*
X115461383Y-80422827D01*
X115481875Y-80359759D01*
X115481875Y-80359758D01*
X115481876Y-80359755D01*
X115515500Y-80147467D01*
X115515500Y-79932533D01*
X115481876Y-79720245D01*
X115481875Y-79720241D01*
X115481875Y-79720240D01*
X115415459Y-79515832D01*
X115415458Y-79515829D01*
X115348488Y-79384394D01*
X115317880Y-79324322D01*
X115191545Y-79150437D01*
X115097018Y-79055910D01*
X115063533Y-78994587D01*
X115068517Y-78924895D01*
X115110389Y-78868962D01*
X115141362Y-78852049D01*
X115257331Y-78808796D01*
X115372546Y-78722546D01*
X115458796Y-78607331D01*
X115509091Y-78472483D01*
X115515500Y-78412873D01*
X115515499Y-76587128D01*
X115509091Y-76527517D01*
X115478531Y-76445582D01*
X115458797Y-76392671D01*
X115458793Y-76392664D01*
X115372547Y-76277455D01*
X115372544Y-76277452D01*
X115257335Y-76191206D01*
X115257328Y-76191202D01*
X115122482Y-76140908D01*
X115122483Y-76140908D01*
X115062883Y-76134501D01*
X115062881Y-76134500D01*
X115062873Y-76134500D01*
X115062864Y-76134500D01*
X112937129Y-76134500D01*
X112937123Y-76134501D01*
X112877516Y-76140908D01*
X112742671Y-76191202D01*
X112742664Y-76191206D01*
X112627455Y-76277452D01*
X112627452Y-76277455D01*
X112541206Y-76392664D01*
X112541202Y-76392671D01*
X112490908Y-76527517D01*
X112484501Y-76587116D01*
X112484501Y-76587123D01*
X112484500Y-76587135D01*
X90540410Y-76587135D01*
X90517990Y-76445582D01*
X90454755Y-76250968D01*
X90361859Y-76068650D01*
X90329474Y-76024077D01*
X90329474Y-76024076D01*
X89650000Y-76703551D01*
X89650000Y-76697339D01*
X89622741Y-76595606D01*
X89570080Y-76504394D01*
X89495606Y-76429920D01*
X89404394Y-76377259D01*
X89302661Y-76350000D01*
X89296446Y-76350000D01*
X89975922Y-75670524D01*
X89967381Y-75664319D01*
X89924715Y-75608989D01*
X89918736Y-75539376D01*
X89951341Y-75477580D01*
X90012180Y-75443223D01*
X90040266Y-75440000D01*
X100972415Y-75440000D01*
X100974049Y-75440011D01*
X123877136Y-75741792D01*
X123943908Y-75762358D01*
X123988963Y-75815760D01*
X123999500Y-75865781D01*
X123999500Y-123375500D01*
X123979815Y-123442539D01*
X123927011Y-123488294D01*
X123875500Y-123499500D01*
X105553341Y-123499500D01*
X105486302Y-123479815D01*
X105440547Y-123427011D01*
X105430603Y-123357853D01*
X105447802Y-123310403D01*
X105534814Y-123169335D01*
X105589999Y-123002798D01*
X105600500Y-122900010D01*
X105600500Y-121099990D01*
X105589999Y-120997202D01*
X105534814Y-120830665D01*
X105442712Y-120681344D01*
X105318656Y-120557288D01*
X105183382Y-120473850D01*
X105169337Y-120465187D01*
X105169332Y-120465185D01*
X105167863Y-120464698D01*
X105002798Y-120410001D01*
X105002796Y-120410000D01*
X104900017Y-120399500D01*
X104900010Y-120399500D01*
X103099990Y-120399500D01*
X103099982Y-120399500D01*
X102997203Y-120410000D01*
X102997202Y-120410001D01*
X102914669Y-120437349D01*
X102830667Y-120465185D01*
X102830662Y-120465187D01*
X102681342Y-120557289D01*
X102557289Y-120681342D01*
X102465187Y-120830662D01*
X102465186Y-120830665D01*
X102410001Y-120997202D01*
X102410001Y-120997203D01*
X102410000Y-120997203D01*
X102399500Y-121099982D01*
X102399500Y-122900017D01*
X102410000Y-123002796D01*
X102465185Y-123169332D01*
X102465187Y-123169337D01*
X102552198Y-123310403D01*
X102570638Y-123377796D01*
X102549715Y-123444459D01*
X102496073Y-123489229D01*
X102446659Y-123499500D01*
X82624500Y-123499500D01*
X82557461Y-123479815D01*
X82511706Y-123427011D01*
X82500500Y-123375500D01*
X82500500Y-121155513D01*
X85489500Y-121155513D01*
X85489500Y-121344486D01*
X85519059Y-121531118D01*
X85577454Y-121710836D01*
X85663240Y-121879199D01*
X85774310Y-122032073D01*
X85907927Y-122165690D01*
X86060801Y-122276760D01*
X86140347Y-122317290D01*
X86229163Y-122362545D01*
X86229165Y-122362545D01*
X86229168Y-122362547D01*
X86325497Y-122393846D01*
X86408881Y-122420940D01*
X86595514Y-122450500D01*
X86595519Y-122450500D01*
X86784486Y-122450500D01*
X86971118Y-122420940D01*
X87150832Y-122362547D01*
X87319199Y-122276760D01*
X87472073Y-122165690D01*
X87605690Y-122032073D01*
X87716760Y-121879199D01*
X87802547Y-121710832D01*
X87860940Y-121531118D01*
X87890500Y-121344486D01*
X87890500Y-121155513D01*
X93109500Y-121155513D01*
X93109500Y-121344486D01*
X93139059Y-121531118D01*
X93197454Y-121710836D01*
X93283240Y-121879199D01*
X93394310Y-122032073D01*
X93527927Y-122165690D01*
X93680801Y-122276760D01*
X93760347Y-122317290D01*
X93849163Y-122362545D01*
X93849165Y-122362545D01*
X93849168Y-122362547D01*
X93945497Y-122393846D01*
X94028881Y-122420940D01*
X94215514Y-122450500D01*
X94215519Y-122450500D01*
X94404486Y-122450500D01*
X94591118Y-122420940D01*
X94770832Y-122362547D01*
X94939199Y-122276760D01*
X95092073Y-122165690D01*
X95225690Y-122032073D01*
X95336760Y-121879199D01*
X95422547Y-121710832D01*
X95480940Y-121531118D01*
X95510500Y-121344486D01*
X95510500Y-121155513D01*
X95480940Y-120968881D01*
X95437230Y-120834358D01*
X95422547Y-120789168D01*
X95422545Y-120789165D01*
X95422545Y-120789163D01*
X95336759Y-120620800D01*
X95225690Y-120467927D01*
X95092073Y-120334310D01*
X94939199Y-120223240D01*
X94899458Y-120202991D01*
X94770836Y-120137454D01*
X94591118Y-120079059D01*
X94404486Y-120049500D01*
X94404481Y-120049500D01*
X94215519Y-120049500D01*
X94215514Y-120049500D01*
X94028881Y-120079059D01*
X93849163Y-120137454D01*
X93680800Y-120223240D01*
X93593579Y-120286610D01*
X93527927Y-120334310D01*
X93527925Y-120334312D01*
X93527924Y-120334312D01*
X93394312Y-120467924D01*
X93394312Y-120467925D01*
X93394310Y-120467927D01*
X93390007Y-120473850D01*
X93283240Y-120620800D01*
X93197454Y-120789163D01*
X93139059Y-120968881D01*
X93109500Y-121155513D01*
X87890500Y-121155513D01*
X87860940Y-120968881D01*
X87817230Y-120834358D01*
X87802547Y-120789168D01*
X87802545Y-120789165D01*
X87802545Y-120789163D01*
X87716759Y-120620800D01*
X87605690Y-120467927D01*
X87472073Y-120334310D01*
X87443356Y-120313446D01*
X87434640Y-120307113D01*
X87419468Y-120287438D01*
X87401204Y-120270603D01*
X87398507Y-120260254D01*
X87391975Y-120251783D01*
X87389849Y-120227030D01*
X87383585Y-120202991D01*
X87386912Y-120192825D01*
X87385997Y-120182169D01*
X87397590Y-120160198D01*
X87405318Y-120136587D01*
X87413795Y-120127882D01*
X88345669Y-120127882D01*
X88345670Y-120127883D01*
X88371059Y-120146329D01*
X88539362Y-120232085D01*
X88718997Y-120290451D01*
X88905553Y-120320000D01*
X89094447Y-120320000D01*
X89281002Y-120290451D01*
X89460637Y-120232085D01*
X89628937Y-120146331D01*
X89654328Y-120127883D01*
X89654328Y-120127882D01*
X89000001Y-119473554D01*
X89000000Y-119473554D01*
X88345669Y-120127882D01*
X87413795Y-120127882D01*
X87415644Y-120125983D01*
X87418604Y-120120375D01*
X87429238Y-120110636D01*
X87431881Y-120108483D01*
X87532073Y-120035690D01*
X87665690Y-119902073D01*
X87774992Y-119751631D01*
X87830321Y-119708968D01*
X87899935Y-119702989D01*
X87961729Y-119735595D01*
X87975627Y-119751634D01*
X87992115Y-119774328D01*
X87992116Y-119774328D01*
X88646446Y-119120000D01*
X88646446Y-119119999D01*
X88600369Y-119073922D01*
X88650000Y-119073922D01*
X88650000Y-119166078D01*
X88673852Y-119255095D01*
X88719930Y-119334905D01*
X88785095Y-119400070D01*
X88864905Y-119446148D01*
X88953922Y-119470000D01*
X89046078Y-119470000D01*
X89135095Y-119446148D01*
X89214905Y-119400070D01*
X89280070Y-119334905D01*
X89326148Y-119255095D01*
X89350000Y-119166078D01*
X89350000Y-119119999D01*
X89353554Y-119119999D01*
X89353554Y-119120000D01*
X90007882Y-119774328D01*
X90007883Y-119774328D01*
X90026331Y-119748937D01*
X90112085Y-119580637D01*
X90170451Y-119401002D01*
X90200000Y-119214447D01*
X90200000Y-119025552D01*
X90170451Y-118838997D01*
X90112085Y-118659362D01*
X90026329Y-118491059D01*
X90007883Y-118465670D01*
X90007882Y-118465669D01*
X89353554Y-119119999D01*
X89350000Y-119119999D01*
X89350000Y-119073922D01*
X89326148Y-118984905D01*
X89280070Y-118905095D01*
X89214905Y-118839930D01*
X89135095Y-118793852D01*
X89046078Y-118770000D01*
X88953922Y-118770000D01*
X88864905Y-118793852D01*
X88785095Y-118839930D01*
X88719930Y-118905095D01*
X88673852Y-118984905D01*
X88650000Y-119073922D01*
X88600369Y-119073922D01*
X87992116Y-118465669D01*
X87992115Y-118465670D01*
X87975629Y-118488363D01*
X87920300Y-118531030D01*
X87850686Y-118537011D01*
X87788891Y-118504406D01*
X87774991Y-118488366D01*
X87729885Y-118426283D01*
X87665690Y-118337927D01*
X87532073Y-118204310D01*
X87405179Y-118112116D01*
X88345669Y-118112116D01*
X89000000Y-118766446D01*
X89000001Y-118766446D01*
X89654328Y-118112116D01*
X89628933Y-118093666D01*
X89460637Y-118007914D01*
X89281002Y-117949548D01*
X89094447Y-117920000D01*
X88905553Y-117920000D01*
X88718997Y-117949548D01*
X88539362Y-118007914D01*
X88371060Y-118093669D01*
X88345670Y-118112116D01*
X88345669Y-118112116D01*
X87405179Y-118112116D01*
X87379199Y-118093240D01*
X87210836Y-118007454D01*
X87031118Y-117949059D01*
X86844486Y-117919500D01*
X86844481Y-117919500D01*
X86655519Y-117919500D01*
X86655514Y-117919500D01*
X86468881Y-117949059D01*
X86289163Y-118007454D01*
X86120800Y-118093240D01*
X86063893Y-118134586D01*
X85967927Y-118204310D01*
X85967925Y-118204312D01*
X85967924Y-118204312D01*
X85834312Y-118337924D01*
X85834312Y-118337925D01*
X85834310Y-118337927D01*
X85786610Y-118403579D01*
X85723240Y-118490800D01*
X85637454Y-118659163D01*
X85579059Y-118838881D01*
X85549500Y-119025513D01*
X85549500Y-119214486D01*
X85579059Y-119401118D01*
X85637454Y-119580836D01*
X85697701Y-119699076D01*
X85723240Y-119749199D01*
X85834310Y-119902073D01*
X85967927Y-120035690D01*
X85986935Y-120049500D01*
X86005358Y-120062885D01*
X86048023Y-120118216D01*
X86054002Y-120187829D01*
X86021396Y-120249624D01*
X86005359Y-120263520D01*
X85907927Y-120334309D01*
X85774312Y-120467924D01*
X85774312Y-120467925D01*
X85774310Y-120467927D01*
X85770007Y-120473850D01*
X85663240Y-120620800D01*
X85577454Y-120789163D01*
X85519059Y-120968881D01*
X85489500Y-121155513D01*
X82500500Y-121155513D01*
X82500500Y-111405513D01*
X85549500Y-111405513D01*
X85549500Y-111594486D01*
X85579059Y-111781118D01*
X85637454Y-111960836D01*
X85723240Y-112129199D01*
X85834310Y-112282073D01*
X85967927Y-112415690D01*
X86120801Y-112526760D01*
X86200347Y-112567290D01*
X86289163Y-112612545D01*
X86289165Y-112612545D01*
X86289168Y-112612547D01*
X86385497Y-112643846D01*
X86468881Y-112670940D01*
X86655514Y-112700500D01*
X86655519Y-112700500D01*
X86844486Y-112700500D01*
X87031118Y-112670940D01*
X87210832Y-112612547D01*
X87379199Y-112526760D01*
X87532073Y-112415690D01*
X87665690Y-112282073D01*
X87774682Y-112132058D01*
X87830012Y-112089394D01*
X87899626Y-112083415D01*
X87961421Y-112116021D01*
X87975317Y-112132058D01*
X88084310Y-112282073D01*
X88217927Y-112415690D01*
X88370801Y-112526760D01*
X88450347Y-112567290D01*
X88539163Y-112612545D01*
X88539165Y-112612545D01*
X88539168Y-112612547D01*
X88718882Y-112670940D01*
X88721177Y-112671303D01*
X88723212Y-112671626D01*
X88786348Y-112701554D01*
X88791499Y-112706419D01*
X90112213Y-114027135D01*
X90112214Y-114027136D01*
X90112217Y-114027138D01*
X90112219Y-114027140D01*
X90276086Y-114136631D01*
X90289762Y-114142296D01*
X90329991Y-114169176D01*
X90402786Y-114241971D01*
X90568385Y-114362284D01*
X90568387Y-114362285D01*
X90568390Y-114362287D01*
X90622378Y-114389795D01*
X90673174Y-114437769D01*
X90689969Y-114505590D01*
X90667432Y-114571725D01*
X90622378Y-114610765D01*
X90568644Y-114638143D01*
X90524077Y-114670523D01*
X90524077Y-114670524D01*
X91203554Y-115350000D01*
X91197339Y-115350000D01*
X91095606Y-115377259D01*
X91004394Y-115429920D01*
X90929920Y-115504394D01*
X90877259Y-115595606D01*
X90850000Y-115697339D01*
X90850000Y-115703553D01*
X90170524Y-115024077D01*
X90170523Y-115024077D01*
X90138143Y-115068644D01*
X90045244Y-115250968D01*
X89982009Y-115445582D01*
X89950000Y-115647682D01*
X89950000Y-115852317D01*
X89982009Y-116054417D01*
X90045244Y-116249031D01*
X90138141Y-116431350D01*
X90138147Y-116431359D01*
X90170523Y-116475921D01*
X90170524Y-116475922D01*
X90850000Y-115796446D01*
X90850000Y-115802661D01*
X90877259Y-115904394D01*
X90929920Y-115995606D01*
X91004394Y-116070080D01*
X91095606Y-116122741D01*
X91197339Y-116150000D01*
X91203553Y-116150000D01*
X90524076Y-116829474D01*
X90568650Y-116861859D01*
X90750968Y-116954755D01*
X90945582Y-117017990D01*
X91147683Y-117050000D01*
X91352317Y-117050000D01*
X91554417Y-117017990D01*
X91749031Y-116954755D01*
X91931349Y-116861859D01*
X91975921Y-116829474D01*
X91296447Y-116150000D01*
X91302661Y-116150000D01*
X91404394Y-116122741D01*
X91495606Y-116070080D01*
X91570080Y-115995606D01*
X91622741Y-115904394D01*
X91650000Y-115802661D01*
X91650000Y-115796447D01*
X92329474Y-116475921D01*
X92361859Y-116431349D01*
X92454755Y-116249031D01*
X92517990Y-116054417D01*
X92550000Y-115852317D01*
X92550000Y-115647686D01*
X92547998Y-115635048D01*
X92547998Y-115635045D01*
X92545696Y-115620513D01*
X99324500Y-115620513D01*
X99324500Y-115809486D01*
X99354059Y-115996118D01*
X99412454Y-116175836D01*
X99498240Y-116344199D01*
X99609310Y-116497073D01*
X99742927Y-116630690D01*
X99895801Y-116741760D01*
X100064168Y-116827547D01*
X100079625Y-116832569D01*
X100137301Y-116872007D01*
X100164499Y-116936365D01*
X100152584Y-117005212D01*
X100105340Y-117056687D01*
X100041307Y-117074500D01*
X100024234Y-117074500D01*
X99921564Y-117084990D01*
X99755208Y-117140114D01*
X99755197Y-117140119D01*
X99606047Y-117232117D01*
X99606043Y-117232120D01*
X99482120Y-117356043D01*
X99482117Y-117356047D01*
X99390119Y-117505197D01*
X99390114Y-117505208D01*
X99334990Y-117671564D01*
X99324500Y-117774234D01*
X99324500Y-118775765D01*
X99334990Y-118878435D01*
X99390114Y-119044791D01*
X99390119Y-119044802D01*
X99482117Y-119193952D01*
X99482120Y-119193956D01*
X99606043Y-119317879D01*
X99606047Y-119317882D01*
X99755197Y-119409880D01*
X99755200Y-119409881D01*
X99755206Y-119409885D01*
X99921565Y-119465010D01*
X100024242Y-119475500D01*
X100024247Y-119475500D01*
X101025753Y-119475500D01*
X101025758Y-119475500D01*
X101128435Y-119465010D01*
X101294794Y-119409885D01*
X101443956Y-119317880D01*
X101567880Y-119193956D01*
X101659885Y-119044794D01*
X101715010Y-118878435D01*
X101725500Y-118775758D01*
X101725500Y-118716583D01*
X107769500Y-118716583D01*
X107769500Y-119283416D01*
X107769501Y-119283433D01*
X107799108Y-119508326D01*
X107857820Y-119727442D01*
X107944630Y-119937019D01*
X107944635Y-119937030D01*
X108058050Y-120133469D01*
X108058061Y-120133485D01*
X108196148Y-120313444D01*
X108196154Y-120313451D01*
X108356548Y-120473845D01*
X108356554Y-120473850D01*
X108536523Y-120611945D01*
X108536530Y-120611949D01*
X108732969Y-120725364D01*
X108732974Y-120725366D01*
X108732977Y-120725368D01*
X108942556Y-120812179D01*
X109161672Y-120870891D01*
X109386577Y-120900500D01*
X109386584Y-120900500D01*
X109613416Y-120900500D01*
X109613423Y-120900500D01*
X109838328Y-120870891D01*
X110057444Y-120812179D01*
X110267023Y-120725368D01*
X110463477Y-120611945D01*
X110643446Y-120473850D01*
X110803850Y-120313446D01*
X110941945Y-120133477D01*
X111055368Y-119937023D01*
X111142179Y-119727444D01*
X111200891Y-119508328D01*
X111230500Y-119283423D01*
X111230500Y-118716583D01*
X111729500Y-118716583D01*
X111729500Y-119283416D01*
X111729501Y-119283433D01*
X111759108Y-119508326D01*
X111817820Y-119727442D01*
X111904630Y-119937019D01*
X111904635Y-119937030D01*
X112018050Y-120133469D01*
X112018061Y-120133485D01*
X112156148Y-120313444D01*
X112156154Y-120313451D01*
X112316548Y-120473845D01*
X112316554Y-120473850D01*
X112496523Y-120611945D01*
X112496530Y-120611949D01*
X112692969Y-120725364D01*
X112692974Y-120725366D01*
X112692977Y-120725368D01*
X112902556Y-120812179D01*
X113121672Y-120870891D01*
X113346577Y-120900500D01*
X113346584Y-120900500D01*
X113573416Y-120900500D01*
X113573423Y-120900500D01*
X113798328Y-120870891D01*
X114017444Y-120812179D01*
X114227023Y-120725368D01*
X114423477Y-120611945D01*
X114603446Y-120473850D01*
X114763850Y-120313446D01*
X114901945Y-120133477D01*
X115015368Y-119937023D01*
X115102179Y-119727444D01*
X115160891Y-119508328D01*
X115190500Y-119283423D01*
X115190500Y-118716577D01*
X115160891Y-118491672D01*
X115102179Y-118272556D01*
X115015368Y-118062977D01*
X115015366Y-118062974D01*
X115015364Y-118062969D01*
X114901944Y-117866521D01*
X114850911Y-117800013D01*
X115690000Y-117800013D01*
X115690000Y-118750000D01*
X116552096Y-118750000D01*
X116520000Y-118911358D01*
X116520000Y-119088642D01*
X116552096Y-119250000D01*
X115690001Y-119250000D01*
X115690001Y-120199986D01*
X115700494Y-120302697D01*
X115755641Y-120469119D01*
X115755643Y-120469124D01*
X115847684Y-120618345D01*
X115971654Y-120742315D01*
X116120875Y-120834356D01*
X116120880Y-120834358D01*
X116287302Y-120889505D01*
X116287309Y-120889506D01*
X116390019Y-120899999D01*
X117169999Y-120899999D01*
X117170000Y-120899998D01*
X117170000Y-119867904D01*
X117331358Y-119900000D01*
X117508642Y-119900000D01*
X117670000Y-119867904D01*
X117670000Y-120899999D01*
X118449972Y-120899999D01*
X118449986Y-120899998D01*
X118552697Y-120889505D01*
X118719119Y-120834358D01*
X118719124Y-120834356D01*
X118868345Y-120742315D01*
X118992315Y-120618345D01*
X119084356Y-120469124D01*
X119084358Y-120469119D01*
X119139505Y-120302697D01*
X119139506Y-120302690D01*
X119149999Y-120199986D01*
X119150000Y-120199973D01*
X119150000Y-119250000D01*
X118287904Y-119250000D01*
X118320000Y-119088642D01*
X118320000Y-118911358D01*
X118287904Y-118750000D01*
X119149999Y-118750000D01*
X119149999Y-117800028D01*
X119149998Y-117800013D01*
X119139505Y-117697302D01*
X119084358Y-117530880D01*
X119084356Y-117530875D01*
X118992315Y-117381654D01*
X118868345Y-117257684D01*
X118719124Y-117165643D01*
X118719119Y-117165641D01*
X118552697Y-117110494D01*
X118552690Y-117110493D01*
X118449986Y-117100000D01*
X117670000Y-117100000D01*
X117670000Y-118132095D01*
X117508642Y-118100000D01*
X117331358Y-118100000D01*
X117170000Y-118132095D01*
X117170000Y-117100000D01*
X116390028Y-117100000D01*
X116390012Y-117100001D01*
X116287302Y-117110494D01*
X116120880Y-117165641D01*
X116120875Y-117165643D01*
X115971654Y-117257684D01*
X115847684Y-117381654D01*
X115755643Y-117530875D01*
X115755641Y-117530880D01*
X115700494Y-117697302D01*
X115700493Y-117697309D01*
X115690000Y-117800013D01*
X114850911Y-117800013D01*
X114763851Y-117686555D01*
X114763845Y-117686548D01*
X114603451Y-117526154D01*
X114603444Y-117526148D01*
X114423485Y-117388061D01*
X114423483Y-117388059D01*
X114423477Y-117388055D01*
X114423472Y-117388052D01*
X114423469Y-117388050D01*
X114227030Y-117274635D01*
X114227019Y-117274630D01*
X114017442Y-117187820D01*
X113798326Y-117129108D01*
X113573433Y-117099501D01*
X113573428Y-117099500D01*
X113573423Y-117099500D01*
X113346577Y-117099500D01*
X113346571Y-117099500D01*
X113346566Y-117099501D01*
X113121673Y-117129108D01*
X112902557Y-117187820D01*
X112692980Y-117274630D01*
X112692969Y-117274635D01*
X112496530Y-117388050D01*
X112496514Y-117388061D01*
X112316555Y-117526148D01*
X112316548Y-117526154D01*
X112156154Y-117686548D01*
X112156148Y-117686555D01*
X112018061Y-117866514D01*
X112018050Y-117866530D01*
X111904635Y-118062969D01*
X111904630Y-118062980D01*
X111817820Y-118272557D01*
X111759108Y-118491673D01*
X111729501Y-118716566D01*
X111729500Y-118716583D01*
X111230500Y-118716583D01*
X111230500Y-118716577D01*
X111200891Y-118491672D01*
X111142179Y-118272556D01*
X111055368Y-118062977D01*
X111055366Y-118062974D01*
X111055364Y-118062969D01*
X110941949Y-117866530D01*
X110941945Y-117866523D01*
X110803850Y-117686554D01*
X110803845Y-117686548D01*
X110643451Y-117526154D01*
X110643444Y-117526148D01*
X110463485Y-117388061D01*
X110463483Y-117388059D01*
X110463477Y-117388055D01*
X110463472Y-117388052D01*
X110463469Y-117388050D01*
X110267030Y-117274635D01*
X110267019Y-117274630D01*
X110057442Y-117187820D01*
X109838326Y-117129108D01*
X109613433Y-117099501D01*
X109613428Y-117099500D01*
X109613423Y-117099500D01*
X109386577Y-117099500D01*
X109386571Y-117099500D01*
X109386566Y-117099501D01*
X109161673Y-117129108D01*
X108942557Y-117187820D01*
X108732980Y-117274630D01*
X108732969Y-117274635D01*
X108536530Y-117388050D01*
X108536514Y-117388061D01*
X108356555Y-117526148D01*
X108356548Y-117526154D01*
X108196154Y-117686548D01*
X108196148Y-117686555D01*
X108058061Y-117866514D01*
X108058050Y-117866530D01*
X107944635Y-118062969D01*
X107944630Y-118062980D01*
X107857820Y-118272557D01*
X107799108Y-118491673D01*
X107769501Y-118716566D01*
X107769500Y-118716583D01*
X101725500Y-118716583D01*
X101725500Y-117774242D01*
X101715010Y-117671565D01*
X101659885Y-117505206D01*
X101659881Y-117505200D01*
X101659880Y-117505197D01*
X101567882Y-117356047D01*
X101567879Y-117356043D01*
X101443956Y-117232120D01*
X101443952Y-117232117D01*
X101294802Y-117140119D01*
X101294796Y-117140116D01*
X101294794Y-117140115D01*
X101128435Y-117084990D01*
X101025765Y-117074500D01*
X101025758Y-117074500D01*
X101008693Y-117074500D01*
X100941654Y-117054815D01*
X100895899Y-117002011D01*
X100885955Y-116932853D01*
X100914980Y-116869297D01*
X100970374Y-116832569D01*
X100985832Y-116827547D01*
X101154199Y-116741760D01*
X101307073Y-116630690D01*
X101440690Y-116497073D01*
X101551760Y-116344199D01*
X101637547Y-116175832D01*
X101695940Y-115996118D01*
X101696021Y-115995606D01*
X101725500Y-115809486D01*
X101725500Y-115646530D01*
X117869500Y-115646530D01*
X117869500Y-115853469D01*
X117909868Y-116056412D01*
X117909870Y-116056420D01*
X117989059Y-116247598D01*
X118046541Y-116333626D01*
X118104024Y-116419657D01*
X118250342Y-116565975D01*
X118250345Y-116565977D01*
X118422402Y-116680941D01*
X118613580Y-116760130D01*
X118816530Y-116800499D01*
X118816534Y-116800500D01*
X118816535Y-116800500D01*
X119023466Y-116800500D01*
X119023467Y-116800499D01*
X119226420Y-116760130D01*
X119417598Y-116680941D01*
X119589655Y-116565977D01*
X119735977Y-116419655D01*
X119850941Y-116247598D01*
X119930130Y-116056420D01*
X119970500Y-115853465D01*
X119970500Y-115646535D01*
X119930130Y-115443580D01*
X119850941Y-115252402D01*
X119735977Y-115080345D01*
X119735975Y-115080342D01*
X119589657Y-114934024D01*
X119503626Y-114876541D01*
X119417598Y-114819059D01*
X119226420Y-114739870D01*
X119226412Y-114739868D01*
X119023469Y-114699500D01*
X119023465Y-114699500D01*
X118816535Y-114699500D01*
X118816530Y-114699500D01*
X118613587Y-114739868D01*
X118613579Y-114739870D01*
X118422403Y-114819058D01*
X118250342Y-114934024D01*
X118104024Y-115080342D01*
X117989058Y-115252403D01*
X117909870Y-115443579D01*
X117909868Y-115443587D01*
X117869500Y-115646530D01*
X101725500Y-115646530D01*
X101725500Y-115620513D01*
X101695940Y-115433881D01*
X101637545Y-115254163D01*
X101551759Y-115085800D01*
X101547796Y-115080345D01*
X101440690Y-114932927D01*
X101307073Y-114799310D01*
X101154199Y-114688240D01*
X100985836Y-114602454D01*
X100806118Y-114544059D01*
X100619486Y-114514500D01*
X100619481Y-114514500D01*
X100430519Y-114514500D01*
X100430514Y-114514500D01*
X100243881Y-114544059D01*
X100064163Y-114602454D01*
X99895800Y-114688240D01*
X99824741Y-114739868D01*
X99742927Y-114799310D01*
X99742925Y-114799312D01*
X99742924Y-114799312D01*
X99609312Y-114932924D01*
X99609312Y-114932925D01*
X99609310Y-114932927D01*
X99561610Y-114998579D01*
X99498240Y-115085800D01*
X99412454Y-115254163D01*
X99354059Y-115433881D01*
X99324500Y-115620513D01*
X92545696Y-115620513D01*
X92517990Y-115445582D01*
X92454755Y-115250968D01*
X92361859Y-115068650D01*
X92329474Y-115024077D01*
X92329474Y-115024076D01*
X91650000Y-115703551D01*
X91650000Y-115697339D01*
X91622741Y-115595606D01*
X91570080Y-115504394D01*
X91495606Y-115429920D01*
X91404394Y-115377259D01*
X91302661Y-115350000D01*
X91296446Y-115350000D01*
X91975922Y-114670524D01*
X91975921Y-114670523D01*
X91931359Y-114638147D01*
X91931350Y-114638141D01*
X91877621Y-114610765D01*
X91826825Y-114562791D01*
X91810030Y-114494970D01*
X91832567Y-114428835D01*
X91877621Y-114389795D01*
X91931610Y-114362287D01*
X91981144Y-114326298D01*
X92097213Y-114241971D01*
X92097215Y-114241968D01*
X92097219Y-114241966D01*
X92241966Y-114097219D01*
X92241968Y-114097215D01*
X92241971Y-114097213D01*
X92294732Y-114024590D01*
X92362287Y-113931610D01*
X92455220Y-113749219D01*
X92518477Y-113554534D01*
X92550500Y-113352352D01*
X92550500Y-113147648D01*
X92536744Y-113060798D01*
X92518477Y-112945465D01*
X92455218Y-112750776D01*
X92384785Y-112612545D01*
X92362287Y-112568390D01*
X92354556Y-112557749D01*
X92241971Y-112402786D01*
X92097217Y-112258032D01*
X92061858Y-112232342D01*
X92019193Y-112177011D01*
X92013214Y-112107398D01*
X92045820Y-112045603D01*
X92065456Y-112029898D01*
X92065257Y-112029624D01*
X92069200Y-112026759D01*
X92222073Y-111915690D01*
X92355690Y-111782073D01*
X92466760Y-111629199D01*
X92552547Y-111460832D01*
X92610940Y-111281118D01*
X92620797Y-111218882D01*
X92640500Y-111094486D01*
X92640500Y-110905513D01*
X92610940Y-110718881D01*
X92567215Y-110584312D01*
X92552547Y-110539168D01*
X92552545Y-110539165D01*
X92552545Y-110539163D01*
X92475245Y-110387454D01*
X92466760Y-110370801D01*
X92355690Y-110217927D01*
X92222073Y-110084310D01*
X92069199Y-109973240D01*
X92033821Y-109955214D01*
X91900836Y-109887454D01*
X91721118Y-109829059D01*
X91534486Y-109799500D01*
X91534481Y-109799500D01*
X91345519Y-109799500D01*
X91345514Y-109799500D01*
X91158881Y-109829059D01*
X90979163Y-109887454D01*
X90810800Y-109973240D01*
X90723579Y-110036610D01*
X90657927Y-110084310D01*
X90657925Y-110084312D01*
X90657924Y-110084312D01*
X90524312Y-110217924D01*
X90524312Y-110217925D01*
X90524310Y-110217927D01*
X90480003Y-110278910D01*
X90413240Y-110370800D01*
X90327454Y-110539163D01*
X90269060Y-110718880D01*
X90252756Y-110821814D01*
X90222826Y-110884949D01*
X90163514Y-110921879D01*
X90093652Y-110920881D01*
X90035419Y-110882270D01*
X90029869Y-110874564D01*
X90029624Y-110874743D01*
X90024681Y-110867940D01*
X89915690Y-110717927D01*
X89782073Y-110584310D01*
X89629199Y-110473240D01*
X89595287Y-110455961D01*
X89460836Y-110387454D01*
X89281118Y-110329059D01*
X89094486Y-110299500D01*
X89094481Y-110299500D01*
X88905519Y-110299500D01*
X88905514Y-110299500D01*
X88718881Y-110329059D01*
X88539163Y-110387454D01*
X88370800Y-110473240D01*
X88283579Y-110536610D01*
X88217927Y-110584310D01*
X88217925Y-110584312D01*
X88217924Y-110584312D01*
X88084311Y-110717925D01*
X87975318Y-110867940D01*
X87919987Y-110910605D01*
X87850374Y-110916584D01*
X87788579Y-110883978D01*
X87774682Y-110867940D01*
X87715564Y-110786573D01*
X87665690Y-110717927D01*
X87532073Y-110584310D01*
X87379199Y-110473240D01*
X87345287Y-110455961D01*
X87210836Y-110387454D01*
X87031118Y-110329059D01*
X86844486Y-110299500D01*
X86844481Y-110299500D01*
X86655519Y-110299500D01*
X86655514Y-110299500D01*
X86468881Y-110329059D01*
X86289163Y-110387454D01*
X86120800Y-110473240D01*
X86033579Y-110536610D01*
X85967927Y-110584310D01*
X85967925Y-110584312D01*
X85967924Y-110584312D01*
X85834312Y-110717924D01*
X85834312Y-110717925D01*
X85834310Y-110717927D01*
X85786610Y-110783579D01*
X85723240Y-110870800D01*
X85637454Y-111039163D01*
X85579059Y-111218881D01*
X85549500Y-111405513D01*
X82500500Y-111405513D01*
X82500500Y-75564000D01*
X82520185Y-75496961D01*
X82572989Y-75451206D01*
X82624500Y-75440000D01*
X85958885Y-75440000D01*
X86025924Y-75459685D01*
G37*
%TD.AperFunction*%
%TA.AperFunction,Conductor*%
G36*
X88526772Y-75459685D02*
G01*
X88572527Y-75512489D01*
X88582471Y-75581647D01*
X88553446Y-75645203D01*
X88532617Y-75664319D01*
X88524077Y-75670523D01*
X88524077Y-75670524D01*
X89203554Y-76350000D01*
X89197339Y-76350000D01*
X89095606Y-76377259D01*
X89004394Y-76429920D01*
X88929920Y-76504394D01*
X88877259Y-76595606D01*
X88850000Y-76697339D01*
X88850000Y-76703553D01*
X88170524Y-76024077D01*
X88170523Y-76024077D01*
X88138143Y-76068644D01*
X88110765Y-76122378D01*
X88062790Y-76173174D01*
X87994969Y-76189969D01*
X87928834Y-76167431D01*
X87889795Y-76122378D01*
X87862284Y-76068385D01*
X87741971Y-75902786D01*
X87597213Y-75758028D01*
X87468230Y-75664318D01*
X87425564Y-75608989D01*
X87419585Y-75539375D01*
X87452190Y-75477580D01*
X87513029Y-75443223D01*
X87541115Y-75440000D01*
X88459733Y-75440000D01*
X88526772Y-75459685D01*
G37*
%TD.AperFunction*%
%TD*%
M02*
