%TF.GenerationSoftware,KiCad,Pcbnew,9.0.7*%
%TF.CreationDate,2026-02-14T21:04:24+03:00*%
%TF.ProjectId,Transmitter,5472616e-736d-4697-9474-65722e6b6963,rev?*%
%TF.SameCoordinates,Original*%
%TF.FileFunction,Copper,L1,Top*%
%TF.FilePolarity,Positive*%
%FSLAX46Y46*%
G04 Gerber Fmt 4.6, Leading zero omitted, Abs format (unit mm)*
G04 Created by KiCad (PCBNEW 9.0.7) date 2026-02-14 21:04:24*
%MOMM*%
%LPD*%
G01*
G04 APERTURE LIST*
G04 Aperture macros list*
%AMRoundRect*
0 Rectangle with rounded corners*
0 $1 Rounding radius*
0 $2 $3 $4 $5 $6 $7 $8 $9 X,Y pos of 4 corners*
0 Add a 4 corners polygon primitive as box body*
4,1,4,$2,$3,$4,$5,$6,$7,$8,$9,$2,$3,0*
0 Add four circle primitives for the rounded corners*
1,1,$1+$1,$2,$3*
1,1,$1+$1,$4,$5*
1,1,$1+$1,$6,$7*
1,1,$1+$1,$8,$9*
0 Add four rect primitives between the rounded corners*
20,1,$1+$1,$2,$3,$4,$5,0*
20,1,$1+$1,$4,$5,$6,$7,0*
20,1,$1+$1,$6,$7,$8,$9,0*
20,1,$1+$1,$8,$9,$2,$3,0*%
G04 Aperture macros list end*
%TA.AperFunction,ComponentPad*%
%ADD10C,1.600000*%
%TD*%
%TA.AperFunction,ComponentPad*%
%ADD11R,2.250000X2.250000*%
%TD*%
%TA.AperFunction,ComponentPad*%
%ADD12C,2.250000*%
%TD*%
%TA.AperFunction,ComponentPad*%
%ADD13RoundRect,0.249200X0.450800X-0.450800X0.450800X0.450800X-0.450800X0.450800X-0.450800X-0.450800X0*%
%TD*%
%TA.AperFunction,ComponentPad*%
%ADD14C,1.400000*%
%TD*%
%TA.AperFunction,ComponentPad*%
%ADD15R,2.030000X1.730000*%
%TD*%
%TA.AperFunction,ComponentPad*%
%ADD16O,2.030000X1.730000*%
%TD*%
%TA.AperFunction,ComponentPad*%
%ADD17RoundRect,0.249999X-0.850001X0.850001X-0.850001X-0.850001X0.850001X-0.850001X0.850001X0.850001X0*%
%TD*%
%TA.AperFunction,ComponentPad*%
%ADD18C,2.200000*%
%TD*%
%TA.AperFunction,ComponentPad*%
%ADD19RoundRect,0.250001X0.499999X0.499999X-0.499999X0.499999X-0.499999X-0.499999X0.499999X-0.499999X0*%
%TD*%
%TA.AperFunction,ComponentPad*%
%ADD20C,1.500000*%
%TD*%
%TA.AperFunction,SMDPad,CuDef*%
%ADD21R,1.500000X0.900000*%
%TD*%
%TA.AperFunction,SMDPad,CuDef*%
%ADD22R,0.900000X1.500000*%
%TD*%
%TA.AperFunction,HeatsinkPad*%
%ADD23R,0.900000X0.900000*%
%TD*%
%TA.AperFunction,HeatsinkPad*%
%ADD24C,0.600000*%
%TD*%
%TA.AperFunction,ComponentPad*%
%ADD25RoundRect,0.250000X0.980000X1.150000X-0.980000X1.150000X-0.980000X-1.150000X0.980000X-1.150000X0*%
%TD*%
%TA.AperFunction,ComponentPad*%
%ADD26O,2.460000X2.800000*%
%TD*%
%TA.AperFunction,ComponentPad*%
%ADD27RoundRect,0.249999X0.850001X-0.850001X0.850001X0.850001X-0.850001X0.850001X-0.850001X-0.850001X0*%
%TD*%
%TA.AperFunction,SMDPad,CuDef*%
%ADD28RoundRect,0.250000X1.150000X-0.950000X1.150000X0.950000X-1.150000X0.950000X-1.150000X-0.950000X0*%
%TD*%
%TA.AperFunction,SMDPad,CuDef*%
%ADD29RoundRect,0.150000X-0.150000X0.587500X-0.150000X-0.587500X0.150000X-0.587500X0.150000X0.587500X0*%
%TD*%
%TA.AperFunction,Conductor*%
%ADD30C,1.000000*%
%TD*%
%TA.AperFunction,Conductor*%
%ADD31C,0.500000*%
%TD*%
G04 APERTURE END LIST*
D10*
%TO.P,C5,1*%
%TO.N,+3.3V*%
X86750000Y-76750000D03*
%TO.P,C5,2*%
%TO.N,GND*%
X89250000Y-76750000D03*
%TD*%
D11*
%TO.P,SW1,1,1*%
%TO.N,GND*%
X122000000Y-79250000D03*
D12*
%TO.P,SW1,2,2*%
%TO.N,Net-(U1-IO19)*%
X122000000Y-85750000D03*
%TD*%
D11*
%TO.P,SW2,1,1*%
%TO.N,GND*%
X120500000Y-89250000D03*
D12*
%TO.P,SW2,2,2*%
%TO.N,Net-(U1-IO18)*%
X114000000Y-89250000D03*
%TD*%
D13*
%TO.P,D1,1,K*%
%TO.N,Net-(D1-K)*%
X100525000Y-118275000D03*
D14*
%TO.P,D1,2,A*%
%TO.N,Net-(D1-A)*%
X100525000Y-115715000D03*
%TD*%
D15*
%TO.P,J2,1,Pin_1*%
%TO.N,Net-(J2-Pin_1)*%
X114000000Y-77500000D03*
D16*
%TO.P,J2,2,Pin_2*%
%TO.N,Net-(J2-Pin_2)*%
X114000000Y-80040000D03*
%TO.P,J2,3,Pin_3*%
%TO.N,GND*%
X114000000Y-82580000D03*
%TD*%
D10*
%TO.P,C4,1*%
%TO.N,GND*%
X111500000Y-90000000D03*
%TO.P,C4,2*%
%TO.N,Net-(U1-IO18)*%
X111500000Y-87500000D03*
%TD*%
D11*
%TO.P,BOOT,1,1*%
%TO.N,Net-(U1-EN)*%
X84750000Y-89000000D03*
D12*
%TO.P,BOOT,2,2*%
%TO.N,GND*%
X84750000Y-95500000D03*
%TD*%
D14*
%TO.P,R2,1*%
%TO.N,+5V*%
X86750000Y-119120000D03*
%TO.P,R2,2*%
%TO.N,Net-(U1-IO34)*%
X86750000Y-111500000D03*
%TD*%
D17*
%TO.P,D6,1,K*%
%TO.N,+3.3V*%
X114000000Y-100170000D03*
D18*
%TO.P,D6,2,A*%
%TO.N,Net-(D6-A)*%
X114000000Y-110330000D03*
%TD*%
D14*
%TO.P,R12,1*%
%TO.N,+3.3V*%
X115810000Y-97250000D03*
%TO.P,R12,2*%
%TO.N,Net-(JP1-B)*%
X108190000Y-97250000D03*
%TD*%
%TO.P,R10,1*%
%TO.N,+3.3V*%
X118750000Y-78190000D03*
%TO.P,R10,2*%
%TO.N,Net-(U1-IO19)*%
X118750000Y-85810000D03*
%TD*%
%TO.P,R7,1*%
%TO.N,GND*%
X106560000Y-108500000D03*
%TO.P,R7,2*%
%TO.N,Net-(Q1-G)*%
X98940000Y-108500000D03*
%TD*%
%TO.P,R6,1*%
%TO.N,Net-(U1-IO35)*%
X91440000Y-111000000D03*
%TO.P,R6,2*%
%TO.N,Net-(Q1-G)*%
X99060000Y-111000000D03*
%TD*%
D19*
%TO.P,D3,1,K*%
%TO.N,GND*%
X104915330Y-101250000D03*
D20*
%TO.P,D3,2,A*%
%TO.N,Net-(D3-A)*%
X102375330Y-101250000D03*
%TD*%
D21*
%TO.P,U1,1,GND*%
%TO.N,GND*%
X91500000Y-76740000D03*
%TO.P,U1,2,VDD*%
%TO.N,+3.3V*%
X91500000Y-78010000D03*
%TO.P,U1,3,EN*%
%TO.N,Net-(U1-EN)*%
X91500000Y-79280000D03*
%TO.P,U1,4,SENSOR_VP*%
%TO.N,unconnected-(U1-SENSOR_VP-Pad4)*%
X91500000Y-80550000D03*
%TO.P,U1,5,SENSOR_VN*%
%TO.N,unconnected-(U1-SENSOR_VN-Pad5)*%
X91500000Y-81820000D03*
%TO.P,U1,6,IO34*%
%TO.N,Net-(U1-IO34)*%
X91500000Y-83090000D03*
%TO.P,U1,7,IO35*%
%TO.N,Net-(U1-IO35)*%
X91500000Y-84360000D03*
%TO.P,U1,8,IO32*%
%TO.N,Net-(U1-IO32)*%
X91500000Y-85630000D03*
%TO.P,U1,9,IO33*%
%TO.N,Net-(U1-IO33)*%
X91500000Y-86900000D03*
%TO.P,U1,10,IO25*%
%TO.N,Net-(U1-IO25)*%
X91500000Y-88170000D03*
%TO.P,U1,11,IO26*%
%TO.N,unconnected-(U1-IO26-Pad11)*%
X91500000Y-89440000D03*
%TO.P,U1,12,IO27*%
%TO.N,unconnected-(U1-IO27-Pad12)*%
X91500000Y-90710000D03*
%TO.P,U1,13,IO14*%
%TO.N,unconnected-(U1-IO14-Pad13)*%
X91500000Y-91980000D03*
%TO.P,U1,14,IO12*%
%TO.N,unconnected-(U1-IO12-Pad14)*%
X91500000Y-93250000D03*
D22*
%TO.P,U1,15,GND*%
%TO.N,GND*%
X94535000Y-94500000D03*
%TO.P,U1,16,IO13*%
%TO.N,unconnected-(U1-IO13-Pad16)*%
X95805000Y-94500000D03*
%TO.P,U1,17,NC*%
%TO.N,unconnected-(U1-NC-Pad17)*%
X97075000Y-94500000D03*
%TO.P,U1,18,NC*%
%TO.N,unconnected-(U1-NC-Pad18)*%
X98345000Y-94500000D03*
%TO.P,U1,19,NC*%
%TO.N,unconnected-(U1-NC-Pad19)*%
X99615000Y-94500000D03*
%TO.P,U1,20,NC*%
%TO.N,unconnected-(U1-NC-Pad20)*%
X100885000Y-94500000D03*
%TO.P,U1,21,NC*%
%TO.N,unconnected-(U1-NC-Pad21)*%
X102155000Y-94500000D03*
%TO.P,U1,22,NC*%
%TO.N,unconnected-(U1-NC-Pad22)*%
X103425000Y-94500000D03*
%TO.P,U1,23,IO15*%
%TO.N,unconnected-(U1-IO15-Pad23)*%
X104695000Y-94500000D03*
%TO.P,U1,24,IO2*%
%TO.N,unconnected-(U1-IO2-Pad24)*%
X105965000Y-94500000D03*
D21*
%TO.P,U1,25,IO0*%
%TO.N,Net-(JP1-B)*%
X109000000Y-93250000D03*
%TO.P,U1,26,IO4*%
%TO.N,unconnected-(U1-IO4-Pad26)*%
X109000000Y-91980000D03*
%TO.P,U1,27,IO16*%
%TO.N,unconnected-(U1-IO16-Pad27)*%
X109000000Y-90710000D03*
%TO.P,U1,28,IO17*%
%TO.N,unconnected-(U1-IO17-Pad28)*%
X109000000Y-89440000D03*
%TO.P,U1,29,IO5*%
%TO.N,unconnected-(U1-IO5-Pad29)*%
X109000000Y-88170000D03*
%TO.P,U1,30,IO18*%
%TO.N,Net-(U1-IO18)*%
X109000000Y-86900000D03*
%TO.P,U1,31,IO19*%
%TO.N,Net-(U1-IO19)*%
X109000000Y-85630000D03*
%TO.P,U1,32,NC*%
%TO.N,unconnected-(U1-NC-Pad32)*%
X109000000Y-84360000D03*
%TO.P,U1,33,IO21*%
%TO.N,unconnected-(U1-IO21-Pad33)*%
X109000000Y-83090000D03*
%TO.P,U1,34,RXD0/IO3*%
%TO.N,Net-(J2-Pin_2)*%
X109000000Y-81820000D03*
%TO.P,U1,35,TXD0/IO1*%
%TO.N,Net-(J2-Pin_1)*%
X109000000Y-80550000D03*
%TO.P,U1,36,IO22*%
%TO.N,unconnected-(U1-IO22-Pad36)*%
X109000000Y-79280000D03*
%TO.P,U1,37,IO23*%
%TO.N,unconnected-(U1-IO23-Pad37)*%
X109000000Y-78010000D03*
%TO.P,U1,38,GND*%
%TO.N,GND*%
X109000000Y-76740000D03*
D23*
%TO.P,U1,39,GND*%
X97350000Y-83060000D03*
D24*
X97350000Y-83760000D03*
D23*
X97350000Y-84460000D03*
D24*
X97350000Y-85160000D03*
D23*
X97350000Y-85860000D03*
D24*
X98050000Y-83060000D03*
X98050000Y-84460000D03*
X98050000Y-85860000D03*
D23*
X98750000Y-83060000D03*
D24*
X98750000Y-83760000D03*
D23*
X98750000Y-84460000D03*
D24*
X98750000Y-85160000D03*
D23*
X98750000Y-85860000D03*
D24*
X99450000Y-83060000D03*
X99450000Y-84460000D03*
X99450000Y-85860000D03*
D23*
X100150000Y-83060000D03*
D24*
X100150000Y-83760000D03*
D23*
X100150000Y-84460000D03*
D24*
X100150000Y-85160000D03*
D23*
X100150000Y-85860000D03*
%TD*%
D14*
%TO.P,R11,1*%
%TO.N,+3.3V*%
X121310000Y-92500000D03*
%TO.P,R11,2*%
%TO.N,Net-(U1-IO18)*%
X113690000Y-92500000D03*
%TD*%
D25*
%TO.P,J1,1,Pin_1*%
%TO.N,GND*%
X117420000Y-119000000D03*
D26*
%TO.P,J1,2,Pin_2*%
%TO.N,Net-(D6-A)*%
X113460000Y-119000000D03*
%TO.P,J1,3,Pin_3*%
%TO.N,Net-(D5-A)*%
X109500000Y-119000000D03*
%TD*%
D14*
%TO.P,R8,1*%
%TO.N,+3.3V*%
X86250000Y-86560000D03*
%TO.P,R8,2*%
%TO.N,Net-(U1-EN)*%
X86250000Y-78940000D03*
%TD*%
D27*
%TO.P,D5,1,K*%
%TO.N,+5V*%
X104000000Y-122000000D03*
D18*
%TO.P,D5,2,A*%
%TO.N,Net-(D5-A)*%
X104000000Y-111840000D03*
%TD*%
D14*
%TO.P,R3,1*%
%TO.N,Net-(D1-K)*%
X94310000Y-121250000D03*
%TO.P,R3,2*%
%TO.N,+5V*%
X86690000Y-121250000D03*
%TD*%
%TO.P,R5,1*%
%TO.N,Net-(U1-IO33)*%
X91690000Y-100750000D03*
%TO.P,R5,2*%
%TO.N,Net-(D3-A)*%
X99310000Y-100750000D03*
%TD*%
%TO.P,R4,1*%
%TO.N,Net-(U1-IO32)*%
X91690000Y-103000000D03*
%TO.P,R4,2*%
%TO.N,Net-(D2-A)*%
X99310000Y-103000000D03*
%TD*%
D28*
%TO.P,JP1,1,A*%
%TO.N,GND*%
X110250000Y-110950000D03*
%TO.P,JP1,2,B*%
%TO.N,Net-(JP1-B)*%
X110250000Y-100050000D03*
%TD*%
D19*
%TO.P,D2,1,K*%
%TO.N,GND*%
X104790000Y-104250000D03*
D20*
%TO.P,D2,2,A*%
%TO.N,Net-(D2-A)*%
X102250000Y-104250000D03*
%TD*%
D10*
%TO.P,C2,1*%
%TO.N,GND*%
X90250000Y-105500000D03*
%TO.P,C2,2*%
%TO.N,+3.3V*%
X90250000Y-108000000D03*
%TD*%
D14*
%TO.P,R9,1*%
%TO.N,Net-(U1-IO25)*%
X91690000Y-98500000D03*
%TO.P,R9,2*%
%TO.N,Net-(D4-A)*%
X99310000Y-98500000D03*
%TD*%
%TO.P,R1,1*%
%TO.N,GND*%
X89000000Y-119120000D03*
%TO.P,R1,2*%
%TO.N,Net-(U1-IO34)*%
X89000000Y-111500000D03*
%TD*%
D19*
%TO.P,D4,1,K*%
%TO.N,GND*%
X105000000Y-98250000D03*
D20*
%TO.P,D4,2,A*%
%TO.N,Net-(D4-A)*%
X102460000Y-98250000D03*
%TD*%
D29*
%TO.P,Q1,1,G*%
%TO.N,Net-(Q1-G)*%
X95450000Y-116312500D03*
%TO.P,Q1,2,S*%
%TO.N,GND*%
X93550000Y-116312500D03*
%TO.P,Q1,3,D*%
%TO.N,Net-(D1-A)*%
X94500000Y-118187500D03*
%TD*%
D10*
%TO.P,C3,1*%
%TO.N,GND*%
X116250000Y-85500000D03*
%TO.P,C3,2*%
%TO.N,Net-(U1-IO19)*%
X113750000Y-85500000D03*
%TD*%
%TO.P,C1,1*%
%TO.N,Net-(U1-IO34)*%
X91250000Y-113250000D03*
%TO.P,C1,2*%
%TO.N,GND*%
X91250000Y-115750000D03*
%TD*%
D30*
%TO.N,Net-(Q1-G)*%
X98940000Y-108500000D02*
X98940000Y-110880000D01*
X98940000Y-110880000D02*
X99060000Y-111000000D01*
D31*
%TO.N,GND*%
X91500000Y-76740000D02*
X89260000Y-76740000D01*
X105146554Y-108500000D02*
X106560000Y-108500000D01*
X89260000Y-76740000D02*
X89250000Y-76750000D01*
D30*
%TO.N,Net-(D1-A)*%
X98052500Y-118187500D02*
X100525000Y-115715000D01*
X94500000Y-118187500D02*
X98052500Y-118187500D01*
%TO.N,Net-(Q1-G)*%
X95450000Y-114610000D02*
X99060000Y-111000000D01*
X95450000Y-116312500D02*
X95450000Y-114610000D01*
D31*
%TO.N,Net-(J2-Pin_2)*%
X112220000Y-81820000D02*
X109000000Y-81820000D01*
X114000000Y-80040000D02*
X112220000Y-81820000D01*
%TO.N,Net-(U1-IO19)*%
X113750000Y-85500000D02*
X109130000Y-85500000D01*
X121250000Y-86500000D02*
X120560000Y-85810000D01*
X118750000Y-85810000D02*
X117809000Y-86751000D01*
X115001000Y-86751000D02*
X113750000Y-85500000D01*
X122000000Y-85750000D02*
X121250000Y-86500000D01*
X109130000Y-85500000D02*
X109000000Y-85630000D01*
X117809000Y-86751000D02*
X115001000Y-86751000D01*
X120560000Y-85810000D02*
X118750000Y-85810000D01*
%TO.N,Net-(D2-A)*%
X102250000Y-104250000D02*
X100560000Y-104250000D01*
X100560000Y-104250000D02*
X99310000Y-103000000D01*
%TO.N,Net-(U1-IO18)*%
X113690000Y-89560000D02*
X114000000Y-89250000D01*
X113250000Y-89250000D02*
X111500000Y-87500000D01*
X114000000Y-89250000D02*
X113250000Y-89250000D01*
X110900000Y-86900000D02*
X109000000Y-86900000D01*
X111500000Y-87500000D02*
X110900000Y-86900000D01*
X113690000Y-92500000D02*
X113690000Y-89560000D01*
%TO.N,+3.3V*%
X88010000Y-78010000D02*
X86750000Y-76750000D01*
D30*
X114000000Y-100170000D02*
X114000000Y-99750000D01*
D31*
X91500000Y-78010000D02*
X88010000Y-78010000D01*
D30*
X114000000Y-99810000D02*
X121310000Y-92500000D01*
X114000000Y-100170000D02*
X114000000Y-99810000D01*
D31*
%TO.N,Net-(D3-A)*%
X99810000Y-101250000D02*
X99310000Y-100750000D01*
X102375330Y-101250000D02*
X99810000Y-101250000D01*
%TO.N,Net-(U1-IO35)*%
X90668000Y-84360000D02*
X91500000Y-84360000D01*
X88500000Y-108750000D02*
X88500000Y-86528000D01*
X90750000Y-111000000D02*
X88500000Y-108750000D01*
X88500000Y-86528000D02*
X90668000Y-84360000D01*
X91440000Y-111000000D02*
X90750000Y-111000000D01*
%TO.N,Net-(D4-A)*%
X99560000Y-98250000D02*
X99310000Y-98500000D01*
X102460000Y-98250000D02*
X99560000Y-98250000D01*
%TO.N,Net-(J2-Pin_1)*%
X114000000Y-77500000D02*
X110950000Y-80550000D01*
X110950000Y-80550000D02*
X109000000Y-80550000D01*
%TO.N,Net-(U1-IO34)*%
X91500000Y-83090000D02*
X90668000Y-83090000D01*
X87250000Y-109377760D02*
X87250000Y-109750000D01*
X87250000Y-101757760D02*
X87250000Y-107622240D01*
X87250000Y-107622240D02*
X87651000Y-108023240D01*
X87651000Y-108976760D02*
X87250000Y-109377760D01*
X87651000Y-108023240D02*
X87651000Y-108976760D01*
D30*
X89000000Y-111500000D02*
X86750000Y-111500000D01*
D31*
X87651000Y-86107000D02*
X87651000Y-101356760D01*
X90668000Y-83090000D02*
X87651000Y-86107000D01*
D30*
X87250000Y-109750000D02*
X89000000Y-111500000D01*
D31*
X87651000Y-101356760D02*
X87250000Y-101757760D01*
%TO.N,Net-(JP1-B)*%
X108190000Y-97990000D02*
X110250000Y-100050000D01*
X108190000Y-94060000D02*
X109000000Y-93250000D01*
X108190000Y-97250000D02*
X108190000Y-97990000D01*
X108190000Y-97250000D02*
X108190000Y-94060000D01*
%TO.N,Net-(U1-EN)*%
X91160000Y-78940000D02*
X91500000Y-79280000D01*
X86250000Y-78940000D02*
X91160000Y-78940000D01*
D30*
%TO.N,Net-(D1-K)*%
X97550000Y-121250000D02*
X100525000Y-118275000D01*
X94310000Y-121250000D02*
X97550000Y-121250000D01*
%TO.N,+5V*%
X86690000Y-121000000D02*
X86690000Y-119180000D01*
X104000000Y-122000000D02*
X103349000Y-122651000D01*
D31*
X86690000Y-119180000D02*
X86750000Y-119120000D01*
D30*
X88091000Y-122651000D02*
X86690000Y-121250000D01*
X103349000Y-122651000D02*
X88091000Y-122651000D01*
D31*
%TO.N,Net-(U1-IO32)*%
X90668000Y-85630000D02*
X89201000Y-87097000D01*
X91500000Y-85630000D02*
X90668000Y-85630000D01*
X89201000Y-100511000D02*
X91690000Y-103000000D01*
X89201000Y-87097000D02*
X89201000Y-100511000D01*
%TO.N,Net-(U1-IO33)*%
X90668000Y-86900000D02*
X89902000Y-87666000D01*
X89902000Y-98962000D02*
X91690000Y-100750000D01*
X91500000Y-86900000D02*
X90668000Y-86900000D01*
X89902000Y-87666000D02*
X89902000Y-98962000D01*
%TO.N,Net-(U1-IO25)*%
X92701000Y-97489000D02*
X91690000Y-98500000D01*
X91500000Y-88170000D02*
X92332000Y-88170000D01*
X92332000Y-88170000D02*
X92701000Y-88539000D01*
X92701000Y-88539000D02*
X92701000Y-97489000D01*
D30*
%TO.N,Net-(D5-A)*%
X109500000Y-119000000D02*
X109500000Y-117340000D01*
X109500000Y-117340000D02*
X104000000Y-111840000D01*
%TO.N,Net-(D6-A)*%
X114000000Y-110330000D02*
X114000000Y-118460000D01*
X114000000Y-118460000D02*
X113460000Y-119000000D01*
%TD*%
%TA.AperFunction,Conductor*%
%TO.N,GND*%
G36*
X110455701Y-88280673D02*
G01*
X110474817Y-88301501D01*
X110508028Y-88347212D01*
X110508032Y-88347217D01*
X110652786Y-88491971D01*
X110818385Y-88612284D01*
X110818387Y-88612285D01*
X110818390Y-88612287D01*
X110872378Y-88639795D01*
X110923174Y-88687769D01*
X110939969Y-88755590D01*
X110917432Y-88821725D01*
X110872378Y-88860765D01*
X110818644Y-88888143D01*
X110774077Y-88920523D01*
X110774077Y-88920524D01*
X111453554Y-89600000D01*
X111447339Y-89600000D01*
X111345606Y-89627259D01*
X111254394Y-89679920D01*
X111179920Y-89754394D01*
X111127259Y-89845606D01*
X111100000Y-89947339D01*
X111100000Y-89953553D01*
X110420524Y-89274077D01*
X110384228Y-89276934D01*
X110315851Y-89262570D01*
X110266094Y-89213519D01*
X110250499Y-89153316D01*
X110250499Y-88942129D01*
X110250498Y-88942123D01*
X110250497Y-88942116D01*
X110244091Y-88882517D01*
X110231340Y-88848332D01*
X110226357Y-88778642D01*
X110231340Y-88761669D01*
X110244091Y-88727483D01*
X110250500Y-88667873D01*
X110250499Y-88374383D01*
X110270183Y-88307347D01*
X110322987Y-88261592D01*
X110392146Y-88251648D01*
X110455701Y-88280673D01*
G37*
%TD.AperFunction*%
%TA.AperFunction,Conductor*%
G36*
X86025924Y-75459685D02*
G01*
X86071679Y-75512489D01*
X86081623Y-75581647D01*
X86052598Y-75645203D01*
X86031770Y-75664318D01*
X85902786Y-75758028D01*
X85758028Y-75902786D01*
X85637715Y-76068386D01*
X85544781Y-76250776D01*
X85481522Y-76445465D01*
X85449500Y-76647648D01*
X85449500Y-76852352D01*
X85452704Y-76872580D01*
X85481522Y-77054534D01*
X85544781Y-77249223D01*
X85586425Y-77330952D01*
X85630583Y-77417617D01*
X85637715Y-77431613D01*
X85758028Y-77597213D01*
X85800380Y-77639565D01*
X85833865Y-77700888D01*
X85828881Y-77770580D01*
X85787009Y-77826513D01*
X85768994Y-77837731D01*
X85620800Y-77913240D01*
X85542942Y-77969808D01*
X85467927Y-78024310D01*
X85467925Y-78024312D01*
X85467924Y-78024312D01*
X85334312Y-78157924D01*
X85334312Y-78157925D01*
X85334310Y-78157927D01*
X85286610Y-78223579D01*
X85223240Y-78310800D01*
X85137454Y-78479163D01*
X85079059Y-78658881D01*
X85049500Y-78845513D01*
X85049500Y-79034486D01*
X85079059Y-79221118D01*
X85137454Y-79400836D01*
X85196047Y-79515830D01*
X85223240Y-79569199D01*
X85334310Y-79722073D01*
X85467927Y-79855690D01*
X85620801Y-79966760D01*
X85671352Y-79992517D01*
X85789163Y-80052545D01*
X85789165Y-80052545D01*
X85789168Y-80052547D01*
X85864017Y-80076867D01*
X85968881Y-80110940D01*
X86155514Y-80140500D01*
X86155519Y-80140500D01*
X86344486Y-80140500D01*
X86531118Y-80110940D01*
X86710832Y-80052547D01*
X86879199Y-79966760D01*
X87032073Y-79855690D01*
X87160944Y-79726819D01*
X87222267Y-79693334D01*
X87248625Y-79690500D01*
X90128724Y-79690500D01*
X90157143Y-79698845D01*
X90186196Y-79704623D01*
X90190297Y-79708580D01*
X90195763Y-79710185D01*
X90215156Y-79732566D01*
X90236476Y-79753137D01*
X90238552Y-79759566D01*
X90241518Y-79762989D01*
X90249400Y-79785980D01*
X90251184Y-79793528D01*
X90255909Y-79837483D01*
X90271368Y-79878933D01*
X90273152Y-79886480D01*
X90271681Y-79913935D01*
X90273642Y-79941361D01*
X90269446Y-79955650D01*
X90269414Y-79956249D01*
X90269171Y-79956585D01*
X90268659Y-79958331D01*
X90255908Y-79992518D01*
X90249501Y-80052116D01*
X90249501Y-80052123D01*
X90249500Y-80052135D01*
X90249500Y-81047870D01*
X90249501Y-81047876D01*
X90255908Y-81107481D01*
X90268659Y-81141669D01*
X90273642Y-81211361D01*
X90268659Y-81228331D01*
X90255908Y-81262518D01*
X90253418Y-81285682D01*
X90249501Y-81322123D01*
X90249500Y-81322135D01*
X90249500Y-82317870D01*
X90249501Y-82317879D01*
X90256434Y-82382374D01*
X90244027Y-82451133D01*
X90202040Y-82498725D01*
X90189584Y-82507048D01*
X90189580Y-82507051D01*
X87118688Y-85577943D01*
X87057365Y-85611428D01*
X86987673Y-85606444D01*
X86958122Y-85590580D01*
X86879202Y-85533242D01*
X86879201Y-85533241D01*
X86879199Y-85533240D01*
X86813962Y-85500000D01*
X86710836Y-85447454D01*
X86531118Y-85389059D01*
X86344486Y-85359500D01*
X86344481Y-85359500D01*
X86155519Y-85359500D01*
X86155514Y-85359500D01*
X85968881Y-85389059D01*
X85789163Y-85447454D01*
X85620800Y-85533240D01*
X85543922Y-85589096D01*
X85467927Y-85644310D01*
X85467925Y-85644312D01*
X85467924Y-85644312D01*
X85334312Y-85777924D01*
X85334312Y-85777925D01*
X85334310Y-85777927D01*
X85303684Y-85820080D01*
X85223240Y-85930800D01*
X85137454Y-86099163D01*
X85079059Y-86278881D01*
X85049500Y-86465513D01*
X85049500Y-86654486D01*
X85079059Y-86841118D01*
X85137454Y-87020836D01*
X85225452Y-87193540D01*
X85223503Y-87194532D01*
X85239344Y-87253225D01*
X85218191Y-87319816D01*
X85164394Y-87364399D01*
X85115374Y-87374500D01*
X83577129Y-87374500D01*
X83577123Y-87374501D01*
X83517516Y-87380908D01*
X83382671Y-87431202D01*
X83382664Y-87431206D01*
X83267455Y-87517452D01*
X83267452Y-87517455D01*
X83181206Y-87632664D01*
X83181202Y-87632671D01*
X83130908Y-87767517D01*
X83124501Y-87827116D01*
X83124500Y-87827135D01*
X83124500Y-90172870D01*
X83124501Y-90172876D01*
X83130908Y-90232483D01*
X83181202Y-90367328D01*
X83181206Y-90367335D01*
X83267452Y-90482544D01*
X83267455Y-90482547D01*
X83382664Y-90568793D01*
X83382671Y-90568797D01*
X83517517Y-90619091D01*
X83517516Y-90619091D01*
X83524444Y-90619835D01*
X83577127Y-90625500D01*
X85922872Y-90625499D01*
X85982483Y-90619091D01*
X86117331Y-90568796D01*
X86232546Y-90482546D01*
X86318796Y-90367331D01*
X86369091Y-90232483D01*
X86375500Y-90172873D01*
X86375499Y-87861492D01*
X86395184Y-87794454D01*
X86447987Y-87748699D01*
X86480094Y-87739021D01*
X86531118Y-87730940D01*
X86710832Y-87672547D01*
X86720203Y-87667771D01*
X86788872Y-87654875D01*
X86853613Y-87681150D01*
X86893871Y-87738255D01*
X86900500Y-87778256D01*
X86900500Y-100994529D01*
X86880815Y-101061568D01*
X86864181Y-101082210D01*
X86667052Y-101279338D01*
X86667049Y-101279341D01*
X86631228Y-101332951D01*
X86631229Y-101332952D01*
X86584914Y-101402268D01*
X86528343Y-101538842D01*
X86528340Y-101538852D01*
X86499500Y-101683839D01*
X86499500Y-101683842D01*
X86499500Y-107696158D01*
X86499500Y-107696160D01*
X86499499Y-107696160D01*
X86528340Y-107841147D01*
X86528343Y-107841157D01*
X86584913Y-107977730D01*
X86584914Y-107977731D01*
X86584916Y-107977735D01*
X86599459Y-107999500D01*
X86667048Y-108100656D01*
X86864182Y-108297789D01*
X86878888Y-108324720D01*
X86895477Y-108350534D01*
X86896368Y-108356733D01*
X86897666Y-108359110D01*
X86900500Y-108385469D01*
X86900500Y-108614530D01*
X86880815Y-108681569D01*
X86864181Y-108702211D01*
X86667050Y-108899341D01*
X86667045Y-108899347D01*
X86635072Y-108947198D01*
X86616103Y-108968132D01*
X86616526Y-108968555D01*
X86612221Y-108972859D01*
X86612219Y-108972861D01*
X86544692Y-109040387D01*
X86472859Y-109112220D01*
X86363372Y-109276079D01*
X86363367Y-109276089D01*
X86287949Y-109458163D01*
X86287947Y-109458171D01*
X86249500Y-109651455D01*
X86249500Y-109848544D01*
X86287947Y-110041828D01*
X86287949Y-110041836D01*
X86362937Y-110222872D01*
X86370406Y-110292341D01*
X86339131Y-110354821D01*
X86293083Y-110384197D01*
X86293661Y-110385592D01*
X86289169Y-110387451D01*
X86120800Y-110473240D01*
X86033579Y-110536610D01*
X85967927Y-110584310D01*
X85967925Y-110584312D01*
X85967924Y-110584312D01*
X85834312Y-110717924D01*
X85834312Y-110717925D01*
X85834310Y-110717927D01*
X85801557Y-110763008D01*
X85723240Y-110870800D01*
X85637454Y-111039163D01*
X85579059Y-111218881D01*
X85549500Y-111405513D01*
X85549500Y-111594486D01*
X85579059Y-111781118D01*
X85637454Y-111960836D01*
X85723240Y-112129199D01*
X85834310Y-112282073D01*
X85967927Y-112415690D01*
X86120801Y-112526760D01*
X86200347Y-112567290D01*
X86289163Y-112612545D01*
X86289165Y-112612545D01*
X86289168Y-112612547D01*
X86346659Y-112631227D01*
X86468881Y-112670940D01*
X86655514Y-112700500D01*
X86655519Y-112700500D01*
X86844486Y-112700500D01*
X87031118Y-112670940D01*
X87095570Y-112649998D01*
X87210832Y-112612547D01*
X87379199Y-112526760D01*
X87382746Y-112524183D01*
X87448552Y-112500702D01*
X87455633Y-112500500D01*
X88294367Y-112500500D01*
X88361406Y-112520185D01*
X88367254Y-112524183D01*
X88370799Y-112526759D01*
X88539163Y-112612545D01*
X88539165Y-112612545D01*
X88539168Y-112612547D01*
X88596659Y-112631227D01*
X88718881Y-112670940D01*
X88905514Y-112700500D01*
X88905519Y-112700500D01*
X89094486Y-112700500D01*
X89281118Y-112670940D01*
X89345570Y-112649998D01*
X89460832Y-112612547D01*
X89629199Y-112526760D01*
X89782073Y-112415690D01*
X89915690Y-112282073D01*
X90026760Y-112129199D01*
X90112547Y-111960832D01*
X90170940Y-111781118D01*
X90178652Y-111732426D01*
X90191060Y-111706249D01*
X90200794Y-111678955D01*
X90205847Y-111675056D01*
X90208581Y-111669291D01*
X90233176Y-111653975D01*
X90256117Y-111636280D01*
X90262473Y-111635732D01*
X90267892Y-111632359D01*
X90296861Y-111632772D01*
X90325729Y-111630288D01*
X90332937Y-111633288D01*
X90337754Y-111633357D01*
X90358972Y-111642143D01*
X90364664Y-111645145D01*
X90394505Y-111665084D01*
X90431605Y-111680451D01*
X90436686Y-111683131D01*
X90454775Y-111700704D01*
X90479155Y-111719924D01*
X90524310Y-111782073D01*
X90524312Y-111782075D01*
X90654103Y-111911866D01*
X90687588Y-111973189D01*
X90682604Y-112042881D01*
X90640732Y-112098814D01*
X90622717Y-112110032D01*
X90568386Y-112137715D01*
X90402786Y-112258028D01*
X90258028Y-112402786D01*
X90137715Y-112568386D01*
X90044781Y-112750776D01*
X89981522Y-112945465D01*
X89949500Y-113147648D01*
X89949500Y-113352351D01*
X89981522Y-113554534D01*
X90044781Y-113749223D01*
X90137715Y-113931613D01*
X90258028Y-114097213D01*
X90402786Y-114241971D01*
X90568385Y-114362284D01*
X90568387Y-114362285D01*
X90568390Y-114362287D01*
X90622378Y-114389795D01*
X90673174Y-114437769D01*
X90689969Y-114505590D01*
X90667432Y-114571725D01*
X90622378Y-114610765D01*
X90568644Y-114638143D01*
X90524077Y-114670523D01*
X90524077Y-114670524D01*
X91203554Y-115350000D01*
X91197339Y-115350000D01*
X91095606Y-115377259D01*
X91004394Y-115429920D01*
X90929920Y-115504394D01*
X90877259Y-115595606D01*
X90850000Y-115697339D01*
X90850000Y-115703553D01*
X90170524Y-115024077D01*
X90170523Y-115024077D01*
X90138143Y-115068644D01*
X90045244Y-115250968D01*
X89982009Y-115445582D01*
X89950000Y-115647682D01*
X89950000Y-115852317D01*
X89982009Y-116054417D01*
X90045244Y-116249031D01*
X90138141Y-116431350D01*
X90138147Y-116431359D01*
X90170523Y-116475921D01*
X90170524Y-116475922D01*
X90850000Y-115796446D01*
X90850000Y-115802661D01*
X90877259Y-115904394D01*
X90929920Y-115995606D01*
X91004394Y-116070080D01*
X91095606Y-116122741D01*
X91197339Y-116150000D01*
X91203553Y-116150000D01*
X90524076Y-116829474D01*
X90568650Y-116861859D01*
X90750968Y-116954755D01*
X90945582Y-117017990D01*
X91147683Y-117050000D01*
X91352317Y-117050000D01*
X91554417Y-117017990D01*
X91715503Y-116965649D01*
X92750000Y-116965649D01*
X92752899Y-117002489D01*
X92752900Y-117002495D01*
X92798716Y-117160193D01*
X92798717Y-117160196D01*
X92882314Y-117301552D01*
X92882321Y-117301561D01*
X92998438Y-117417678D01*
X92998447Y-117417685D01*
X93139801Y-117501281D01*
X93297514Y-117547100D01*
X93297511Y-117547100D01*
X93299998Y-117547295D01*
X93300000Y-117547295D01*
X93300000Y-116562500D01*
X92750000Y-116562500D01*
X92750000Y-116965649D01*
X91715503Y-116965649D01*
X91749031Y-116954755D01*
X91931349Y-116861859D01*
X91975921Y-116829474D01*
X91296447Y-116150000D01*
X91302661Y-116150000D01*
X91404394Y-116122741D01*
X91495606Y-116070080D01*
X91570080Y-115995606D01*
X91622741Y-115904394D01*
X91650000Y-115802661D01*
X91650000Y-115796447D01*
X92329474Y-116475921D01*
X92356845Y-116438251D01*
X92356845Y-116438250D01*
X92361859Y-116431350D01*
X92454754Y-116249031D01*
X92510376Y-116077850D01*
X92549814Y-116020175D01*
X92614173Y-115992977D01*
X92683019Y-116004892D01*
X92715988Y-116028488D01*
X92750000Y-116062500D01*
X93300000Y-116062500D01*
X93300000Y-115077703D01*
X93297503Y-115077900D01*
X93139806Y-115123716D01*
X93139803Y-115123717D01*
X92998447Y-115207314D01*
X92998438Y-115207321D01*
X92882321Y-115323438D01*
X92882314Y-115323447D01*
X92798717Y-115464803D01*
X92798715Y-115464806D01*
X92773774Y-115550656D01*
X92736168Y-115609542D01*
X92672695Y-115638748D01*
X92603508Y-115629002D01*
X92550574Y-115583398D01*
X92532225Y-115535459D01*
X92517989Y-115445582D01*
X92454755Y-115250968D01*
X92361859Y-115068650D01*
X92329474Y-115024077D01*
X92329474Y-115024076D01*
X91650000Y-115703551D01*
X91650000Y-115697339D01*
X91622741Y-115595606D01*
X91570080Y-115504394D01*
X91495606Y-115429920D01*
X91404394Y-115377259D01*
X91302661Y-115350000D01*
X91296446Y-115350000D01*
X91975922Y-114670524D01*
X91975921Y-114670523D01*
X91931359Y-114638147D01*
X91931350Y-114638141D01*
X91877621Y-114610765D01*
X91826825Y-114562791D01*
X91810030Y-114494970D01*
X91832567Y-114428835D01*
X91877621Y-114389795D01*
X91931610Y-114362287D01*
X91992346Y-114318160D01*
X92097213Y-114241971D01*
X92097215Y-114241968D01*
X92097219Y-114241966D01*
X92241966Y-114097219D01*
X92241968Y-114097215D01*
X92241971Y-114097213D01*
X92332783Y-113972219D01*
X92362287Y-113931610D01*
X92455220Y-113749219D01*
X92518477Y-113554534D01*
X92550500Y-113352352D01*
X92550500Y-113147648D01*
X92536744Y-113060798D01*
X92518477Y-112945465D01*
X92455218Y-112750776D01*
X92384785Y-112612545D01*
X92362287Y-112568390D01*
X92354556Y-112557749D01*
X92241971Y-112402786D01*
X92097217Y-112258032D01*
X92061858Y-112232342D01*
X92019193Y-112177011D01*
X92013214Y-112107398D01*
X92045820Y-112045603D01*
X92065456Y-112029898D01*
X92065257Y-112029624D01*
X92105579Y-112000328D01*
X92222073Y-111915690D01*
X92355690Y-111782073D01*
X92466760Y-111629199D01*
X92552547Y-111460832D01*
X92610940Y-111281118D01*
X92620797Y-111218882D01*
X92640500Y-111094486D01*
X92640500Y-110905513D01*
X92610940Y-110718881D01*
X92578551Y-110619201D01*
X92552547Y-110539168D01*
X92552545Y-110539165D01*
X92552545Y-110539163D01*
X92507290Y-110450347D01*
X92466760Y-110370801D01*
X92355690Y-110217927D01*
X92222073Y-110084310D01*
X92069199Y-109973240D01*
X92033821Y-109955214D01*
X91900836Y-109887454D01*
X91721118Y-109829059D01*
X91534486Y-109799500D01*
X91534481Y-109799500D01*
X91345519Y-109799500D01*
X91345514Y-109799500D01*
X91158881Y-109829059D01*
X90979163Y-109887454D01*
X90873720Y-109941181D01*
X90805050Y-109954077D01*
X90740310Y-109927800D01*
X90729744Y-109918377D01*
X90316831Y-109505464D01*
X90283346Y-109444141D01*
X90288330Y-109374449D01*
X90330202Y-109318516D01*
X90385112Y-109295311D01*
X90554534Y-109268477D01*
X90749219Y-109205220D01*
X90931610Y-109112287D01*
X91024590Y-109044732D01*
X91097213Y-108991971D01*
X91097215Y-108991968D01*
X91097219Y-108991966D01*
X91241966Y-108847219D01*
X91241968Y-108847215D01*
X91241971Y-108847213D01*
X91327493Y-108729500D01*
X91362287Y-108681610D01*
X91455220Y-108499219D01*
X91518477Y-108304534D01*
X91550500Y-108102352D01*
X91550500Y-107897648D01*
X91518477Y-107695466D01*
X91455220Y-107500781D01*
X91455218Y-107500778D01*
X91455218Y-107500776D01*
X91397476Y-107387453D01*
X91362287Y-107318390D01*
X91348563Y-107299500D01*
X91241971Y-107152786D01*
X91097213Y-107008028D01*
X90931611Y-106887713D01*
X90877621Y-106860203D01*
X90826825Y-106812228D01*
X90810031Y-106744407D01*
X90832569Y-106678272D01*
X90877624Y-106639233D01*
X90931349Y-106611859D01*
X90975921Y-106579474D01*
X90296447Y-105900000D01*
X90302661Y-105900000D01*
X90404394Y-105872741D01*
X90495606Y-105820080D01*
X90570080Y-105745606D01*
X90622741Y-105654394D01*
X90650000Y-105552661D01*
X90650000Y-105546447D01*
X91329474Y-106225921D01*
X91361859Y-106181349D01*
X91454755Y-105999031D01*
X91517990Y-105804417D01*
X91550000Y-105602317D01*
X91550000Y-105397682D01*
X91517990Y-105195582D01*
X91454755Y-105000968D01*
X91361859Y-104818650D01*
X91329474Y-104774077D01*
X91329474Y-104774076D01*
X90650000Y-105453551D01*
X90650000Y-105447339D01*
X90622741Y-105345606D01*
X90570080Y-105254394D01*
X90495606Y-105179920D01*
X90404394Y-105127259D01*
X90302661Y-105100000D01*
X90296446Y-105100000D01*
X90975922Y-104420524D01*
X90975921Y-104420523D01*
X90931359Y-104388147D01*
X90931350Y-104388141D01*
X90749031Y-104295244D01*
X90554417Y-104232009D01*
X90352317Y-104200000D01*
X90147683Y-104200000D01*
X89945582Y-104232009D01*
X89750968Y-104295244D01*
X89568647Y-104388142D01*
X89447385Y-104476244D01*
X89381579Y-104499724D01*
X89313525Y-104483898D01*
X89264830Y-104433793D01*
X89250500Y-104375926D01*
X89250500Y-101921229D01*
X89270185Y-101854190D01*
X89322989Y-101808435D01*
X89392147Y-101798491D01*
X89455703Y-101827516D01*
X89462181Y-101833548D01*
X90453181Y-102824548D01*
X90486666Y-102885871D01*
X90489500Y-102912229D01*
X90489500Y-103094486D01*
X90519059Y-103281118D01*
X90577454Y-103460836D01*
X90642499Y-103588492D01*
X90663240Y-103629199D01*
X90774310Y-103782073D01*
X90907927Y-103915690D01*
X91060801Y-104026760D01*
X91140347Y-104067290D01*
X91229163Y-104112545D01*
X91229165Y-104112545D01*
X91229168Y-104112547D01*
X91325497Y-104143846D01*
X91408881Y-104170940D01*
X91595514Y-104200500D01*
X91595519Y-104200500D01*
X91784486Y-104200500D01*
X91971118Y-104170940D01*
X92030692Y-104151583D01*
X92150832Y-104112547D01*
X92319199Y-104026760D01*
X92472073Y-103915690D01*
X92605690Y-103782073D01*
X92716760Y-103629199D01*
X92802547Y-103460832D01*
X92860940Y-103281118D01*
X92880490Y-103157684D01*
X92890500Y-103094486D01*
X92890500Y-102905513D01*
X92860940Y-102718881D01*
X92802545Y-102539163D01*
X92716759Y-102370800D01*
X92605690Y-102217927D01*
X92472073Y-102084310D01*
X92322058Y-101975317D01*
X92279394Y-101919988D01*
X92273415Y-101850374D01*
X92306021Y-101788579D01*
X92322059Y-101774682D01*
X92342268Y-101759999D01*
X92472073Y-101665690D01*
X92605690Y-101532073D01*
X92716760Y-101379199D01*
X92802547Y-101210832D01*
X92860940Y-101031118D01*
X92866735Y-100994529D01*
X92890500Y-100844486D01*
X92890500Y-100655513D01*
X92860940Y-100468881D01*
X92804823Y-100296174D01*
X92802547Y-100289168D01*
X92802545Y-100289165D01*
X92802545Y-100289163D01*
X92716759Y-100120800D01*
X92681934Y-100072868D01*
X92605690Y-99967927D01*
X92472073Y-99834310D01*
X92322058Y-99725317D01*
X92279394Y-99669988D01*
X92273415Y-99600374D01*
X92306021Y-99538579D01*
X92322059Y-99524682D01*
X92472073Y-99415690D01*
X92605690Y-99282073D01*
X92716760Y-99129199D01*
X92802547Y-98960832D01*
X92860940Y-98781118D01*
X92869466Y-98727288D01*
X92890500Y-98594486D01*
X92890500Y-98412229D01*
X92892472Y-98405513D01*
X98109500Y-98405513D01*
X98109500Y-98594486D01*
X98139059Y-98781118D01*
X98197454Y-98960836D01*
X98283240Y-99129199D01*
X98394310Y-99282073D01*
X98527927Y-99415690D01*
X98596573Y-99465564D01*
X98677940Y-99524682D01*
X98720605Y-99580013D01*
X98726584Y-99649626D01*
X98693978Y-99711421D01*
X98677940Y-99725318D01*
X98527925Y-99834311D01*
X98394312Y-99967924D01*
X98394312Y-99967925D01*
X98394310Y-99967927D01*
X98363384Y-100010493D01*
X98283240Y-100120800D01*
X98197454Y-100289163D01*
X98139059Y-100468881D01*
X98109500Y-100655513D01*
X98109500Y-100844486D01*
X98139059Y-101031118D01*
X98197454Y-101210836D01*
X98259676Y-101332952D01*
X98283240Y-101379199D01*
X98394310Y-101532073D01*
X98527927Y-101665690D01*
X98554249Y-101684814D01*
X98677940Y-101774682D01*
X98720605Y-101830013D01*
X98726584Y-101899626D01*
X98693978Y-101961421D01*
X98677940Y-101975318D01*
X98527925Y-102084311D01*
X98394312Y-102217924D01*
X98394312Y-102217925D01*
X98394310Y-102217927D01*
X98346610Y-102283579D01*
X98283240Y-102370800D01*
X98197454Y-102539163D01*
X98139059Y-102718881D01*
X98109500Y-102905513D01*
X98109500Y-103094486D01*
X98139059Y-103281118D01*
X98197454Y-103460836D01*
X98262499Y-103588492D01*
X98283240Y-103629199D01*
X98394310Y-103782073D01*
X98527927Y-103915690D01*
X98680801Y-104026760D01*
X98760347Y-104067290D01*
X98849163Y-104112545D01*
X98849165Y-104112545D01*
X98849168Y-104112547D01*
X98945497Y-104143846D01*
X99028881Y-104170940D01*
X99215514Y-104200500D01*
X99397770Y-104200500D01*
X99464809Y-104220185D01*
X99485451Y-104236819D01*
X100081586Y-104832954D01*
X100105839Y-104849158D01*
X100155270Y-104882186D01*
X100204505Y-104915084D01*
X100204506Y-104915084D01*
X100204507Y-104915085D01*
X100204509Y-104915086D01*
X100341082Y-104971656D01*
X100341087Y-104971658D01*
X100341091Y-104971658D01*
X100341092Y-104971659D01*
X100486079Y-105000500D01*
X100486082Y-105000500D01*
X100486083Y-105000500D01*
X100633917Y-105000500D01*
X101186386Y-105000500D01*
X101253425Y-105020185D01*
X101286702Y-105051612D01*
X101296172Y-105064646D01*
X101435354Y-105203828D01*
X101594595Y-105319524D01*
X101653586Y-105349581D01*
X101769970Y-105408882D01*
X101769972Y-105408882D01*
X101769975Y-105408884D01*
X101870317Y-105441487D01*
X101957173Y-105469709D01*
X102151578Y-105500500D01*
X102151583Y-105500500D01*
X102348422Y-105500500D01*
X102542826Y-105469709D01*
X102611673Y-105447339D01*
X102730025Y-105408884D01*
X102905405Y-105319524D01*
X103064646Y-105203828D01*
X103203828Y-105064646D01*
X103319524Y-104905405D01*
X103325222Y-104894221D01*
X103373190Y-104843426D01*
X103441010Y-104826625D01*
X103507146Y-104849158D01*
X103550602Y-104903870D01*
X103553414Y-104911508D01*
X103605641Y-105069118D01*
X103605643Y-105069123D01*
X103697684Y-105218344D01*
X103821655Y-105342315D01*
X103970876Y-105434356D01*
X103970881Y-105434358D01*
X104137303Y-105489505D01*
X104137310Y-105489506D01*
X104240014Y-105499999D01*
X104240027Y-105500000D01*
X104540000Y-105500000D01*
X104540000Y-104530330D01*
X104559745Y-104550075D01*
X104645255Y-104599444D01*
X104740630Y-104625000D01*
X104839370Y-104625000D01*
X104934745Y-104599444D01*
X105020255Y-104550075D01*
X105040000Y-104530330D01*
X105040000Y-105500000D01*
X105339973Y-105500000D01*
X105339985Y-105499999D01*
X105442689Y-105489506D01*
X105442696Y-105489505D01*
X105609118Y-105434358D01*
X105609123Y-105434356D01*
X105758344Y-105342315D01*
X105882315Y-105218344D01*
X105974356Y-105069123D01*
X105974358Y-105069118D01*
X106029505Y-104902696D01*
X106029506Y-104902689D01*
X106039999Y-104799985D01*
X106040000Y-104799972D01*
X106040000Y-104500000D01*
X105070330Y-104500000D01*
X105090075Y-104480255D01*
X105139444Y-104394745D01*
X105165000Y-104299370D01*
X105165000Y-104200630D01*
X105139444Y-104105255D01*
X105090075Y-104019745D01*
X105070330Y-104000000D01*
X106040000Y-104000000D01*
X106040000Y-103700027D01*
X106039999Y-103700014D01*
X106029506Y-103597310D01*
X106029505Y-103597303D01*
X105974358Y-103430881D01*
X105974356Y-103430876D01*
X105882315Y-103281655D01*
X105758344Y-103157684D01*
X105609123Y-103065643D01*
X105609118Y-103065641D01*
X105442696Y-103010494D01*
X105442689Y-103010493D01*
X105339985Y-103000000D01*
X105040000Y-103000000D01*
X105040000Y-103969670D01*
X105020255Y-103949925D01*
X104934745Y-103900556D01*
X104839370Y-103875000D01*
X104740630Y-103875000D01*
X104645255Y-103900556D01*
X104559745Y-103949925D01*
X104540000Y-103969670D01*
X104540000Y-103000000D01*
X104240014Y-103000000D01*
X104137310Y-103010493D01*
X104137303Y-103010494D01*
X103970881Y-103065641D01*
X103970876Y-103065643D01*
X103821655Y-103157684D01*
X103697684Y-103281655D01*
X103605643Y-103430876D01*
X103605642Y-103430879D01*
X103553414Y-103588492D01*
X103513641Y-103645936D01*
X103449125Y-103672759D01*
X103380349Y-103660444D01*
X103329149Y-103612901D01*
X103325221Y-103605777D01*
X103319524Y-103594595D01*
X103315090Y-103588492D01*
X103203828Y-103435354D01*
X103064646Y-103296172D01*
X102905405Y-103180476D01*
X102860673Y-103157684D01*
X102730029Y-103091117D01*
X102542826Y-103030290D01*
X102348422Y-102999500D01*
X102348417Y-102999500D01*
X102151583Y-102999500D01*
X102151578Y-102999500D01*
X101957173Y-103030290D01*
X101769970Y-103091117D01*
X101594594Y-103180476D01*
X101503741Y-103246485D01*
X101435354Y-103296172D01*
X101435352Y-103296174D01*
X101435351Y-103296174D01*
X101296171Y-103435354D01*
X101286703Y-103448387D01*
X101231372Y-103491052D01*
X101186386Y-103499500D01*
X100922230Y-103499500D01*
X100855191Y-103479815D01*
X100834549Y-103463181D01*
X100546819Y-103175451D01*
X100513334Y-103114128D01*
X100510500Y-103087770D01*
X100510500Y-102905513D01*
X100480940Y-102718881D01*
X100422545Y-102539163D01*
X100336759Y-102370800D01*
X100225690Y-102217927D01*
X100219944Y-102212181D01*
X100186459Y-102150858D01*
X100191443Y-102081166D01*
X100233315Y-102025233D01*
X100298779Y-102000816D01*
X100307625Y-102000500D01*
X101311716Y-102000500D01*
X101378755Y-102020185D01*
X101412032Y-102051612D01*
X101421502Y-102064646D01*
X101560684Y-102203828D01*
X101719925Y-102319524D01*
X101802785Y-102361743D01*
X101895300Y-102408882D01*
X101895302Y-102408882D01*
X101895305Y-102408884D01*
X101995647Y-102441487D01*
X102082503Y-102469709D01*
X102276908Y-102500500D01*
X102276913Y-102500500D01*
X102473752Y-102500500D01*
X102668156Y-102469709D01*
X102855355Y-102408884D01*
X103030735Y-102319524D01*
X103189976Y-102203828D01*
X103329158Y-102064646D01*
X103444854Y-101905405D01*
X103450552Y-101894221D01*
X103498520Y-101843426D01*
X103566340Y-101826625D01*
X103632476Y-101849158D01*
X103675932Y-101903870D01*
X103678744Y-101911508D01*
X103730971Y-102069118D01*
X103730973Y-102069123D01*
X103823014Y-102218344D01*
X103946985Y-102342315D01*
X104096206Y-102434356D01*
X104096211Y-102434358D01*
X104262633Y-102489505D01*
X104262640Y-102489506D01*
X104365344Y-102499999D01*
X104365357Y-102500000D01*
X104665330Y-102500000D01*
X104665330Y-101530330D01*
X104685075Y-101550075D01*
X104770585Y-101599444D01*
X104865960Y-101625000D01*
X104964700Y-101625000D01*
X105060075Y-101599444D01*
X105145585Y-101550075D01*
X105165330Y-101530330D01*
X105165330Y-102500000D01*
X105465303Y-102500000D01*
X105465315Y-102499999D01*
X105568019Y-102489506D01*
X105568026Y-102489505D01*
X105734448Y-102434358D01*
X105734453Y-102434356D01*
X105883674Y-102342315D01*
X106007645Y-102218344D01*
X106099686Y-102069123D01*
X106099688Y-102069118D01*
X106154835Y-101902696D01*
X106154836Y-101902689D01*
X106165329Y-101799985D01*
X106165330Y-101799972D01*
X106165330Y-101500000D01*
X105195660Y-101500000D01*
X105215405Y-101480255D01*
X105264774Y-101394745D01*
X105290330Y-101299370D01*
X105290330Y-101200630D01*
X105264774Y-101105255D01*
X105215405Y-101019745D01*
X105195660Y-101000000D01*
X106165330Y-101000000D01*
X106165330Y-100700027D01*
X106165329Y-100700014D01*
X106154836Y-100597310D01*
X106154835Y-100597303D01*
X106099688Y-100430881D01*
X106099686Y-100430876D01*
X106007645Y-100281655D01*
X105883674Y-100157684D01*
X105734453Y-100065643D01*
X105734448Y-100065641D01*
X105568026Y-100010494D01*
X105568019Y-100010493D01*
X105465315Y-100000000D01*
X105165330Y-100000000D01*
X105165330Y-100969670D01*
X105145585Y-100949925D01*
X105060075Y-100900556D01*
X104964700Y-100875000D01*
X104865960Y-100875000D01*
X104770585Y-100900556D01*
X104685075Y-100949925D01*
X104665330Y-100969670D01*
X104665330Y-100000000D01*
X104365344Y-100000000D01*
X104262640Y-100010493D01*
X104262633Y-100010494D01*
X104096211Y-100065641D01*
X104096206Y-100065643D01*
X103946985Y-100157684D01*
X103823014Y-100281655D01*
X103730973Y-100430876D01*
X103730972Y-100430879D01*
X103678744Y-100588492D01*
X103638971Y-100645936D01*
X103574455Y-100672759D01*
X103505679Y-100660444D01*
X103454479Y-100612901D01*
X103450551Y-100605777D01*
X103444854Y-100594595D01*
X103440420Y-100588492D01*
X103329158Y-100435354D01*
X103189976Y-100296172D01*
X103030735Y-100180476D01*
X102986003Y-100157684D01*
X102855359Y-100091117D01*
X102668156Y-100030290D01*
X102473752Y-99999500D01*
X102473747Y-99999500D01*
X102276913Y-99999500D01*
X102276908Y-99999500D01*
X102082503Y-100030290D01*
X101895300Y-100091117D01*
X101719924Y-100180476D01*
X101629071Y-100246485D01*
X101560684Y-100296172D01*
X101560682Y-100296174D01*
X101560681Y-100296174D01*
X101421501Y-100435354D01*
X101412033Y-100448387D01*
X101356702Y-100491052D01*
X101311716Y-100499500D01*
X100580980Y-100499500D01*
X100513941Y-100479815D01*
X100468186Y-100427011D01*
X100463049Y-100413819D01*
X100424823Y-100296174D01*
X100422547Y-100289168D01*
X100422545Y-100289165D01*
X100422545Y-100289163D01*
X100336759Y-100120800D01*
X100301934Y-100072868D01*
X100225690Y-99967927D01*
X100092073Y-99834310D01*
X99942058Y-99725317D01*
X99899394Y-99669988D01*
X99893415Y-99600374D01*
X99926021Y-99538579D01*
X99942059Y-99524682D01*
X100092073Y-99415690D01*
X100225690Y-99282073D01*
X100336760Y-99129199D01*
X100367838Y-99068205D01*
X100415813Y-99017409D01*
X100478323Y-99000500D01*
X101396386Y-99000500D01*
X101463425Y-99020185D01*
X101496702Y-99051612D01*
X101506172Y-99064646D01*
X101645354Y-99203828D01*
X101804595Y-99319524D01*
X101887455Y-99361743D01*
X101979970Y-99408882D01*
X101979972Y-99408882D01*
X101979975Y-99408884D01*
X102080317Y-99441487D01*
X102167173Y-99469709D01*
X102361578Y-99500500D01*
X102361583Y-99500500D01*
X102558422Y-99500500D01*
X102752826Y-99469709D01*
X102940025Y-99408884D01*
X103115405Y-99319524D01*
X103274646Y-99203828D01*
X103413828Y-99064646D01*
X103529524Y-98905405D01*
X103535222Y-98894221D01*
X103583190Y-98843426D01*
X103651010Y-98826625D01*
X103717146Y-98849158D01*
X103760602Y-98903870D01*
X103763414Y-98911508D01*
X103815641Y-99069118D01*
X103815643Y-99069123D01*
X103907684Y-99218344D01*
X104031655Y-99342315D01*
X104180876Y-99434356D01*
X104180881Y-99434358D01*
X104347303Y-99489505D01*
X104347310Y-99489506D01*
X104450014Y-99499999D01*
X104450027Y-99500000D01*
X104750000Y-99500000D01*
X104750000Y-98530330D01*
X104769745Y-98550075D01*
X104855255Y-98599444D01*
X104950630Y-98625000D01*
X105049370Y-98625000D01*
X105144745Y-98599444D01*
X105230255Y-98550075D01*
X105250000Y-98530330D01*
X105250000Y-99500000D01*
X105549973Y-99500000D01*
X105549985Y-99499999D01*
X105652689Y-99489506D01*
X105652696Y-99489505D01*
X105819118Y-99434358D01*
X105819123Y-99434356D01*
X105968344Y-99342315D01*
X106092315Y-99218344D01*
X106184356Y-99069123D01*
X106184358Y-99069118D01*
X106239505Y-98902696D01*
X106239506Y-98902689D01*
X106249999Y-98799985D01*
X106250000Y-98799972D01*
X106250000Y-98500000D01*
X105280330Y-98500000D01*
X105300075Y-98480255D01*
X105349444Y-98394745D01*
X105375000Y-98299370D01*
X105375000Y-98200630D01*
X105349444Y-98105255D01*
X105300075Y-98019745D01*
X105280330Y-98000000D01*
X106250000Y-98000000D01*
X106250000Y-97700027D01*
X106249999Y-97700014D01*
X106239506Y-97597310D01*
X106239505Y-97597303D01*
X106184358Y-97430881D01*
X106184356Y-97430876D01*
X106092315Y-97281655D01*
X105968344Y-97157684D01*
X105964824Y-97155513D01*
X106989500Y-97155513D01*
X106989500Y-97344486D01*
X107019059Y-97531118D01*
X107077454Y-97710836D01*
X107163240Y-97879199D01*
X107274310Y-98032073D01*
X107407927Y-98165690D01*
X107407930Y-98165692D01*
X107440448Y-98189319D01*
X107449345Y-98199809D01*
X107458291Y-98205114D01*
X107472217Y-98226776D01*
X107478429Y-98234100D01*
X107480423Y-98238082D01*
X107524916Y-98345495D01*
X107557813Y-98394729D01*
X107562114Y-98401166D01*
X107562117Y-98401172D01*
X107607046Y-98468414D01*
X107607052Y-98468421D01*
X108313181Y-99174549D01*
X108346666Y-99235872D01*
X108349500Y-99262230D01*
X108349500Y-101050001D01*
X108349501Y-101050018D01*
X108360000Y-101152796D01*
X108360001Y-101152799D01*
X108415185Y-101319331D01*
X108415187Y-101319336D01*
X108427524Y-101339337D01*
X108507288Y-101468656D01*
X108631344Y-101592712D01*
X108780666Y-101684814D01*
X108947203Y-101739999D01*
X109049991Y-101750500D01*
X111450008Y-101750499D01*
X111552797Y-101739999D01*
X111719334Y-101684814D01*
X111868656Y-101592712D01*
X111992712Y-101468656D01*
X112084814Y-101319334D01*
X112139999Y-101152797D01*
X112150500Y-101050009D01*
X112150499Y-99269982D01*
X112399500Y-99269982D01*
X112399500Y-101070017D01*
X112410000Y-101172796D01*
X112445305Y-101279338D01*
X112465186Y-101339335D01*
X112557288Y-101488656D01*
X112681344Y-101612712D01*
X112830665Y-101704814D01*
X112997202Y-101759999D01*
X113099990Y-101770500D01*
X113099995Y-101770500D01*
X114900005Y-101770500D01*
X114900010Y-101770500D01*
X115002798Y-101759999D01*
X115169335Y-101704814D01*
X115318656Y-101612712D01*
X115442712Y-101488656D01*
X115534814Y-101339335D01*
X115589999Y-101172798D01*
X115600500Y-101070010D01*
X115600500Y-99675781D01*
X115620185Y-99608742D01*
X115636814Y-99588105D01*
X121518501Y-93706417D01*
X121579822Y-93672934D01*
X121586776Y-93671627D01*
X121591118Y-93670940D01*
X121770832Y-93612547D01*
X121939199Y-93526760D01*
X122092073Y-93415690D01*
X122225690Y-93282073D01*
X122336760Y-93129199D01*
X122422547Y-92960832D01*
X122480940Y-92781118D01*
X122510500Y-92594486D01*
X122510500Y-92405513D01*
X122480940Y-92218881D01*
X122422545Y-92039163D01*
X122336759Y-91870800D01*
X122225690Y-91717927D01*
X122092073Y-91584310D01*
X121939199Y-91473240D01*
X121770836Y-91387454D01*
X121591118Y-91329059D01*
X121404486Y-91299500D01*
X121404481Y-91299500D01*
X121215519Y-91299500D01*
X121215514Y-91299500D01*
X121028881Y-91329059D01*
X120849163Y-91387454D01*
X120680800Y-91473240D01*
X120593579Y-91536610D01*
X120527927Y-91584310D01*
X120527925Y-91584312D01*
X120527924Y-91584312D01*
X120394312Y-91717924D01*
X120394312Y-91717925D01*
X120394310Y-91717927D01*
X120346610Y-91783579D01*
X120283240Y-91870800D01*
X120197454Y-92039165D01*
X120139059Y-92218884D01*
X120138372Y-92223223D01*
X120108437Y-92286356D01*
X120103581Y-92291497D01*
X116314596Y-96080482D01*
X116253273Y-96113967D01*
X116188597Y-96110732D01*
X116091119Y-96079060D01*
X115904486Y-96049500D01*
X115904481Y-96049500D01*
X115715519Y-96049500D01*
X115715514Y-96049500D01*
X115528881Y-96079059D01*
X115349163Y-96137454D01*
X115180800Y-96223240D01*
X115093579Y-96286610D01*
X115027927Y-96334310D01*
X115027925Y-96334312D01*
X115027924Y-96334312D01*
X114894312Y-96467924D01*
X114894312Y-96467925D01*
X114894310Y-96467927D01*
X114846610Y-96533579D01*
X114783240Y-96620800D01*
X114697454Y-96789163D01*
X114639059Y-96968881D01*
X114609500Y-97155513D01*
X114609500Y-97344486D01*
X114639060Y-97531119D01*
X114670732Y-97628597D01*
X114672727Y-97698439D01*
X114640482Y-97754596D01*
X113861899Y-98533181D01*
X113800576Y-98566666D01*
X113774218Y-98569500D01*
X113099982Y-98569500D01*
X112997203Y-98580000D01*
X112997202Y-98580001D01*
X112938527Y-98599444D01*
X112830667Y-98635185D01*
X112830662Y-98635187D01*
X112681342Y-98727289D01*
X112557289Y-98851342D01*
X112465187Y-99000662D01*
X112465185Y-99000667D01*
X112448303Y-99051613D01*
X112410001Y-99167202D01*
X112410001Y-99167203D01*
X112410000Y-99167203D01*
X112399500Y-99269982D01*
X112150499Y-99269982D01*
X112150499Y-99049992D01*
X112139999Y-98947203D01*
X112084814Y-98780666D01*
X111992712Y-98631344D01*
X111868656Y-98507288D01*
X111719334Y-98415186D01*
X111552797Y-98360001D01*
X111552795Y-98360000D01*
X111450016Y-98349500D01*
X111450009Y-98349500D01*
X109662230Y-98349500D01*
X109595191Y-98329815D01*
X109574549Y-98313181D01*
X109254746Y-97993378D01*
X109221261Y-97932055D01*
X109226245Y-97862363D01*
X109231942Y-97849402D01*
X109234443Y-97844495D01*
X109302547Y-97710832D01*
X109360940Y-97531118D01*
X109367286Y-97491052D01*
X109390500Y-97344486D01*
X109390500Y-97155513D01*
X109360940Y-96968881D01*
X109333846Y-96885497D01*
X109302547Y-96789168D01*
X109302545Y-96789165D01*
X109302545Y-96789163D01*
X109216759Y-96620800D01*
X109105690Y-96467927D01*
X108976818Y-96339055D01*
X108943334Y-96277732D01*
X108940500Y-96251374D01*
X108940500Y-94422229D01*
X108949144Y-94392788D01*
X108955668Y-94362802D01*
X108959422Y-94357786D01*
X108960185Y-94355190D01*
X108976815Y-94334552D01*
X109074549Y-94236817D01*
X109135872Y-94203333D01*
X109162230Y-94200499D01*
X109797871Y-94200499D01*
X109797872Y-94200499D01*
X109857483Y-94194091D01*
X109992331Y-94143796D01*
X110107546Y-94057546D01*
X110193796Y-93942331D01*
X110244091Y-93807483D01*
X110250500Y-93747873D01*
X110250499Y-92752128D01*
X110244091Y-92692517D01*
X110231340Y-92658332D01*
X110226357Y-92588642D01*
X110231340Y-92571669D01*
X110244091Y-92537483D01*
X110250500Y-92477873D01*
X110250499Y-91482128D01*
X110244091Y-91422517D01*
X110231340Y-91388332D01*
X110226357Y-91318642D01*
X110231340Y-91301669D01*
X110244091Y-91267483D01*
X110250500Y-91207873D01*
X110250499Y-90846681D01*
X110270183Y-90779644D01*
X110322987Y-90733889D01*
X110384228Y-90723065D01*
X110420525Y-90725921D01*
X111100000Y-90046446D01*
X111100000Y-90052661D01*
X111127259Y-90154394D01*
X111179920Y-90245606D01*
X111254394Y-90320080D01*
X111345606Y-90372741D01*
X111447339Y-90400000D01*
X111453553Y-90400000D01*
X110774076Y-91079474D01*
X110818650Y-91111859D01*
X111000968Y-91204755D01*
X111195582Y-91267990D01*
X111397683Y-91300000D01*
X111602317Y-91300000D01*
X111804417Y-91267990D01*
X111999031Y-91204755D01*
X112181349Y-91111859D01*
X112225921Y-91079474D01*
X111546447Y-90400000D01*
X111552661Y-90400000D01*
X111654394Y-90372741D01*
X111745606Y-90320080D01*
X111820080Y-90245606D01*
X111872741Y-90154394D01*
X111900000Y-90052661D01*
X111900000Y-90046446D01*
X112579474Y-90725921D01*
X112611861Y-90681347D01*
X112611861Y-90681346D01*
X112705015Y-90498521D01*
X112752989Y-90447724D01*
X112820810Y-90430929D01*
X112886945Y-90453466D01*
X112930397Y-90508181D01*
X112939500Y-90554815D01*
X112939500Y-91501374D01*
X112919815Y-91568413D01*
X112903182Y-91589055D01*
X112774309Y-91717928D01*
X112663240Y-91870800D01*
X112577454Y-92039163D01*
X112519059Y-92218881D01*
X112489500Y-92405513D01*
X112489500Y-92594486D01*
X112519059Y-92781118D01*
X112577454Y-92960836D01*
X112663240Y-93129199D01*
X112774310Y-93282073D01*
X112907927Y-93415690D01*
X113060801Y-93526760D01*
X113140347Y-93567290D01*
X113229163Y-93612545D01*
X113229165Y-93612545D01*
X113229168Y-93612547D01*
X113321406Y-93642517D01*
X113408881Y-93670940D01*
X113595514Y-93700500D01*
X113595519Y-93700500D01*
X113784486Y-93700500D01*
X113971118Y-93670940D01*
X113971121Y-93670939D01*
X114150832Y-93612547D01*
X114319199Y-93526760D01*
X114472073Y-93415690D01*
X114605690Y-93282073D01*
X114716760Y-93129199D01*
X114802547Y-92960832D01*
X114860940Y-92781118D01*
X114890500Y-92594486D01*
X114890500Y-92405513D01*
X114860940Y-92218881D01*
X114802545Y-92039163D01*
X114716759Y-91870800D01*
X114605690Y-91717927D01*
X114476818Y-91589055D01*
X114443334Y-91527732D01*
X114440500Y-91501374D01*
X114440500Y-90906115D01*
X114460185Y-90839076D01*
X114512989Y-90793321D01*
X114526179Y-90788185D01*
X114623975Y-90756410D01*
X114851947Y-90640252D01*
X115058942Y-90489862D01*
X115239862Y-90308942D01*
X115390252Y-90101947D01*
X115506410Y-89873975D01*
X115585474Y-89630639D01*
X115625500Y-89377930D01*
X115625500Y-89122070D01*
X115585474Y-88869361D01*
X115521991Y-88673978D01*
X115506411Y-88626027D01*
X115506410Y-88626024D01*
X115466185Y-88547080D01*
X115390252Y-88398053D01*
X115283883Y-88251648D01*
X115239867Y-88191064D01*
X115239863Y-88191059D01*
X115125959Y-88077155D01*
X118875000Y-88077155D01*
X118875000Y-89000000D01*
X119899999Y-89000000D01*
X119874979Y-89060402D01*
X119850000Y-89185981D01*
X119850000Y-89314019D01*
X119874979Y-89439598D01*
X119899999Y-89500000D01*
X118875000Y-89500000D01*
X118875000Y-90422844D01*
X118881401Y-90482372D01*
X118881403Y-90482379D01*
X118931645Y-90617086D01*
X118931649Y-90617093D01*
X119017809Y-90732187D01*
X119017812Y-90732190D01*
X119132906Y-90818350D01*
X119132913Y-90818354D01*
X119267620Y-90868596D01*
X119267627Y-90868598D01*
X119327155Y-90874999D01*
X119327172Y-90875000D01*
X120250000Y-90875000D01*
X120250000Y-89850001D01*
X120310402Y-89875021D01*
X120435981Y-89900000D01*
X120564019Y-89900000D01*
X120689598Y-89875021D01*
X120750000Y-89850001D01*
X120750000Y-90875000D01*
X121672828Y-90875000D01*
X121672844Y-90874999D01*
X121732372Y-90868598D01*
X121732379Y-90868596D01*
X121867086Y-90818354D01*
X121867093Y-90818350D01*
X121982187Y-90732190D01*
X121982190Y-90732187D01*
X122068350Y-90617093D01*
X122068354Y-90617086D01*
X122118596Y-90482379D01*
X122118598Y-90482372D01*
X122124999Y-90422844D01*
X122125000Y-90422827D01*
X122125000Y-89500000D01*
X121100001Y-89500000D01*
X121125021Y-89439598D01*
X121150000Y-89314019D01*
X121150000Y-89185981D01*
X121125021Y-89060402D01*
X121100001Y-89000000D01*
X122125000Y-89000000D01*
X122125000Y-88077172D01*
X122124999Y-88077155D01*
X122118598Y-88017627D01*
X122118596Y-88017620D01*
X122068354Y-87882913D01*
X122068350Y-87882906D01*
X121982190Y-87767812D01*
X121982187Y-87767809D01*
X121867093Y-87681649D01*
X121867086Y-87681645D01*
X121732379Y-87631403D01*
X121732372Y-87631401D01*
X121672844Y-87625000D01*
X120750000Y-87625000D01*
X120750000Y-88649998D01*
X120689598Y-88624979D01*
X120564019Y-88600000D01*
X120435981Y-88600000D01*
X120310402Y-88624979D01*
X120250000Y-88649998D01*
X120250000Y-87625000D01*
X119327155Y-87625000D01*
X119267627Y-87631401D01*
X119267620Y-87631403D01*
X119132913Y-87681645D01*
X119132906Y-87681649D01*
X119017812Y-87767809D01*
X119017809Y-87767812D01*
X118931649Y-87882906D01*
X118931645Y-87882913D01*
X118881403Y-88017620D01*
X118881401Y-88017627D01*
X118875000Y-88077155D01*
X115125959Y-88077155D01*
X115058940Y-88010136D01*
X115058935Y-88010132D01*
X114851950Y-87859750D01*
X114851949Y-87859749D01*
X114851947Y-87859748D01*
X114778910Y-87822533D01*
X114623975Y-87743589D01*
X114623972Y-87743588D01*
X114380640Y-87664526D01*
X114254284Y-87644513D01*
X114127930Y-87624500D01*
X113872070Y-87624500D01*
X113787833Y-87637842D01*
X113619359Y-87664526D01*
X113376027Y-87743588D01*
X113376024Y-87743589D01*
X113148054Y-87859747D01*
X113102289Y-87892996D01*
X113070169Y-87904455D01*
X113038252Y-87916360D01*
X113037350Y-87916163D01*
X113036482Y-87916474D01*
X113003272Y-87908750D01*
X112969979Y-87901508D01*
X112969009Y-87900782D01*
X112968428Y-87900647D01*
X112941725Y-87880357D01*
X112826473Y-87765105D01*
X112792988Y-87703782D01*
X112791681Y-87658027D01*
X112800500Y-87602352D01*
X112800500Y-87397648D01*
X112772626Y-87221659D01*
X112768477Y-87195465D01*
X112731919Y-87082952D01*
X112705220Y-87000781D01*
X112705218Y-87000778D01*
X112705218Y-87000776D01*
X112665357Y-86922545D01*
X112612287Y-86818390D01*
X112585701Y-86781797D01*
X112491971Y-86652786D01*
X112347213Y-86508028D01*
X112301502Y-86474818D01*
X112258836Y-86419489D01*
X112252857Y-86349875D01*
X112285462Y-86288080D01*
X112346301Y-86253723D01*
X112374387Y-86250500D01*
X112624582Y-86250500D01*
X112691621Y-86270185D01*
X112724900Y-86301615D01*
X112758028Y-86347212D01*
X112758032Y-86347217D01*
X112902786Y-86491971D01*
X113047100Y-86596819D01*
X113068390Y-86612287D01*
X113184607Y-86671503D01*
X113250776Y-86705218D01*
X113250778Y-86705218D01*
X113250781Y-86705220D01*
X113355137Y-86739127D01*
X113445465Y-86768477D01*
X113529564Y-86781797D01*
X113647648Y-86800500D01*
X113647649Y-86800500D01*
X113852350Y-86800500D01*
X113852352Y-86800500D01*
X113908027Y-86791681D01*
X113977319Y-86800635D01*
X114015106Y-86826473D01*
X114418049Y-87229416D01*
X114508449Y-87319816D01*
X114522585Y-87333952D01*
X114645498Y-87416080D01*
X114645511Y-87416087D01*
X114745446Y-87457481D01*
X114782087Y-87472658D01*
X114782091Y-87472658D01*
X114782092Y-87472659D01*
X114927079Y-87501500D01*
X114927082Y-87501500D01*
X117882920Y-87501500D01*
X117980462Y-87482096D01*
X118027913Y-87472658D01*
X118164495Y-87416084D01*
X118221767Y-87377816D01*
X118287416Y-87333952D01*
X118574549Y-87046817D01*
X118635870Y-87013334D01*
X118662229Y-87010500D01*
X118844486Y-87010500D01*
X119031118Y-86980940D01*
X119060636Y-86971349D01*
X119210832Y-86922547D01*
X119379199Y-86836760D01*
X119532073Y-86725690D01*
X119660944Y-86596819D01*
X119722267Y-86563334D01*
X119748625Y-86560500D01*
X120197770Y-86560500D01*
X120264809Y-86580185D01*
X120285451Y-86596819D01*
X120480314Y-86791681D01*
X120667046Y-86978413D01*
X120667048Y-86978416D01*
X120771584Y-87082952D01*
X120825405Y-87118913D01*
X120894505Y-87165084D01*
X121031087Y-87221658D01*
X121031091Y-87221658D01*
X121031092Y-87221659D01*
X121176079Y-87250500D01*
X121176082Y-87250500D01*
X121323911Y-87250500D01*
X121323917Y-87250500D01*
X121323922Y-87250498D01*
X121324124Y-87250479D01*
X121324318Y-87250500D01*
X121330010Y-87250500D01*
X121330010Y-87251116D01*
X121374607Y-87255950D01*
X121540183Y-87309747D01*
X121619361Y-87335474D01*
X121872070Y-87375500D01*
X121872071Y-87375500D01*
X122127929Y-87375500D01*
X122127930Y-87375500D01*
X122380639Y-87335474D01*
X122623975Y-87256410D01*
X122851947Y-87140252D01*
X123058942Y-86989862D01*
X123239862Y-86808942D01*
X123390252Y-86601947D01*
X123506410Y-86373975D01*
X123585474Y-86130639D01*
X123625500Y-85877930D01*
X123625500Y-85622070D01*
X123585474Y-85369361D01*
X123528973Y-85195466D01*
X123506411Y-85126027D01*
X123506410Y-85126024D01*
X123442690Y-85000968D01*
X123390252Y-84898053D01*
X123361059Y-84857872D01*
X123239867Y-84691064D01*
X123239863Y-84691059D01*
X123058940Y-84510136D01*
X123058935Y-84510132D01*
X122851950Y-84359750D01*
X122851949Y-84359749D01*
X122851947Y-84359748D01*
X122778910Y-84322533D01*
X122623975Y-84243589D01*
X122623972Y-84243588D01*
X122380640Y-84164526D01*
X122254284Y-84144513D01*
X122127930Y-84124500D01*
X121872070Y-84124500D01*
X121787833Y-84137842D01*
X121619359Y-84164526D01*
X121376027Y-84243588D01*
X121376024Y-84243589D01*
X121148049Y-84359750D01*
X120941064Y-84510132D01*
X120941059Y-84510136D01*
X120760136Y-84691059D01*
X120760132Y-84691064D01*
X120609750Y-84898049D01*
X120561984Y-84991795D01*
X120514009Y-85042591D01*
X120451499Y-85059500D01*
X119748625Y-85059500D01*
X119681586Y-85039815D01*
X119660944Y-85023181D01*
X119532075Y-84894312D01*
X119532073Y-84894310D01*
X119379199Y-84783240D01*
X119361214Y-84774076D01*
X119210836Y-84697454D01*
X119031118Y-84639059D01*
X118844486Y-84609500D01*
X118844481Y-84609500D01*
X118655519Y-84609500D01*
X118655514Y-84609500D01*
X118468881Y-84639059D01*
X118289163Y-84697454D01*
X118120800Y-84783240D01*
X118033579Y-84846610D01*
X117967927Y-84894310D01*
X117967925Y-84894312D01*
X117967924Y-84894312D01*
X117834312Y-85027924D01*
X117834305Y-85027933D01*
X117721141Y-85183687D01*
X117665811Y-85226353D01*
X117596198Y-85232331D01*
X117534403Y-85199724D01*
X117502893Y-85149120D01*
X117454754Y-85000968D01*
X117361859Y-84818650D01*
X117329474Y-84774077D01*
X117329474Y-84774076D01*
X116650000Y-85453551D01*
X116650000Y-85447339D01*
X116622741Y-85345606D01*
X116570080Y-85254394D01*
X116495606Y-85179920D01*
X116404394Y-85127259D01*
X116302661Y-85100000D01*
X116296446Y-85100000D01*
X116975922Y-84420524D01*
X116975921Y-84420523D01*
X116931359Y-84388147D01*
X116931350Y-84388141D01*
X116749031Y-84295244D01*
X116554417Y-84232009D01*
X116352317Y-84200000D01*
X116147683Y-84200000D01*
X115945582Y-84232009D01*
X115750968Y-84295244D01*
X115568644Y-84388143D01*
X115524077Y-84420523D01*
X115524077Y-84420524D01*
X116203554Y-85100000D01*
X116197339Y-85100000D01*
X116095606Y-85127259D01*
X116004394Y-85179920D01*
X115929920Y-85254394D01*
X115877259Y-85345606D01*
X115850000Y-85447339D01*
X115850000Y-85453553D01*
X115170524Y-84774077D01*
X115170523Y-84774077D01*
X115138143Y-84818644D01*
X115110765Y-84872378D01*
X115062790Y-84923174D01*
X114994969Y-84939969D01*
X114928834Y-84917431D01*
X114889795Y-84872378D01*
X114862287Y-84818390D01*
X114862285Y-84818387D01*
X114862284Y-84818385D01*
X114741971Y-84652786D01*
X114597213Y-84508028D01*
X114431613Y-84387715D01*
X114431612Y-84387714D01*
X114431610Y-84387713D01*
X114374653Y-84358691D01*
X114249223Y-84294781D01*
X114054534Y-84231522D01*
X113879995Y-84203878D01*
X113852352Y-84199500D01*
X113647648Y-84199500D01*
X113623329Y-84203351D01*
X113445465Y-84231522D01*
X113250776Y-84294781D01*
X113068386Y-84387715D01*
X112902786Y-84508028D01*
X112758032Y-84652782D01*
X112758028Y-84652787D01*
X112724900Y-84698385D01*
X112669571Y-84741051D01*
X112624582Y-84749500D01*
X110374500Y-84749500D01*
X110307461Y-84729815D01*
X110261706Y-84677011D01*
X110250500Y-84625500D01*
X110250499Y-83862129D01*
X110250498Y-83862123D01*
X110250497Y-83862116D01*
X110244091Y-83802517D01*
X110231340Y-83768332D01*
X110226357Y-83698642D01*
X110231340Y-83681669D01*
X110244091Y-83647483D01*
X110250500Y-83587873D01*
X110250499Y-82694499D01*
X110270184Y-82627461D01*
X110322988Y-82581706D01*
X110374499Y-82570500D01*
X112293920Y-82570500D01*
X112391462Y-82551096D01*
X112438913Y-82541658D01*
X112575495Y-82485084D01*
X112624729Y-82452186D01*
X112698416Y-82402952D01*
X112740327Y-82361040D01*
X112746193Y-82356439D01*
X112771994Y-82346145D01*
X112796372Y-82332834D01*
X112808674Y-82331511D01*
X112811089Y-82330548D01*
X112813422Y-82331000D01*
X112822730Y-82330000D01*
X113555440Y-82330000D01*
X113524755Y-82383147D01*
X113490000Y-82512857D01*
X113490000Y-82647143D01*
X113524755Y-82776853D01*
X113555440Y-82830000D01*
X112507581Y-82830000D01*
X112518610Y-82899635D01*
X112585003Y-83103975D01*
X112682547Y-83295416D01*
X112808838Y-83469240D01*
X112960759Y-83621161D01*
X113134583Y-83747452D01*
X113326024Y-83844996D01*
X113530358Y-83911388D01*
X113742573Y-83945000D01*
X113750000Y-83945000D01*
X113750000Y-83024560D01*
X113803147Y-83055245D01*
X113932857Y-83090000D01*
X114067143Y-83090000D01*
X114196853Y-83055245D01*
X114250000Y-83024560D01*
X114250000Y-83945000D01*
X114257427Y-83945000D01*
X114469639Y-83911388D01*
X114469642Y-83911388D01*
X114673975Y-83844996D01*
X114865416Y-83747452D01*
X115039240Y-83621161D01*
X115191161Y-83469240D01*
X115317452Y-83295416D01*
X115414996Y-83103975D01*
X115481389Y-82899635D01*
X115492419Y-82830000D01*
X114444560Y-82830000D01*
X114475245Y-82776853D01*
X114510000Y-82647143D01*
X114510000Y-82512857D01*
X114475245Y-82383147D01*
X114444560Y-82330000D01*
X115492419Y-82330000D01*
X115481389Y-82260364D01*
X115414996Y-82056024D01*
X115317452Y-81864583D01*
X115191161Y-81690759D01*
X115039240Y-81538838D01*
X114862772Y-81410626D01*
X114820107Y-81355296D01*
X114814128Y-81285682D01*
X114846734Y-81223888D01*
X114862773Y-81209990D01*
X114865675Y-81207881D01*
X114865678Y-81207880D01*
X115039563Y-81081545D01*
X115191545Y-80929563D01*
X115317880Y-80755678D01*
X115415458Y-80564170D01*
X115457168Y-80435800D01*
X115481875Y-80359759D01*
X115481875Y-80359758D01*
X115481876Y-80359755D01*
X115515500Y-80147467D01*
X115515500Y-79932533D01*
X115481876Y-79720245D01*
X115481875Y-79720241D01*
X115481875Y-79720240D01*
X115415459Y-79515832D01*
X115415458Y-79515829D01*
X115351599Y-79390500D01*
X115317880Y-79324322D01*
X115191545Y-79150437D01*
X115097018Y-79055910D01*
X115063533Y-78994587D01*
X115068517Y-78924895D01*
X115110389Y-78868962D01*
X115141362Y-78852049D01*
X115257331Y-78808796D01*
X115372546Y-78722546D01*
X115458796Y-78607331D01*
X115509091Y-78472483D01*
X115515500Y-78412873D01*
X115515500Y-78095513D01*
X117549500Y-78095513D01*
X117549500Y-78284486D01*
X117579059Y-78471118D01*
X117637454Y-78650836D01*
X117704345Y-78782116D01*
X117723240Y-78819199D01*
X117834310Y-78972073D01*
X117967927Y-79105690D01*
X118120801Y-79216760D01*
X118200347Y-79257290D01*
X118289163Y-79302545D01*
X118289165Y-79302545D01*
X118289168Y-79302547D01*
X118356181Y-79324321D01*
X118468881Y-79360940D01*
X118655514Y-79390500D01*
X118655519Y-79390500D01*
X118844486Y-79390500D01*
X119031118Y-79360940D01*
X119210832Y-79302547D01*
X119379199Y-79216760D01*
X119532073Y-79105690D01*
X119665690Y-78972073D01*
X119776760Y-78819199D01*
X119862547Y-78650832D01*
X119920940Y-78471118D01*
X119950500Y-78284486D01*
X119950500Y-78095513D01*
X119950142Y-78093254D01*
X119950142Y-78093252D01*
X119950141Y-78093249D01*
X119947592Y-78077155D01*
X120375000Y-78077155D01*
X120375000Y-79000000D01*
X121399999Y-79000000D01*
X121374979Y-79060402D01*
X121350000Y-79185981D01*
X121350000Y-79314019D01*
X121374979Y-79439598D01*
X121399999Y-79500000D01*
X120375000Y-79500000D01*
X120375000Y-80422844D01*
X120381401Y-80482372D01*
X120381403Y-80482379D01*
X120431645Y-80617086D01*
X120431649Y-80617093D01*
X120517809Y-80732187D01*
X120517812Y-80732190D01*
X120632906Y-80818350D01*
X120632913Y-80818354D01*
X120767620Y-80868596D01*
X120767627Y-80868598D01*
X120827155Y-80874999D01*
X120827172Y-80875000D01*
X121750000Y-80875000D01*
X121750000Y-79850001D01*
X121810402Y-79875021D01*
X121935981Y-79900000D01*
X122064019Y-79900000D01*
X122189598Y-79875021D01*
X122250000Y-79850001D01*
X122250000Y-80875000D01*
X123172828Y-80875000D01*
X123172844Y-80874999D01*
X123232372Y-80868598D01*
X123232379Y-80868596D01*
X123367086Y-80818354D01*
X123367093Y-80818350D01*
X123482187Y-80732190D01*
X123482190Y-80732187D01*
X123568350Y-80617093D01*
X123568354Y-80617086D01*
X123618596Y-80482379D01*
X123618598Y-80482372D01*
X123624999Y-80422844D01*
X123625000Y-80422827D01*
X123625000Y-79500000D01*
X122600001Y-79500000D01*
X122625021Y-79439598D01*
X122650000Y-79314019D01*
X122650000Y-79185981D01*
X122625021Y-79060402D01*
X122600001Y-79000000D01*
X123625000Y-79000000D01*
X123625000Y-78077172D01*
X123624999Y-78077155D01*
X123618598Y-78017627D01*
X123618596Y-78017620D01*
X123568354Y-77882913D01*
X123568350Y-77882906D01*
X123482190Y-77767812D01*
X123482187Y-77767809D01*
X123367093Y-77681649D01*
X123367086Y-77681645D01*
X123232379Y-77631403D01*
X123232372Y-77631401D01*
X123172844Y-77625000D01*
X122250000Y-77625000D01*
X122250000Y-78649998D01*
X122189598Y-78624979D01*
X122064019Y-78600000D01*
X121935981Y-78600000D01*
X121810402Y-78624979D01*
X121750000Y-78649998D01*
X121750000Y-77625000D01*
X120827155Y-77625000D01*
X120767627Y-77631401D01*
X120767620Y-77631403D01*
X120632913Y-77681645D01*
X120632906Y-77681649D01*
X120517812Y-77767809D01*
X120517809Y-77767812D01*
X120431649Y-77882906D01*
X120431645Y-77882913D01*
X120381403Y-78017620D01*
X120381401Y-78017627D01*
X120375000Y-78077155D01*
X119947592Y-78077155D01*
X119920940Y-77908881D01*
X119877610Y-77775528D01*
X119862547Y-77729168D01*
X119862545Y-77729165D01*
X119862545Y-77729163D01*
X119776759Y-77560800D01*
X119665690Y-77407927D01*
X119532073Y-77274310D01*
X119379199Y-77163240D01*
X119353214Y-77150000D01*
X119210836Y-77077454D01*
X119031118Y-77019059D01*
X118844486Y-76989500D01*
X118844481Y-76989500D01*
X118655519Y-76989500D01*
X118655514Y-76989500D01*
X118468881Y-77019059D01*
X118289163Y-77077454D01*
X118120800Y-77163240D01*
X118033579Y-77226610D01*
X117967927Y-77274310D01*
X117967925Y-77274312D01*
X117967924Y-77274312D01*
X117834312Y-77407924D01*
X117834312Y-77407925D01*
X117834310Y-77407927D01*
X117801914Y-77452516D01*
X117723240Y-77560800D01*
X117637454Y-77729163D01*
X117579059Y-77908881D01*
X117549500Y-78095513D01*
X115515500Y-78095513D01*
X115515499Y-77452518D01*
X115515499Y-76587129D01*
X115515498Y-76587123D01*
X115515497Y-76587116D01*
X115509091Y-76527517D01*
X115458796Y-76392669D01*
X115458795Y-76392668D01*
X115458793Y-76392664D01*
X115372547Y-76277455D01*
X115372544Y-76277452D01*
X115257335Y-76191206D01*
X115257328Y-76191202D01*
X115122482Y-76140908D01*
X115122483Y-76140908D01*
X115062883Y-76134501D01*
X115062881Y-76134500D01*
X115062873Y-76134500D01*
X115062864Y-76134500D01*
X112937129Y-76134500D01*
X112937123Y-76134501D01*
X112877516Y-76140908D01*
X112742671Y-76191202D01*
X112742664Y-76191206D01*
X112627455Y-76277452D01*
X112627452Y-76277455D01*
X112541206Y-76392664D01*
X112541202Y-76392671D01*
X112490908Y-76527517D01*
X112484501Y-76587116D01*
X112484501Y-76587123D01*
X112484500Y-76587135D01*
X112484500Y-77902769D01*
X112464815Y-77969808D01*
X112448181Y-77990450D01*
X110675451Y-79763181D01*
X110648523Y-79777884D01*
X110622705Y-79794477D01*
X110616504Y-79795368D01*
X110614128Y-79796666D01*
X110587770Y-79799500D01*
X110374500Y-79799500D01*
X110307461Y-79779815D01*
X110261706Y-79727011D01*
X110250500Y-79675500D01*
X110250499Y-78782129D01*
X110250498Y-78782123D01*
X110250497Y-78782116D01*
X110244091Y-78722517D01*
X110231340Y-78688332D01*
X110226357Y-78618642D01*
X110231340Y-78601669D01*
X110244091Y-78567483D01*
X110250500Y-78507873D01*
X110250499Y-77512128D01*
X110244091Y-77452517D01*
X110231073Y-77417616D01*
X110226090Y-77347926D01*
X110231075Y-77330949D01*
X110243597Y-77297375D01*
X110243598Y-77297372D01*
X110249999Y-77237844D01*
X110250000Y-77237827D01*
X110250000Y-76990000D01*
X107750000Y-76990000D01*
X107750000Y-77237844D01*
X107756401Y-77297372D01*
X107756403Y-77297379D01*
X107768925Y-77330952D01*
X107773909Y-77400643D01*
X107768925Y-77417617D01*
X107755909Y-77452514D01*
X107755908Y-77452516D01*
X107749501Y-77512116D01*
X107749501Y-77512123D01*
X107749500Y-77512135D01*
X107749500Y-78507870D01*
X107749501Y-78507876D01*
X107755908Y-78567481D01*
X107768659Y-78601669D01*
X107773642Y-78671361D01*
X107768659Y-78688331D01*
X107755908Y-78722518D01*
X107749501Y-78782116D01*
X107749501Y-78782123D01*
X107749500Y-78782135D01*
X107749500Y-79777870D01*
X107749501Y-79777876D01*
X107755908Y-79837481D01*
X107768659Y-79871669D01*
X107773642Y-79941361D01*
X107768659Y-79958331D01*
X107755908Y-79992518D01*
X107749501Y-80052116D01*
X107749501Y-80052123D01*
X107749500Y-80052135D01*
X107749500Y-81047870D01*
X107749501Y-81047876D01*
X107755908Y-81107481D01*
X107768659Y-81141669D01*
X107773642Y-81211361D01*
X107768659Y-81228331D01*
X107755908Y-81262518D01*
X107753418Y-81285682D01*
X107749501Y-81322123D01*
X107749500Y-81322135D01*
X107749500Y-82317870D01*
X107749501Y-82317876D01*
X107755908Y-82377481D01*
X107768659Y-82411669D01*
X107773642Y-82481361D01*
X107768659Y-82498331D01*
X107755908Y-82532518D01*
X107751825Y-82570500D01*
X107749501Y-82592123D01*
X107749500Y-82592135D01*
X107749500Y-83587870D01*
X107749501Y-83587876D01*
X107755908Y-83647481D01*
X107768659Y-83681669D01*
X107773642Y-83751361D01*
X107768659Y-83768331D01*
X107755908Y-83802518D01*
X107749501Y-83862116D01*
X107749501Y-83862123D01*
X107749500Y-83862135D01*
X107749500Y-84857870D01*
X107749501Y-84857876D01*
X107755908Y-84917481D01*
X107768659Y-84951669D01*
X107773642Y-85021361D01*
X107768659Y-85038331D01*
X107755908Y-85072518D01*
X107752954Y-85100000D01*
X107749501Y-85132123D01*
X107749500Y-85132135D01*
X107749500Y-86127870D01*
X107749501Y-86127876D01*
X107755908Y-86187481D01*
X107768659Y-86221669D01*
X107773642Y-86291361D01*
X107768659Y-86308331D01*
X107755908Y-86342518D01*
X107749501Y-86402116D01*
X107749501Y-86402123D01*
X107749500Y-86402135D01*
X107749500Y-87397870D01*
X107749501Y-87397876D01*
X107755908Y-87457481D01*
X107768659Y-87491669D01*
X107773642Y-87561361D01*
X107768659Y-87578331D01*
X107755908Y-87612518D01*
X107749501Y-87672116D01*
X107749500Y-87672135D01*
X107749500Y-88667870D01*
X107749501Y-88667876D01*
X107755908Y-88727481D01*
X107768659Y-88761669D01*
X107773642Y-88831361D01*
X107768659Y-88848331D01*
X107755908Y-88882518D01*
X107749502Y-88942110D01*
X107749501Y-88942123D01*
X107749500Y-88942135D01*
X107749500Y-89937870D01*
X107749501Y-89937876D01*
X107755908Y-89997481D01*
X107768659Y-90031669D01*
X107773642Y-90101361D01*
X107768659Y-90118331D01*
X107755908Y-90152518D01*
X107749501Y-90212116D01*
X107749500Y-90212135D01*
X107749500Y-91207870D01*
X107749501Y-91207876D01*
X107755908Y-91267481D01*
X107768659Y-91301669D01*
X107773642Y-91371361D01*
X107768659Y-91388331D01*
X107755908Y-91422518D01*
X107750455Y-91473240D01*
X107749501Y-91482123D01*
X107749500Y-91482135D01*
X107749500Y-92477870D01*
X107749501Y-92477876D01*
X107755908Y-92537481D01*
X107768659Y-92571669D01*
X107773642Y-92641361D01*
X107768659Y-92658331D01*
X107755908Y-92692518D01*
X107749501Y-92752116D01*
X107749501Y-92752123D01*
X107749500Y-92752135D01*
X107749500Y-93387768D01*
X107741623Y-93414591D01*
X107736936Y-93442156D01*
X107731147Y-93450268D01*
X107729815Y-93454807D01*
X107717099Y-93471348D01*
X107715178Y-93473452D01*
X107607048Y-93581584D01*
X107586360Y-93612547D01*
X107581163Y-93620324D01*
X107581162Y-93620326D01*
X107524914Y-93704507D01*
X107468343Y-93841082D01*
X107468340Y-93841092D01*
X107439500Y-93986079D01*
X107439500Y-96251374D01*
X107419815Y-96318413D01*
X107403182Y-96339055D01*
X107274309Y-96467928D01*
X107163240Y-96620800D01*
X107077454Y-96789163D01*
X107019059Y-96968881D01*
X106989500Y-97155513D01*
X105964824Y-97155513D01*
X105819123Y-97065643D01*
X105819118Y-97065641D01*
X105652696Y-97010494D01*
X105652689Y-97010493D01*
X105549985Y-97000000D01*
X105250000Y-97000000D01*
X105250000Y-97969670D01*
X105230255Y-97949925D01*
X105144745Y-97900556D01*
X105049370Y-97875000D01*
X104950630Y-97875000D01*
X104855255Y-97900556D01*
X104769745Y-97949925D01*
X104750000Y-97969670D01*
X104750000Y-97000000D01*
X104450014Y-97000000D01*
X104347310Y-97010493D01*
X104347303Y-97010494D01*
X104180881Y-97065641D01*
X104180876Y-97065643D01*
X104031655Y-97157684D01*
X103907684Y-97281655D01*
X103815643Y-97430876D01*
X103815642Y-97430879D01*
X103763414Y-97588492D01*
X103723641Y-97645936D01*
X103659125Y-97672759D01*
X103590349Y-97660444D01*
X103539149Y-97612901D01*
X103535221Y-97605777D01*
X103529524Y-97594595D01*
X103522051Y-97584310D01*
X103413828Y-97435354D01*
X103274646Y-97296172D01*
X103115405Y-97180476D01*
X103066424Y-97155519D01*
X102940029Y-97091117D01*
X102752826Y-97030290D01*
X102558422Y-96999500D01*
X102558417Y-96999500D01*
X102361583Y-96999500D01*
X102361578Y-96999500D01*
X102167173Y-97030290D01*
X101979970Y-97091117D01*
X101804594Y-97180476D01*
X101757835Y-97214449D01*
X101645354Y-97296172D01*
X101645352Y-97296174D01*
X101645351Y-97296174D01*
X101506171Y-97435354D01*
X101496703Y-97448387D01*
X101441372Y-97491052D01*
X101396386Y-97499500D01*
X100015633Y-97499500D01*
X99948594Y-97479815D01*
X99942746Y-97475817D01*
X99939200Y-97473240D01*
X99770836Y-97387454D01*
X99591118Y-97329059D01*
X99404486Y-97299500D01*
X99404481Y-97299500D01*
X99215519Y-97299500D01*
X99215514Y-97299500D01*
X99028881Y-97329059D01*
X98849163Y-97387454D01*
X98680800Y-97473240D01*
X98644657Y-97499500D01*
X98527927Y-97584310D01*
X98527925Y-97584312D01*
X98527924Y-97584312D01*
X98394312Y-97717924D01*
X98394312Y-97717925D01*
X98394310Y-97717927D01*
X98356495Y-97769975D01*
X98283240Y-97870800D01*
X98197454Y-98039163D01*
X98139059Y-98218881D01*
X98109500Y-98405513D01*
X92892472Y-98405513D01*
X92899144Y-98382788D01*
X92905668Y-98352802D01*
X92909422Y-98347786D01*
X92910185Y-98345190D01*
X92926819Y-98324548D01*
X93062048Y-98189319D01*
X93283952Y-97967416D01*
X93333186Y-97893729D01*
X93366084Y-97844495D01*
X93422658Y-97707913D01*
X93446413Y-97588492D01*
X93451500Y-97562920D01*
X93451500Y-95610642D01*
X93471185Y-95543603D01*
X93523989Y-95497848D01*
X93593147Y-95487904D01*
X93656703Y-95516929D01*
X93674766Y-95536331D01*
X93727809Y-95607187D01*
X93727812Y-95607190D01*
X93842906Y-95693350D01*
X93842913Y-95693354D01*
X93977620Y-95743596D01*
X93977627Y-95743598D01*
X94037155Y-95749999D01*
X94037172Y-95750000D01*
X94285000Y-95750000D01*
X94285000Y-93250000D01*
X94785000Y-93250000D01*
X94785000Y-95750000D01*
X95032828Y-95750000D01*
X95032844Y-95749999D01*
X95092372Y-95743598D01*
X95092375Y-95743597D01*
X95125949Y-95731075D01*
X95195640Y-95726089D01*
X95212619Y-95731075D01*
X95247511Y-95744089D01*
X95247512Y-95744089D01*
X95247517Y-95744091D01*
X95307127Y-95750500D01*
X96302872Y-95750499D01*
X96362483Y-95744091D01*
X96396667Y-95731340D01*
X96466358Y-95726357D01*
X96483327Y-95731338D01*
X96517517Y-95744091D01*
X96577127Y-95750500D01*
X97572872Y-95750499D01*
X97632483Y-95744091D01*
X97666667Y-95731340D01*
X97736358Y-95726357D01*
X97753327Y-95731338D01*
X97787517Y-95744091D01*
X97847127Y-95750500D01*
X98842872Y-95750499D01*
X98902483Y-95744091D01*
X98936667Y-95731340D01*
X99006358Y-95726357D01*
X99023327Y-95731338D01*
X99057517Y-95744091D01*
X99117127Y-95750500D01*
X100112872Y-95750499D01*
X100172483Y-95744091D01*
X100206667Y-95731340D01*
X100276358Y-95726357D01*
X100293327Y-95731338D01*
X100327517Y-95744091D01*
X100387127Y-95750500D01*
X101382872Y-95750499D01*
X101442483Y-95744091D01*
X101476667Y-95731340D01*
X101546358Y-95726357D01*
X101563327Y-95731338D01*
X101597517Y-95744091D01*
X101657127Y-95750500D01*
X102652872Y-95750499D01*
X102712483Y-95744091D01*
X102746667Y-95731340D01*
X102816358Y-95726357D01*
X102833327Y-95731338D01*
X102867517Y-95744091D01*
X102927127Y-95750500D01*
X103922872Y-95750499D01*
X103982483Y-95744091D01*
X104016667Y-95731340D01*
X104086358Y-95726357D01*
X104103327Y-95731338D01*
X104137517Y-95744091D01*
X104197127Y-95750500D01*
X105192872Y-95750499D01*
X105252483Y-95744091D01*
X105286667Y-95731340D01*
X105356358Y-95726357D01*
X105373327Y-95731338D01*
X105407517Y-95744091D01*
X105467127Y-95750500D01*
X106462872Y-95750499D01*
X106522483Y-95744091D01*
X106657331Y-95693796D01*
X106772546Y-95607546D01*
X106858796Y-95492331D01*
X106909091Y-95357483D01*
X106915500Y-95297873D01*
X106915499Y-93702128D01*
X106909091Y-93642517D01*
X106900814Y-93620326D01*
X106858797Y-93507671D01*
X106858793Y-93507664D01*
X106772547Y-93392455D01*
X106772544Y-93392452D01*
X106657335Y-93306206D01*
X106657328Y-93306202D01*
X106522482Y-93255908D01*
X106522483Y-93255908D01*
X106462883Y-93249501D01*
X106462881Y-93249500D01*
X106462873Y-93249500D01*
X106462864Y-93249500D01*
X105467129Y-93249500D01*
X105467123Y-93249501D01*
X105407518Y-93255908D01*
X105373331Y-93268659D01*
X105303639Y-93273642D01*
X105286669Y-93268659D01*
X105269140Y-93262121D01*
X105252483Y-93255909D01*
X105252482Y-93255908D01*
X105192883Y-93249501D01*
X105192881Y-93249500D01*
X105192873Y-93249500D01*
X105192864Y-93249500D01*
X104197129Y-93249500D01*
X104197123Y-93249501D01*
X104137518Y-93255908D01*
X104103331Y-93268659D01*
X104033639Y-93273642D01*
X104016669Y-93268659D01*
X103999140Y-93262121D01*
X103982483Y-93255909D01*
X103982482Y-93255908D01*
X103922883Y-93249501D01*
X103922881Y-93249500D01*
X103922873Y-93249500D01*
X103922864Y-93249500D01*
X102927129Y-93249500D01*
X102927123Y-93249501D01*
X102867518Y-93255908D01*
X102833331Y-93268659D01*
X102763639Y-93273642D01*
X102746669Y-93268659D01*
X102729140Y-93262121D01*
X102712483Y-93255909D01*
X102712482Y-93255908D01*
X102652883Y-93249501D01*
X102652881Y-93249500D01*
X102652873Y-93249500D01*
X102652864Y-93249500D01*
X101657129Y-93249500D01*
X101657123Y-93249501D01*
X101597518Y-93255908D01*
X101563331Y-93268659D01*
X101493639Y-93273642D01*
X101476669Y-93268659D01*
X101459140Y-93262121D01*
X101442483Y-93255909D01*
X101442482Y-93255908D01*
X101382883Y-93249501D01*
X101382881Y-93249500D01*
X101382873Y-93249500D01*
X101382864Y-93249500D01*
X100387129Y-93249500D01*
X100387123Y-93249501D01*
X100327518Y-93255908D01*
X100293331Y-93268659D01*
X100223639Y-93273642D01*
X100206669Y-93268659D01*
X100189140Y-93262121D01*
X100172483Y-93255909D01*
X100172482Y-93255908D01*
X100112883Y-93249501D01*
X100112881Y-93249500D01*
X100112873Y-93249500D01*
X100112864Y-93249500D01*
X99117129Y-93249500D01*
X99117123Y-93249501D01*
X99057518Y-93255908D01*
X99023331Y-93268659D01*
X98953639Y-93273642D01*
X98936669Y-93268659D01*
X98919140Y-93262121D01*
X98902483Y-93255909D01*
X98902482Y-93255908D01*
X98842883Y-93249501D01*
X98842881Y-93249500D01*
X98842873Y-93249500D01*
X98842864Y-93249500D01*
X97847129Y-93249500D01*
X97847123Y-93249501D01*
X97787518Y-93255908D01*
X97753331Y-93268659D01*
X97683639Y-93273642D01*
X97666669Y-93268659D01*
X97649140Y-93262121D01*
X97632483Y-93255909D01*
X97632482Y-93255908D01*
X97572883Y-93249501D01*
X97572881Y-93249500D01*
X97572873Y-93249500D01*
X97572864Y-93249500D01*
X96577129Y-93249500D01*
X96577123Y-93249501D01*
X96517518Y-93255908D01*
X96483331Y-93268659D01*
X96413639Y-93273642D01*
X96396669Y-93268659D01*
X96379140Y-93262121D01*
X96362483Y-93255909D01*
X96362482Y-93255908D01*
X96302883Y-93249501D01*
X96302881Y-93249500D01*
X96302873Y-93249500D01*
X96302864Y-93249500D01*
X95307129Y-93249500D01*
X95307123Y-93249501D01*
X95247520Y-93255908D01*
X95247517Y-93255908D01*
X95247517Y-93255909D01*
X95212620Y-93268925D01*
X95212617Y-93268926D01*
X95142925Y-93273909D01*
X95125952Y-93268925D01*
X95092379Y-93256403D01*
X95092372Y-93256401D01*
X95032844Y-93250000D01*
X94785000Y-93250000D01*
X94285000Y-93250000D01*
X94037155Y-93250000D01*
X93977627Y-93256401D01*
X93977620Y-93256403D01*
X93842913Y-93306645D01*
X93842906Y-93306649D01*
X93727812Y-93392809D01*
X93674766Y-93463669D01*
X93618832Y-93505539D01*
X93549140Y-93510523D01*
X93487817Y-93477037D01*
X93454333Y-93415713D01*
X93451500Y-93389357D01*
X93451500Y-88465079D01*
X93422659Y-88320092D01*
X93422658Y-88320091D01*
X93422658Y-88320087D01*
X93366084Y-88183505D01*
X93328883Y-88127829D01*
X93328883Y-88127828D01*
X93283950Y-88060581D01*
X92810422Y-87587053D01*
X92810418Y-87587050D01*
X92810416Y-87587048D01*
X92797962Y-87578726D01*
X92753159Y-87525118D01*
X92743565Y-87462369D01*
X92744090Y-87457485D01*
X92744091Y-87457483D01*
X92750500Y-87397873D01*
X92750499Y-86402128D01*
X92744091Y-86342517D01*
X92731340Y-86308332D01*
X92726357Y-86238642D01*
X92731340Y-86221669D01*
X92744091Y-86187483D01*
X92750500Y-86127873D01*
X92750499Y-85132128D01*
X92744091Y-85072517D01*
X92731340Y-85038332D01*
X92726357Y-84968642D01*
X92731340Y-84951669D01*
X92744091Y-84917483D01*
X92750500Y-84857873D01*
X92750499Y-83862128D01*
X92744091Y-83802517D01*
X92731340Y-83768332D01*
X92726357Y-83698642D01*
X92731340Y-83681669D01*
X92744091Y-83647483D01*
X92750500Y-83587873D01*
X92750499Y-82592128D01*
X92744091Y-82532517D01*
X92731340Y-82498332D01*
X92726357Y-82428642D01*
X92731340Y-82411669D01*
X92744091Y-82377483D01*
X92750500Y-82317873D01*
X92750499Y-81322128D01*
X92744091Y-81262517D01*
X92731340Y-81228332D01*
X92726357Y-81158642D01*
X92731340Y-81141669D01*
X92744091Y-81107483D01*
X92750500Y-81047873D01*
X92750499Y-80052128D01*
X92744091Y-79992517D01*
X92731340Y-79958332D01*
X92726357Y-79888642D01*
X92731340Y-79871669D01*
X92744091Y-79837483D01*
X92750500Y-79777873D01*
X92750499Y-78782128D01*
X92744091Y-78722517D01*
X92731340Y-78688332D01*
X92726357Y-78618642D01*
X92731340Y-78601669D01*
X92744091Y-78567483D01*
X92750500Y-78507873D01*
X92750499Y-77512128D01*
X92744091Y-77452517D01*
X92731073Y-77417616D01*
X92726090Y-77347926D01*
X92731075Y-77330949D01*
X92743597Y-77297375D01*
X92743598Y-77297372D01*
X92749999Y-77237844D01*
X92750000Y-77237827D01*
X92750000Y-76990000D01*
X91624000Y-76990000D01*
X91556961Y-76970315D01*
X91511206Y-76917511D01*
X91500000Y-76866000D01*
X91500000Y-76740000D01*
X91374000Y-76740000D01*
X91306961Y-76720315D01*
X91261206Y-76667511D01*
X91250000Y-76616000D01*
X91250000Y-76490000D01*
X91750000Y-76490000D01*
X92750000Y-76490000D01*
X92750000Y-76242172D01*
X92749999Y-76242155D01*
X92743598Y-76182627D01*
X92743596Y-76182620D01*
X92693354Y-76047913D01*
X92693350Y-76047906D01*
X92607190Y-75932812D01*
X92607187Y-75932809D01*
X92492093Y-75846649D01*
X92492086Y-75846645D01*
X92357379Y-75796403D01*
X92357372Y-75796401D01*
X92297844Y-75790000D01*
X91750000Y-75790000D01*
X91750000Y-76490000D01*
X91250000Y-76490000D01*
X91250000Y-75790000D01*
X90702155Y-75790000D01*
X90642627Y-75796401D01*
X90642620Y-75796403D01*
X90507914Y-75846645D01*
X90417704Y-75914175D01*
X90405871Y-75945898D01*
X90394287Y-75959265D01*
X89650000Y-76703552D01*
X89650000Y-76697339D01*
X89622741Y-76595606D01*
X89570080Y-76504394D01*
X89495606Y-76429920D01*
X89404394Y-76377259D01*
X89302661Y-76350000D01*
X89296446Y-76350000D01*
X89975922Y-75670524D01*
X89967381Y-75664319D01*
X89924715Y-75608989D01*
X89918736Y-75539376D01*
X89951341Y-75477580D01*
X90012180Y-75443223D01*
X90040266Y-75440000D01*
X100972415Y-75440000D01*
X100974049Y-75440011D01*
X108715125Y-75542011D01*
X108781899Y-75562577D01*
X108826954Y-75615979D01*
X108835986Y-75685263D01*
X108806126Y-75748430D01*
X108746855Y-75785427D01*
X108713491Y-75790000D01*
X108202155Y-75790000D01*
X108142627Y-75796401D01*
X108142620Y-75796403D01*
X108007913Y-75846645D01*
X108007906Y-75846649D01*
X107892812Y-75932809D01*
X107892809Y-75932812D01*
X107806649Y-76047906D01*
X107806645Y-76047913D01*
X107756403Y-76182620D01*
X107756401Y-76182627D01*
X107750000Y-76242155D01*
X107750000Y-76490000D01*
X110250000Y-76490000D01*
X110250000Y-76242172D01*
X110249999Y-76242155D01*
X110243598Y-76182627D01*
X110243596Y-76182620D01*
X110193354Y-76047913D01*
X110193350Y-76047906D01*
X110107190Y-75932812D01*
X110107187Y-75932809D01*
X109992093Y-75846649D01*
X109992086Y-75846645D01*
X109861332Y-75797877D01*
X109805398Y-75756006D01*
X109780981Y-75690541D01*
X109795833Y-75622268D01*
X109845238Y-75572863D01*
X109906296Y-75557706D01*
X123877136Y-75741792D01*
X123943908Y-75762358D01*
X123988963Y-75815760D01*
X123999500Y-75865781D01*
X123999500Y-123375500D01*
X123979815Y-123442539D01*
X123927011Y-123488294D01*
X123875500Y-123499500D01*
X105553341Y-123499500D01*
X105486302Y-123479815D01*
X105440547Y-123427011D01*
X105430603Y-123357853D01*
X105447802Y-123310403D01*
X105459350Y-123291681D01*
X105534814Y-123169335D01*
X105589999Y-123002798D01*
X105600500Y-122900010D01*
X105600500Y-121099990D01*
X105589999Y-120997202D01*
X105534814Y-120830665D01*
X105442712Y-120681344D01*
X105318656Y-120557288D01*
X105183382Y-120473850D01*
X105169337Y-120465187D01*
X105169332Y-120465185D01*
X105167863Y-120464698D01*
X105002798Y-120410001D01*
X105002796Y-120410000D01*
X104900017Y-120399500D01*
X104900010Y-120399500D01*
X103099990Y-120399500D01*
X103099982Y-120399500D01*
X102997203Y-120410000D01*
X102997202Y-120410001D01*
X102914669Y-120437349D01*
X102830667Y-120465185D01*
X102830662Y-120465187D01*
X102681342Y-120557289D01*
X102557289Y-120681342D01*
X102465187Y-120830662D01*
X102465186Y-120830665D01*
X102410001Y-120997202D01*
X102410001Y-120997203D01*
X102410000Y-120997203D01*
X102399500Y-121099982D01*
X102399500Y-121526500D01*
X102379815Y-121593539D01*
X102327011Y-121639294D01*
X102275500Y-121650500D01*
X98863782Y-121650500D01*
X98796743Y-121630815D01*
X98750988Y-121578011D01*
X98741044Y-121508853D01*
X98770069Y-121445297D01*
X98776101Y-121438819D01*
X99657632Y-120557289D01*
X100703102Y-119511819D01*
X100764425Y-119478334D01*
X100790783Y-119475500D01*
X101025753Y-119475500D01*
X101025758Y-119475500D01*
X101128435Y-119465010D01*
X101294794Y-119409885D01*
X101443956Y-119317880D01*
X101567880Y-119193956D01*
X101659885Y-119044794D01*
X101715010Y-118878435D01*
X101725500Y-118775758D01*
X101725500Y-117774242D01*
X101715010Y-117671565D01*
X101659885Y-117505206D01*
X101659881Y-117505200D01*
X101659880Y-117505197D01*
X101567882Y-117356047D01*
X101567879Y-117356043D01*
X101443956Y-117232120D01*
X101443952Y-117232117D01*
X101294802Y-117140119D01*
X101294796Y-117140116D01*
X101294794Y-117140115D01*
X101128435Y-117084990D01*
X101025765Y-117074500D01*
X101025758Y-117074500D01*
X101008693Y-117074500D01*
X100941654Y-117054815D01*
X100895899Y-117002011D01*
X100885955Y-116932853D01*
X100914980Y-116869297D01*
X100970374Y-116832569D01*
X100985832Y-116827547D01*
X101154199Y-116741760D01*
X101307073Y-116630690D01*
X101440690Y-116497073D01*
X101551760Y-116344199D01*
X101637547Y-116175832D01*
X101695940Y-115996118D01*
X101696437Y-115992977D01*
X101725500Y-115809486D01*
X101725500Y-115620513D01*
X101695940Y-115433881D01*
X101661925Y-115329196D01*
X101637547Y-115254168D01*
X101637545Y-115254165D01*
X101637545Y-115254163D01*
X101571079Y-115123717D01*
X101551760Y-115085801D01*
X101440690Y-114932927D01*
X101307073Y-114799310D01*
X101154199Y-114688240D01*
X100985836Y-114602454D01*
X100806118Y-114544059D01*
X100619486Y-114514500D01*
X100619481Y-114514500D01*
X100430519Y-114514500D01*
X100430514Y-114514500D01*
X100243881Y-114544059D01*
X100064163Y-114602454D01*
X99895800Y-114688240D01*
X99824741Y-114739868D01*
X99742927Y-114799310D01*
X99742925Y-114799312D01*
X99742924Y-114799312D01*
X99609312Y-114932924D01*
X99609312Y-114932925D01*
X99609310Y-114932927D01*
X99569224Y-114988100D01*
X99498240Y-115085800D01*
X99412454Y-115254165D01*
X99354059Y-115433884D01*
X99353372Y-115438223D01*
X99323437Y-115501356D01*
X99318581Y-115506497D01*
X97674399Y-117150681D01*
X97613076Y-117184166D01*
X97586718Y-117187000D01*
X96359168Y-117187000D01*
X96292129Y-117167315D01*
X96246374Y-117114511D01*
X96236354Y-117045892D01*
X96237590Y-117037014D01*
X96247598Y-117002569D01*
X96250500Y-116965694D01*
X96250500Y-116944340D01*
X96251686Y-116935826D01*
X96262666Y-116911499D01*
X96270185Y-116885895D01*
X96271398Y-116884043D01*
X96283395Y-116866088D01*
X96336632Y-116786414D01*
X96412051Y-116604335D01*
X96437594Y-116475922D01*
X96450500Y-116411043D01*
X96450500Y-115075781D01*
X96470185Y-115008742D01*
X96486814Y-114988105D01*
X99268501Y-112206417D01*
X99329822Y-112172934D01*
X99336776Y-112171627D01*
X99341118Y-112170940D01*
X99520832Y-112112547D01*
X99689199Y-112026760D01*
X99842073Y-111915690D01*
X99975690Y-111782073D01*
X100025121Y-111714038D01*
X102399500Y-111714038D01*
X102399500Y-111965962D01*
X102422319Y-112110032D01*
X102438910Y-112214785D01*
X102516760Y-112454383D01*
X102574848Y-112568386D01*
X102627102Y-112670940D01*
X102631132Y-112678848D01*
X102779201Y-112882649D01*
X102779205Y-112882654D01*
X102957345Y-113060794D01*
X102957350Y-113060798D01*
X103076890Y-113147648D01*
X103161155Y-113208870D01*
X103304184Y-113281747D01*
X103385616Y-113323239D01*
X103385618Y-113323239D01*
X103385621Y-113323241D01*
X103625215Y-113401090D01*
X103874038Y-113440500D01*
X103874039Y-113440500D01*
X104130834Y-113440500D01*
X104130834Y-113442030D01*
X104192577Y-113454976D01*
X104221651Y-113476571D01*
X108226209Y-117481130D01*
X108259694Y-117542453D01*
X108254710Y-117612145D01*
X108226212Y-117656490D01*
X108196148Y-117686555D01*
X108058061Y-117866514D01*
X108058050Y-117866530D01*
X107944635Y-118062969D01*
X107944630Y-118062980D01*
X107857820Y-118272557D01*
X107799108Y-118491673D01*
X107769501Y-118716566D01*
X107769500Y-118716583D01*
X107769500Y-119283416D01*
X107769501Y-119283433D01*
X107799108Y-119508326D01*
X107857820Y-119727442D01*
X107944630Y-119937019D01*
X107944635Y-119937030D01*
X108058050Y-120133469D01*
X108058061Y-120133485D01*
X108196148Y-120313444D01*
X108196154Y-120313451D01*
X108356548Y-120473845D01*
X108356554Y-120473850D01*
X108536523Y-120611945D01*
X108536530Y-120611949D01*
X108732969Y-120725364D01*
X108732974Y-120725366D01*
X108732977Y-120725368D01*
X108942556Y-120812179D01*
X109161672Y-120870891D01*
X109386577Y-120900500D01*
X109386584Y-120900500D01*
X109613416Y-120900500D01*
X109613423Y-120900500D01*
X109838328Y-120870891D01*
X110057444Y-120812179D01*
X110267023Y-120725368D01*
X110463477Y-120611945D01*
X110643446Y-120473850D01*
X110803850Y-120313446D01*
X110941945Y-120133477D01*
X111055368Y-119937023D01*
X111142179Y-119727444D01*
X111200891Y-119508328D01*
X111230500Y-119283423D01*
X111230500Y-118716583D01*
X111729500Y-118716583D01*
X111729500Y-119283416D01*
X111729501Y-119283433D01*
X111759108Y-119508326D01*
X111817820Y-119727442D01*
X111904630Y-119937019D01*
X111904635Y-119937030D01*
X112018050Y-120133469D01*
X112018061Y-120133485D01*
X112156148Y-120313444D01*
X112156154Y-120313451D01*
X112316548Y-120473845D01*
X112316554Y-120473850D01*
X112496523Y-120611945D01*
X112496530Y-120611949D01*
X112692969Y-120725364D01*
X112692974Y-120725366D01*
X112692977Y-120725368D01*
X112902556Y-120812179D01*
X113121672Y-120870891D01*
X113346577Y-120900500D01*
X113346584Y-120900500D01*
X113573416Y-120900500D01*
X113573423Y-120900500D01*
X113798328Y-120870891D01*
X114017444Y-120812179D01*
X114227023Y-120725368D01*
X114423477Y-120611945D01*
X114603446Y-120473850D01*
X114763850Y-120313446D01*
X114901945Y-120133477D01*
X115015368Y-119937023D01*
X115102179Y-119727444D01*
X115160891Y-119508328D01*
X115190500Y-119283423D01*
X115190500Y-118716577D01*
X115160891Y-118491672D01*
X115102179Y-118272556D01*
X115028080Y-118093666D01*
X115015372Y-118062986D01*
X115013578Y-118059349D01*
X115013816Y-118059231D01*
X115013815Y-118059227D01*
X115013879Y-118059200D01*
X115015117Y-118058589D01*
X115012948Y-118050490D01*
X115005523Y-118038935D01*
X115000500Y-118004000D01*
X115000500Y-117800013D01*
X115690000Y-117800013D01*
X115690000Y-118750000D01*
X116552096Y-118750000D01*
X116520000Y-118911358D01*
X116520000Y-119088642D01*
X116552096Y-119250000D01*
X115690001Y-119250000D01*
X115690001Y-120199986D01*
X115700494Y-120302697D01*
X115755641Y-120469119D01*
X115755643Y-120469124D01*
X115847684Y-120618345D01*
X115971654Y-120742315D01*
X116120875Y-120834356D01*
X116120880Y-120834358D01*
X116287302Y-120889505D01*
X116287309Y-120889506D01*
X116390019Y-120899999D01*
X117169999Y-120899999D01*
X117170000Y-120899998D01*
X117170000Y-119867904D01*
X117331358Y-119900000D01*
X117508642Y-119900000D01*
X117670000Y-119867904D01*
X117670000Y-120899999D01*
X118449972Y-120899999D01*
X118449986Y-120899998D01*
X118552697Y-120889505D01*
X118719119Y-120834358D01*
X118719124Y-120834356D01*
X118868345Y-120742315D01*
X118992315Y-120618345D01*
X119084356Y-120469124D01*
X119084358Y-120469119D01*
X119139505Y-120302697D01*
X119139506Y-120302690D01*
X119149999Y-120199986D01*
X119150000Y-120199973D01*
X119150000Y-119250000D01*
X118287904Y-119250000D01*
X118320000Y-119088642D01*
X118320000Y-118911358D01*
X118287904Y-118750000D01*
X119149999Y-118750000D01*
X119149999Y-117800028D01*
X119149998Y-117800013D01*
X119139505Y-117697302D01*
X119084358Y-117530880D01*
X119084356Y-117530875D01*
X118992315Y-117381654D01*
X118868345Y-117257684D01*
X118719124Y-117165643D01*
X118719119Y-117165641D01*
X118552697Y-117110494D01*
X118552690Y-117110493D01*
X118449986Y-117100000D01*
X117670000Y-117100000D01*
X117670000Y-118132095D01*
X117508642Y-118100000D01*
X117331358Y-118100000D01*
X117170000Y-118132095D01*
X117170000Y-117100000D01*
X116390028Y-117100000D01*
X116390012Y-117100001D01*
X116287302Y-117110494D01*
X116120880Y-117165641D01*
X116120875Y-117165643D01*
X115971654Y-117257684D01*
X115847684Y-117381654D01*
X115755643Y-117530875D01*
X115755641Y-117530880D01*
X115700494Y-117697302D01*
X115700493Y-117697309D01*
X115690000Y-117800013D01*
X115000500Y-117800013D01*
X115000500Y-115646530D01*
X117869500Y-115646530D01*
X117869500Y-115853469D01*
X117909868Y-116056412D01*
X117909870Y-116056420D01*
X117989059Y-116247598D01*
X118046541Y-116333626D01*
X118104024Y-116419657D01*
X118250342Y-116565975D01*
X118250345Y-116565977D01*
X118422402Y-116680941D01*
X118613580Y-116760130D01*
X118745745Y-116786419D01*
X118816530Y-116800499D01*
X118816534Y-116800500D01*
X118816535Y-116800500D01*
X119023466Y-116800500D01*
X119023467Y-116800499D01*
X119226420Y-116760130D01*
X119417598Y-116680941D01*
X119589655Y-116565977D01*
X119735977Y-116419655D01*
X119850941Y-116247598D01*
X119930130Y-116056420D01*
X119970500Y-115853465D01*
X119970500Y-115646535D01*
X119930130Y-115443580D01*
X119850941Y-115252402D01*
X119735977Y-115080345D01*
X119735975Y-115080342D01*
X119589657Y-114934024D01*
X119503626Y-114876541D01*
X119417598Y-114819059D01*
X119226420Y-114739870D01*
X119226412Y-114739868D01*
X119023469Y-114699500D01*
X119023465Y-114699500D01*
X118816535Y-114699500D01*
X118816530Y-114699500D01*
X118613587Y-114739868D01*
X118613579Y-114739870D01*
X118422403Y-114819058D01*
X118250342Y-114934024D01*
X118104024Y-115080342D01*
X117989058Y-115252403D01*
X117909870Y-115443579D01*
X117909868Y-115443587D01*
X117869500Y-115646530D01*
X115000500Y-115646530D01*
X115000500Y-111643962D01*
X115020185Y-111576923D01*
X115039623Y-111554650D01*
X115039211Y-111554238D01*
X115128235Y-111465214D01*
X115220793Y-111372656D01*
X115368870Y-111168845D01*
X115483241Y-110944379D01*
X115561090Y-110704785D01*
X115600500Y-110455962D01*
X115600500Y-110204038D01*
X115561090Y-109955215D01*
X115483241Y-109715621D01*
X115483239Y-109715618D01*
X115483239Y-109715616D01*
X115430487Y-109612085D01*
X115368870Y-109491155D01*
X115299152Y-109395196D01*
X115220798Y-109287350D01*
X115220794Y-109287345D01*
X115042654Y-109109205D01*
X115042649Y-109109201D01*
X114838848Y-108961132D01*
X114838847Y-108961131D01*
X114838845Y-108961130D01*
X114768747Y-108925413D01*
X114614383Y-108846760D01*
X114374785Y-108768910D01*
X114125962Y-108729500D01*
X113874038Y-108729500D01*
X113749626Y-108749205D01*
X113625214Y-108768910D01*
X113385616Y-108846760D01*
X113161151Y-108961132D01*
X112957350Y-109109201D01*
X112957345Y-109109205D01*
X112779205Y-109287345D01*
X112779201Y-109287350D01*
X112631132Y-109491151D01*
X112516760Y-109715616D01*
X112438910Y-109955214D01*
X112438910Y-109955215D01*
X112399500Y-110204038D01*
X112399500Y-110455962D01*
X112419829Y-110584312D01*
X112438910Y-110704785D01*
X112516760Y-110944383D01*
X112631132Y-111168848D01*
X112779201Y-111372649D01*
X112779205Y-111372654D01*
X112960789Y-111554238D01*
X112959714Y-111555312D01*
X112994225Y-111608180D01*
X112999500Y-111643962D01*
X112999500Y-117066696D01*
X112979815Y-117133735D01*
X112927011Y-117179490D01*
X112907599Y-117186469D01*
X112902563Y-117187818D01*
X112902559Y-117187819D01*
X112692980Y-117274630D01*
X112692969Y-117274635D01*
X112496530Y-117388050D01*
X112496514Y-117388061D01*
X112316555Y-117526148D01*
X112316548Y-117526154D01*
X112156154Y-117686548D01*
X112156148Y-117686555D01*
X112018061Y-117866514D01*
X112018050Y-117866530D01*
X111904635Y-118062969D01*
X111904630Y-118062980D01*
X111817820Y-118272557D01*
X111759108Y-118491673D01*
X111729501Y-118716566D01*
X111729500Y-118716583D01*
X111230500Y-118716583D01*
X111230500Y-118716577D01*
X111200891Y-118491672D01*
X111142179Y-118272556D01*
X111055368Y-118062977D01*
X111055366Y-118062974D01*
X111055364Y-118062969D01*
X110941949Y-117866530D01*
X110941945Y-117866523D01*
X110824594Y-117713588D01*
X110803851Y-117686555D01*
X110803845Y-117686548D01*
X110643451Y-117526154D01*
X110643441Y-117526146D01*
X110549014Y-117453688D01*
X110507812Y-117397260D01*
X110500501Y-117355313D01*
X110500501Y-117241457D01*
X110500500Y-117241455D01*
X110489668Y-117187000D01*
X110462052Y-117048165D01*
X110386632Y-116866086D01*
X110386631Y-116866085D01*
X110386628Y-116866079D01*
X110277140Y-116702219D01*
X110277137Y-116702215D01*
X106255084Y-112680164D01*
X106206147Y-112631227D01*
X108922323Y-112631227D01*
X108947302Y-112639505D01*
X108947309Y-112639506D01*
X109050019Y-112649999D01*
X111449971Y-112649999D01*
X111449987Y-112649998D01*
X111552693Y-112639506D01*
X111577675Y-112631227D01*
X110250000Y-111303552D01*
X108922323Y-112631227D01*
X106206147Y-112631227D01*
X105636571Y-112061651D01*
X105603086Y-112000328D01*
X105601088Y-111970834D01*
X105600500Y-111970834D01*
X105600500Y-111714038D01*
X105587710Y-111633288D01*
X105561090Y-111465215D01*
X105483241Y-111225621D01*
X105483239Y-111225618D01*
X105483239Y-111225616D01*
X105416422Y-111094481D01*
X105368870Y-111001155D01*
X105274162Y-110870800D01*
X105220798Y-110797350D01*
X105220794Y-110797345D01*
X105042654Y-110619205D01*
X105042649Y-110619201D01*
X104838848Y-110471132D01*
X104838847Y-110471131D01*
X104838845Y-110471130D01*
X104768747Y-110435413D01*
X104614383Y-110356760D01*
X104374785Y-110278910D01*
X104125962Y-110239500D01*
X103874038Y-110239500D01*
X103749626Y-110259205D01*
X103625214Y-110278910D01*
X103385616Y-110356760D01*
X103161151Y-110471132D01*
X102957350Y-110619201D01*
X102957345Y-110619205D01*
X102779205Y-110797345D01*
X102779201Y-110797350D01*
X102631132Y-111001151D01*
X102516760Y-111225616D01*
X102438910Y-111465214D01*
X102411816Y-111636279D01*
X102399500Y-111714038D01*
X100025121Y-111714038D01*
X100086760Y-111629199D01*
X100172547Y-111460832D01*
X100230940Y-111281118D01*
X100240797Y-111218882D01*
X100260500Y-111094486D01*
X100260500Y-110905513D01*
X100230940Y-110718881D01*
X100198551Y-110619201D01*
X100172547Y-110539168D01*
X100172545Y-110539165D01*
X100172545Y-110539163D01*
X100127290Y-110450347D01*
X100086760Y-110370801D01*
X99975690Y-110217927D01*
X99975681Y-110217918D01*
X99972526Y-110214223D01*
X99973653Y-110213259D01*
X99962115Y-110192128D01*
X99945523Y-110166310D01*
X99944631Y-110160109D01*
X99943334Y-110157733D01*
X99940500Y-110131375D01*
X99940500Y-109950013D01*
X108350000Y-109950013D01*
X108350000Y-111949971D01*
X108350001Y-111949987D01*
X108360494Y-112052697D01*
X108415641Y-112219119D01*
X108415643Y-112219124D01*
X108496398Y-112350048D01*
X109896448Y-110950000D01*
X109896447Y-110949999D01*
X110603552Y-110949999D01*
X110603552Y-110950000D01*
X112003599Y-112350048D01*
X112003601Y-112350048D01*
X112084356Y-112219124D01*
X112084358Y-112219119D01*
X112139505Y-112052697D01*
X112139506Y-112052690D01*
X112149999Y-111949986D01*
X112149999Y-109950028D01*
X112149998Y-109950012D01*
X112139505Y-109847302D01*
X112084358Y-109680880D01*
X112084356Y-109680875D01*
X112003600Y-109549950D01*
X110603552Y-110949999D01*
X109896447Y-110949999D01*
X108496398Y-109549950D01*
X108496397Y-109549950D01*
X108415645Y-109680871D01*
X108415641Y-109680880D01*
X108360494Y-109847302D01*
X108360493Y-109847309D01*
X108350000Y-109950013D01*
X99940500Y-109950013D01*
X99940500Y-109507882D01*
X105905669Y-109507882D01*
X105905670Y-109507883D01*
X105931059Y-109526329D01*
X106099362Y-109612085D01*
X106278997Y-109670451D01*
X106465553Y-109700000D01*
X106654447Y-109700000D01*
X106841002Y-109670451D01*
X107020637Y-109612085D01*
X107188937Y-109526331D01*
X107214328Y-109507883D01*
X107214328Y-109507882D01*
X107101642Y-109395196D01*
X106975217Y-109268771D01*
X108922322Y-109268771D01*
X110250000Y-110596448D01*
X110250001Y-110596448D01*
X111577675Y-109268771D01*
X111552694Y-109260493D01*
X111449979Y-109250000D01*
X109050028Y-109250000D01*
X109050012Y-109250001D01*
X108947308Y-109260493D01*
X108947299Y-109260495D01*
X108922322Y-109268771D01*
X106975217Y-109268771D01*
X106560001Y-108853554D01*
X106560000Y-108853554D01*
X105905669Y-109507882D01*
X99940500Y-109507882D01*
X99940500Y-109205632D01*
X99960185Y-109138593D01*
X99964177Y-109132753D01*
X99966760Y-109129199D01*
X100052547Y-108960832D01*
X100110940Y-108781118D01*
X100112874Y-108768910D01*
X100140500Y-108594486D01*
X100140500Y-108405552D01*
X105360000Y-108405552D01*
X105360000Y-108594447D01*
X105389548Y-108781002D01*
X105447914Y-108960637D01*
X105533666Y-109128933D01*
X105552116Y-109154328D01*
X106206446Y-108500000D01*
X106206446Y-108499999D01*
X106160369Y-108453922D01*
X106210000Y-108453922D01*
X106210000Y-108546078D01*
X106233852Y-108635095D01*
X106279930Y-108714905D01*
X106345095Y-108780070D01*
X106424905Y-108826148D01*
X106513922Y-108850000D01*
X106606078Y-108850000D01*
X106695095Y-108826148D01*
X106774905Y-108780070D01*
X106840070Y-108714905D01*
X106886148Y-108635095D01*
X106910000Y-108546078D01*
X106910000Y-108499999D01*
X106913554Y-108499999D01*
X106913554Y-108500000D01*
X107567882Y-109154328D01*
X107567883Y-109154328D01*
X107586331Y-109128937D01*
X107672085Y-108960637D01*
X107730451Y-108781002D01*
X107760000Y-108594447D01*
X107760000Y-108405552D01*
X107730451Y-108218997D01*
X107672085Y-108039362D01*
X107586329Y-107871059D01*
X107567883Y-107845670D01*
X107567882Y-107845669D01*
X106913554Y-108499999D01*
X106910000Y-108499999D01*
X106910000Y-108453922D01*
X106886148Y-108364905D01*
X106840070Y-108285095D01*
X106774905Y-108219930D01*
X106695095Y-108173852D01*
X106606078Y-108150000D01*
X106513922Y-108150000D01*
X106424905Y-108173852D01*
X106345095Y-108219930D01*
X106279930Y-108285095D01*
X106233852Y-108364905D01*
X106210000Y-108453922D01*
X106160369Y-108453922D01*
X105552116Y-107845669D01*
X105552116Y-107845670D01*
X105533669Y-107871060D01*
X105447914Y-108039362D01*
X105389548Y-108218997D01*
X105360000Y-108405552D01*
X100140500Y-108405552D01*
X100140500Y-108405513D01*
X100110940Y-108218881D01*
X100073077Y-108102352D01*
X100052547Y-108039168D01*
X100052545Y-108039165D01*
X100052545Y-108039163D01*
X99980439Y-107897648D01*
X99966760Y-107870801D01*
X99855690Y-107717927D01*
X99722073Y-107584310D01*
X99595179Y-107492116D01*
X105905669Y-107492116D01*
X106560000Y-108146446D01*
X106560001Y-108146446D01*
X107214328Y-107492116D01*
X107188933Y-107473666D01*
X107020637Y-107387914D01*
X106841002Y-107329548D01*
X106654447Y-107300000D01*
X106465553Y-107300000D01*
X106278997Y-107329548D01*
X106099362Y-107387914D01*
X105931060Y-107473669D01*
X105905670Y-107492116D01*
X105905669Y-107492116D01*
X99595179Y-107492116D01*
X99569199Y-107473240D01*
X99400836Y-107387454D01*
X99221118Y-107329059D01*
X99034486Y-107299500D01*
X99034481Y-107299500D01*
X98845519Y-107299500D01*
X98845514Y-107299500D01*
X98658881Y-107329059D01*
X98479163Y-107387454D01*
X98310800Y-107473240D01*
X98272901Y-107500776D01*
X98157927Y-107584310D01*
X98157925Y-107584312D01*
X98157924Y-107584312D01*
X98024312Y-107717924D01*
X98024312Y-107717925D01*
X98024310Y-107717927D01*
X97976610Y-107783579D01*
X97913240Y-107870800D01*
X97827454Y-108039163D01*
X97769059Y-108218881D01*
X97739500Y-108405513D01*
X97739500Y-108594486D01*
X97769059Y-108781118D01*
X97827454Y-108960836D01*
X97913239Y-109129198D01*
X97913240Y-109129199D01*
X97915814Y-109132742D01*
X97939297Y-109198546D01*
X97939500Y-109205632D01*
X97939500Y-110544004D01*
X97939308Y-110545268D01*
X97939485Y-110545906D01*
X97936377Y-110564600D01*
X97933927Y-110580760D01*
X97933678Y-110581561D01*
X97889060Y-110718882D01*
X97886976Y-110732034D01*
X97884327Y-110740572D01*
X97869733Y-110762532D01*
X97858437Y-110786356D01*
X97853581Y-110791497D01*
X96295031Y-112350048D01*
X94812221Y-113832858D01*
X94812218Y-113832861D01*
X94742538Y-113902540D01*
X94672859Y-113972219D01*
X94563371Y-114136079D01*
X94563364Y-114136092D01*
X94487950Y-114318160D01*
X94487947Y-114318170D01*
X94449500Y-114511456D01*
X94449500Y-115262157D01*
X94429815Y-115329196D01*
X94377011Y-115374951D01*
X94307853Y-115384895D01*
X94244297Y-115355870D01*
X94218769Y-115325279D01*
X94217687Y-115323449D01*
X94217678Y-115323438D01*
X94101561Y-115207321D01*
X94101552Y-115207314D01*
X93960196Y-115123717D01*
X93960193Y-115123716D01*
X93802494Y-115077900D01*
X93802497Y-115077900D01*
X93800000Y-115077703D01*
X93800000Y-117218184D01*
X93782733Y-117281304D01*
X93748254Y-117339605D01*
X93748254Y-117339606D01*
X93702402Y-117497426D01*
X93702401Y-117497432D01*
X93699500Y-117534298D01*
X93699500Y-117547065D01*
X93679815Y-117614104D01*
X93678602Y-117615956D01*
X93613366Y-117713588D01*
X93537950Y-117895660D01*
X93537947Y-117895670D01*
X93499500Y-118088956D01*
X93499500Y-118088959D01*
X93499500Y-118286041D01*
X93499500Y-118286043D01*
X93499499Y-118286043D01*
X93537947Y-118479329D01*
X93537950Y-118479339D01*
X93613364Y-118661407D01*
X93613371Y-118661419D01*
X93678602Y-118759043D01*
X93699480Y-118825720D01*
X93699500Y-118827934D01*
X93699500Y-118840701D01*
X93702401Y-118877567D01*
X93702402Y-118877573D01*
X93748254Y-119035393D01*
X93748255Y-119035396D01*
X93748256Y-119035398D01*
X93771039Y-119073922D01*
X93831917Y-119176862D01*
X93831923Y-119176870D01*
X93948129Y-119293076D01*
X93948133Y-119293079D01*
X93948135Y-119293081D01*
X94089602Y-119376744D01*
X94131224Y-119388836D01*
X94247426Y-119422597D01*
X94247429Y-119422597D01*
X94247431Y-119422598D01*
X94284306Y-119425500D01*
X94284314Y-119425500D01*
X94715686Y-119425500D01*
X94715694Y-119425500D01*
X94752569Y-119422598D01*
X94752571Y-119422597D01*
X94752573Y-119422597D01*
X94831449Y-119399681D01*
X94910398Y-119376744D01*
X95051865Y-119293081D01*
X95120628Y-119224317D01*
X95181949Y-119190834D01*
X95208308Y-119188000D01*
X97897717Y-119188000D01*
X97964756Y-119207685D01*
X98010511Y-119260489D01*
X98020455Y-119329647D01*
X97991430Y-119393203D01*
X97985398Y-119399681D01*
X97171899Y-120213181D01*
X97110576Y-120246666D01*
X97084218Y-120249500D01*
X95015633Y-120249500D01*
X94948594Y-120229815D01*
X94942746Y-120225817D01*
X94939200Y-120223240D01*
X94770836Y-120137454D01*
X94591118Y-120079059D01*
X94404486Y-120049500D01*
X94404481Y-120049500D01*
X94215519Y-120049500D01*
X94215514Y-120049500D01*
X94028881Y-120079059D01*
X93849163Y-120137454D01*
X93680800Y-120223240D01*
X93644657Y-120249500D01*
X93527927Y-120334310D01*
X93527925Y-120334312D01*
X93527924Y-120334312D01*
X93394312Y-120467924D01*
X93394312Y-120467925D01*
X93394310Y-120467927D01*
X93390007Y-120473850D01*
X93283240Y-120620800D01*
X93197454Y-120789163D01*
X93139059Y-120968881D01*
X93109500Y-121155513D01*
X93109500Y-121344486D01*
X93135256Y-121507102D01*
X93126301Y-121576395D01*
X93081305Y-121629847D01*
X93014554Y-121650487D01*
X93012783Y-121650500D01*
X88556782Y-121650500D01*
X88489743Y-121630815D01*
X88469101Y-121614181D01*
X87896419Y-121041499D01*
X87862934Y-120980176D01*
X87861626Y-120973212D01*
X87860940Y-120968884D01*
X87860940Y-120968882D01*
X87802547Y-120789168D01*
X87802545Y-120789165D01*
X87802545Y-120789163D01*
X87716757Y-120620796D01*
X87714179Y-120617247D01*
X87690702Y-120551439D01*
X87690500Y-120544366D01*
X87690500Y-120127882D01*
X88345669Y-120127882D01*
X88345670Y-120127883D01*
X88371059Y-120146329D01*
X88539362Y-120232085D01*
X88718997Y-120290451D01*
X88905553Y-120320000D01*
X89094447Y-120320000D01*
X89281002Y-120290451D01*
X89460637Y-120232085D01*
X89628937Y-120146331D01*
X89654328Y-120127883D01*
X89654328Y-120127882D01*
X89000001Y-119473554D01*
X89000000Y-119473554D01*
X88345669Y-120127882D01*
X87690500Y-120127882D01*
X87690500Y-119908215D01*
X87710185Y-119841176D01*
X87714173Y-119835341D01*
X87774992Y-119751631D01*
X87830321Y-119708968D01*
X87899934Y-119702989D01*
X87961729Y-119735595D01*
X87975627Y-119751634D01*
X87992115Y-119774328D01*
X87992116Y-119774328D01*
X88646446Y-119120000D01*
X88646446Y-119119999D01*
X88600369Y-119073922D01*
X88650000Y-119073922D01*
X88650000Y-119166078D01*
X88673852Y-119255095D01*
X88719930Y-119334905D01*
X88785095Y-119400070D01*
X88864905Y-119446148D01*
X88953922Y-119470000D01*
X89046078Y-119470000D01*
X89135095Y-119446148D01*
X89214905Y-119400070D01*
X89280070Y-119334905D01*
X89326148Y-119255095D01*
X89350000Y-119166078D01*
X89350000Y-119119999D01*
X89353554Y-119119999D01*
X89353554Y-119120000D01*
X90007882Y-119774328D01*
X90007883Y-119774328D01*
X90026331Y-119748937D01*
X90112085Y-119580637D01*
X90170451Y-119401002D01*
X90200000Y-119214447D01*
X90200000Y-119025552D01*
X90170451Y-118838997D01*
X90112085Y-118659362D01*
X90026329Y-118491059D01*
X90007883Y-118465670D01*
X90007882Y-118465669D01*
X89353554Y-119119999D01*
X89350000Y-119119999D01*
X89350000Y-119073922D01*
X89326148Y-118984905D01*
X89280070Y-118905095D01*
X89214905Y-118839930D01*
X89135095Y-118793852D01*
X89046078Y-118770000D01*
X88953922Y-118770000D01*
X88864905Y-118793852D01*
X88785095Y-118839930D01*
X88719930Y-118905095D01*
X88673852Y-118984905D01*
X88650000Y-119073922D01*
X88600369Y-119073922D01*
X87992116Y-118465669D01*
X87992115Y-118465670D01*
X87975629Y-118488363D01*
X87920300Y-118531030D01*
X87850686Y-118537011D01*
X87788891Y-118504406D01*
X87774991Y-118488366D01*
X87729885Y-118426283D01*
X87665690Y-118337927D01*
X87532073Y-118204310D01*
X87405179Y-118112116D01*
X88345669Y-118112116D01*
X89000000Y-118766446D01*
X89000001Y-118766446D01*
X89654328Y-118112116D01*
X89628933Y-118093666D01*
X89460637Y-118007914D01*
X89281002Y-117949548D01*
X89094447Y-117920000D01*
X88905553Y-117920000D01*
X88718997Y-117949548D01*
X88539362Y-118007914D01*
X88371060Y-118093669D01*
X88345670Y-118112116D01*
X88345669Y-118112116D01*
X87405179Y-118112116D01*
X87379199Y-118093240D01*
X87370791Y-118088956D01*
X87210836Y-118007454D01*
X87031118Y-117949059D01*
X86844486Y-117919500D01*
X86844481Y-117919500D01*
X86655519Y-117919500D01*
X86655514Y-117919500D01*
X86468881Y-117949059D01*
X86289163Y-118007454D01*
X86120800Y-118093240D01*
X86063893Y-118134586D01*
X85967927Y-118204310D01*
X85967925Y-118204312D01*
X85967924Y-118204312D01*
X85834312Y-118337924D01*
X85834312Y-118337925D01*
X85834310Y-118337927D01*
X85786610Y-118403579D01*
X85723240Y-118490800D01*
X85637454Y-118659163D01*
X85579059Y-118838881D01*
X85549500Y-119025513D01*
X85549500Y-119214486D01*
X85579059Y-119401118D01*
X85637454Y-119580836D01*
X85675985Y-119656455D01*
X85689500Y-119712750D01*
X85689500Y-120544366D01*
X85669815Y-120611405D01*
X85665821Y-120617247D01*
X85663242Y-120620796D01*
X85577454Y-120789163D01*
X85519059Y-120968881D01*
X85489500Y-121155513D01*
X85489500Y-121344486D01*
X85519059Y-121531118D01*
X85577454Y-121710836D01*
X85663240Y-121879199D01*
X85774310Y-122032073D01*
X85907927Y-122165690D01*
X86060801Y-122276760D01*
X86140347Y-122317290D01*
X86229163Y-122362545D01*
X86229165Y-122362545D01*
X86229168Y-122362547D01*
X86408882Y-122420940D01*
X86411177Y-122421303D01*
X86413212Y-122421626D01*
X86476348Y-122451554D01*
X86481499Y-122456419D01*
X87311857Y-123286777D01*
X87312938Y-123287859D01*
X87313971Y-123289753D01*
X87316374Y-123291681D01*
X87316388Y-123291697D01*
X87315469Y-123292500D01*
X87329923Y-123318999D01*
X87346382Y-123349142D01*
X87346379Y-123349172D01*
X87346394Y-123349198D01*
X87343901Y-123383820D01*
X87341398Y-123418834D01*
X87341380Y-123418857D01*
X87341378Y-123418887D01*
X87320360Y-123446935D01*
X87299526Y-123474767D01*
X87299498Y-123474777D01*
X87299481Y-123474801D01*
X87266785Y-123486978D01*
X87234062Y-123499184D01*
X87234010Y-123499185D01*
X87234005Y-123499188D01*
X87233997Y-123499186D01*
X87225216Y-123499500D01*
X82624500Y-123499500D01*
X82557461Y-123479815D01*
X82511706Y-123427011D01*
X82500500Y-123375500D01*
X82500500Y-95372110D01*
X83125000Y-95372110D01*
X83125000Y-95627889D01*
X83165013Y-95880523D01*
X83244051Y-96123781D01*
X83244052Y-96123784D01*
X83360175Y-96351686D01*
X83437850Y-96458595D01*
X83437850Y-96458596D01*
X84148958Y-95747488D01*
X84173978Y-95807890D01*
X84245112Y-95914351D01*
X84335649Y-96004888D01*
X84442110Y-96076022D01*
X84502510Y-96101041D01*
X83791402Y-96812148D01*
X83898313Y-96889824D01*
X84126215Y-97005947D01*
X84126218Y-97005948D01*
X84369476Y-97084986D01*
X84622111Y-97125000D01*
X84877889Y-97125000D01*
X85130523Y-97084986D01*
X85373781Y-97005948D01*
X85373784Y-97005947D01*
X85601685Y-96889825D01*
X85708595Y-96812148D01*
X85708596Y-96812148D01*
X84997488Y-96101041D01*
X85057890Y-96076022D01*
X85164351Y-96004888D01*
X85254888Y-95914351D01*
X85326022Y-95807890D01*
X85351041Y-95747489D01*
X86062148Y-96458596D01*
X86062148Y-96458595D01*
X86139825Y-96351685D01*
X86255947Y-96123784D01*
X86255948Y-96123781D01*
X86334986Y-95880523D01*
X86375000Y-95627889D01*
X86375000Y-95372110D01*
X86334986Y-95119476D01*
X86255948Y-94876218D01*
X86255947Y-94876215D01*
X86139824Y-94648313D01*
X86062148Y-94541403D01*
X86062148Y-94541402D01*
X85351041Y-95252510D01*
X85326022Y-95192110D01*
X85254888Y-95085649D01*
X85164351Y-94995112D01*
X85057890Y-94923978D01*
X84997487Y-94898957D01*
X85708596Y-94187850D01*
X85601686Y-94110175D01*
X85373784Y-93994052D01*
X85373781Y-93994051D01*
X85130523Y-93915013D01*
X84877889Y-93875000D01*
X84622111Y-93875000D01*
X84369476Y-93915013D01*
X84126218Y-93994051D01*
X84126215Y-93994052D01*
X83898310Y-94110177D01*
X83791403Y-94187849D01*
X83791402Y-94187850D01*
X84502511Y-94898958D01*
X84442110Y-94923978D01*
X84335649Y-94995112D01*
X84245112Y-95085649D01*
X84173978Y-95192110D01*
X84148958Y-95252511D01*
X83437850Y-94541402D01*
X83437849Y-94541403D01*
X83360177Y-94648310D01*
X83244052Y-94876215D01*
X83244051Y-94876218D01*
X83165013Y-95119476D01*
X83125000Y-95372110D01*
X82500500Y-95372110D01*
X82500500Y-75564000D01*
X82520185Y-75496961D01*
X82572989Y-75451206D01*
X82624500Y-75440000D01*
X85958885Y-75440000D01*
X86025924Y-75459685D01*
G37*
%TD.AperFunction*%
%TA.AperFunction,Conductor*%
G36*
X88526772Y-75459685D02*
G01*
X88572527Y-75512489D01*
X88582471Y-75581647D01*
X88553446Y-75645203D01*
X88532617Y-75664319D01*
X88524077Y-75670523D01*
X88524077Y-75670524D01*
X89203554Y-76350000D01*
X89197339Y-76350000D01*
X89095606Y-76377259D01*
X89004394Y-76429920D01*
X88929920Y-76504394D01*
X88877259Y-76595606D01*
X88850000Y-76697339D01*
X88850000Y-76703553D01*
X88170524Y-76024077D01*
X88170523Y-76024077D01*
X88138143Y-76068644D01*
X88110765Y-76122378D01*
X88062790Y-76173174D01*
X87994969Y-76189969D01*
X87928834Y-76167431D01*
X87889795Y-76122378D01*
X87862284Y-76068385D01*
X87741971Y-75902786D01*
X87597213Y-75758028D01*
X87468230Y-75664318D01*
X87425564Y-75608989D01*
X87419585Y-75539375D01*
X87452190Y-75477580D01*
X87513029Y-75443223D01*
X87541115Y-75440000D01*
X88459733Y-75440000D01*
X88526772Y-75459685D01*
G37*
%TD.AperFunction*%
%TD*%
M02*
