%TF.GenerationSoftware,KiCad,Pcbnew,9.0.7*%
%TF.CreationDate,2026-02-14T21:04:24+03:00*%
%TF.ProjectId,Transmitter,5472616e-736d-4697-9474-65722e6b6963,rev?*%
%TF.SameCoordinates,Original*%
%TF.FileFunction,Soldermask,Bot*%
%TF.FilePolarity,Negative*%
%FSLAX46Y46*%
G04 Gerber Fmt 4.6, Leading zero omitted, Abs format (unit mm)*
G04 Created by KiCad (PCBNEW 9.0.7) date 2026-02-14 21:04:24*
%MOMM*%
%LPD*%
G01*
G04 APERTURE LIST*
G04 Aperture macros list*
%AMRoundRect*
0 Rectangle with rounded corners*
0 $1 Rounding radius*
0 $2 $3 $4 $5 $6 $7 $8 $9 X,Y pos of 4 corners*
0 Add a 4 corners polygon primitive as box body*
4,1,4,$2,$3,$4,$5,$6,$7,$8,$9,$2,$3,0*
0 Add four circle primitives for the rounded corners*
1,1,$1+$1,$2,$3*
1,1,$1+$1,$4,$5*
1,1,$1+$1,$6,$7*
1,1,$1+$1,$8,$9*
0 Add four rect primitives between the rounded corners*
20,1,$1+$1,$2,$3,$4,$5,0*
20,1,$1+$1,$4,$5,$6,$7,0*
20,1,$1+$1,$6,$7,$8,$9,0*
20,1,$1+$1,$8,$9,$2,$3,0*%
G04 Aperture macros list end*
%ADD10C,1.600000*%
%ADD11R,2.250000X2.250000*%
%ADD12C,2.250000*%
%ADD13RoundRect,0.249200X0.450800X-0.450800X0.450800X0.450800X-0.450800X0.450800X-0.450800X-0.450800X0*%
%ADD14C,1.400000*%
%ADD15R,2.030000X1.730000*%
%ADD16O,2.030000X1.730000*%
%ADD17RoundRect,0.249999X-0.850001X0.850001X-0.850001X-0.850001X0.850001X-0.850001X0.850001X0.850001X0*%
%ADD18C,2.200000*%
%ADD19RoundRect,0.250001X0.499999X0.499999X-0.499999X0.499999X-0.499999X-0.499999X0.499999X-0.499999X0*%
%ADD20C,1.500000*%
%ADD21C,0.600000*%
%ADD22RoundRect,0.250000X0.980000X1.150000X-0.980000X1.150000X-0.980000X-1.150000X0.980000X-1.150000X0*%
%ADD23O,2.460000X2.800000*%
%ADD24RoundRect,0.249999X0.850001X-0.850001X0.850001X0.850001X-0.850001X0.850001X-0.850001X-0.850001X0*%
G04 APERTURE END LIST*
D10*
%TO.C,C5*%
X86750000Y-76750000D03*
X89250000Y-76750000D03*
%TD*%
D11*
%TO.C,SW1*%
X122000000Y-79250000D03*
D12*
X122000000Y-85750000D03*
%TD*%
D11*
%TO.C,SW2*%
X120500000Y-89250000D03*
D12*
X114000000Y-89250000D03*
%TD*%
D13*
%TO.C,D1*%
X100525000Y-118275000D03*
D14*
X100525000Y-115715000D03*
%TD*%
D15*
%TO.C,J2*%
X114000000Y-77500000D03*
D16*
X114000000Y-80040000D03*
X114000000Y-82580000D03*
%TD*%
D10*
%TO.C,C4*%
X111500000Y-90000000D03*
X111500000Y-87500000D03*
%TD*%
D11*
%TO.C,BOOT*%
X84750000Y-89000000D03*
D12*
X84750000Y-95500000D03*
%TD*%
D14*
%TO.C,R2*%
X86750000Y-119120000D03*
X86750000Y-111500000D03*
%TD*%
D17*
%TO.C,D6*%
X114000000Y-100170000D03*
D18*
X114000000Y-110330000D03*
%TD*%
D14*
%TO.C,R12*%
X115810000Y-97250000D03*
X108190000Y-97250000D03*
%TD*%
%TO.C,R10*%
X118750000Y-78190000D03*
X118750000Y-85810000D03*
%TD*%
%TO.C,R7*%
X106560000Y-108500000D03*
X98940000Y-108500000D03*
%TD*%
%TO.C,R6*%
X91440000Y-111000000D03*
X99060000Y-111000000D03*
%TD*%
D19*
%TO.C,D3*%
X104915330Y-101250000D03*
D20*
X102375330Y-101250000D03*
%TD*%
D21*
%TO.C,U1*%
X97350000Y-83760000D03*
X97350000Y-85160000D03*
X98050000Y-83060000D03*
X98050000Y-84460000D03*
X98050000Y-85860000D03*
X98750000Y-83760000D03*
X98750000Y-85160000D03*
X99450000Y-83060000D03*
X99450000Y-84460000D03*
X99450000Y-85860000D03*
X100150000Y-83760000D03*
X100150000Y-85160000D03*
%TD*%
D14*
%TO.C,R11*%
X121310000Y-92500000D03*
X113690000Y-92500000D03*
%TD*%
D10*
%TO.C,J1*%
X118920000Y-115750000D03*
D22*
X117420000Y-119000000D03*
D23*
X113460000Y-119000000D03*
X109500000Y-119000000D03*
%TD*%
D14*
%TO.C,R8*%
X86250000Y-86560000D03*
X86250000Y-78940000D03*
%TD*%
D24*
%TO.C,D5*%
X104000000Y-122000000D03*
D18*
X104000000Y-111840000D03*
%TD*%
D14*
%TO.C,R3*%
X94310000Y-121250000D03*
X86690000Y-121250000D03*
%TD*%
%TO.C,R5*%
X91690000Y-100750000D03*
X99310000Y-100750000D03*
%TD*%
%TO.C,R4*%
X91690000Y-103000000D03*
X99310000Y-103000000D03*
%TD*%
D19*
%TO.C,D2*%
X104790000Y-104250000D03*
D20*
X102250000Y-104250000D03*
%TD*%
D10*
%TO.C,C2*%
X90250000Y-105500000D03*
X90250000Y-108000000D03*
%TD*%
D14*
%TO.C,R9*%
X91690000Y-98500000D03*
X99310000Y-98500000D03*
%TD*%
%TO.C,R1*%
X89000000Y-119120000D03*
X89000000Y-111500000D03*
%TD*%
D19*
%TO.C,D4*%
X105000000Y-98250000D03*
D20*
X102460000Y-98250000D03*
%TD*%
D10*
%TO.C,C3*%
X116250000Y-85500000D03*
X113750000Y-85500000D03*
%TD*%
%TO.C,C1*%
X91250000Y-113250000D03*
X91250000Y-115750000D03*
%TD*%
M02*
