%TF.GenerationSoftware,KiCad,Pcbnew,9.0.7*%
%TF.CreationDate,2026-02-14T21:04:24+03:00*%
%TF.ProjectId,Transmitter,5472616e-736d-4697-9474-65722e6b6963,rev?*%
%TF.SameCoordinates,Original*%
%TF.FileFunction,Paste,Top*%
%TF.FilePolarity,Positive*%
%FSLAX46Y46*%
G04 Gerber Fmt 4.6, Leading zero omitted, Abs format (unit mm)*
G04 Created by KiCad (PCBNEW 9.0.7) date 2026-02-14 21:04:24*
%MOMM*%
%LPD*%
G01*
G04 APERTURE LIST*
G04 Aperture macros list*
%AMRoundRect*
0 Rectangle with rounded corners*
0 $1 Rounding radius*
0 $2 $3 $4 $5 $6 $7 $8 $9 X,Y pos of 4 corners*
0 Add a 4 corners polygon primitive as box body*
4,1,4,$2,$3,$4,$5,$6,$7,$8,$9,$2,$3,0*
0 Add four circle primitives for the rounded corners*
1,1,$1+$1,$2,$3*
1,1,$1+$1,$4,$5*
1,1,$1+$1,$6,$7*
1,1,$1+$1,$8,$9*
0 Add four rect primitives between the rounded corners*
20,1,$1+$1,$2,$3,$4,$5,0*
20,1,$1+$1,$4,$5,$6,$7,0*
20,1,$1+$1,$6,$7,$8,$9,0*
20,1,$1+$1,$8,$9,$2,$3,0*%
G04 Aperture macros list end*
%ADD10R,1.500000X0.900000*%
%ADD11R,0.900000X1.500000*%
%ADD12R,0.900000X0.900000*%
%ADD13RoundRect,0.250000X1.150000X-0.950000X1.150000X0.950000X-1.150000X0.950000X-1.150000X-0.950000X0*%
%ADD14RoundRect,0.150000X-0.150000X0.587500X-0.150000X-0.587500X0.150000X-0.587500X0.150000X0.587500X0*%
G04 APERTURE END LIST*
D10*
%TO.C,U1*%
X91500000Y-76740000D03*
X91500000Y-78010000D03*
X91500000Y-79280000D03*
X91500000Y-80550000D03*
X91500000Y-81820000D03*
X91500000Y-83090000D03*
X91500000Y-84360000D03*
X91500000Y-85630000D03*
X91500000Y-86900000D03*
X91500000Y-88170000D03*
X91500000Y-89440000D03*
X91500000Y-90710000D03*
X91500000Y-91980000D03*
X91500000Y-93250000D03*
D11*
X94535000Y-94500000D03*
X95805000Y-94500000D03*
X97075000Y-94500000D03*
X98345000Y-94500000D03*
X99615000Y-94500000D03*
X100885000Y-94500000D03*
X102155000Y-94500000D03*
X103425000Y-94500000D03*
X104695000Y-94500000D03*
X105965000Y-94500000D03*
D10*
X109000000Y-93250000D03*
X109000000Y-91980000D03*
X109000000Y-90710000D03*
X109000000Y-89440000D03*
X109000000Y-88170000D03*
X109000000Y-86900000D03*
X109000000Y-85630000D03*
X109000000Y-84360000D03*
X109000000Y-83090000D03*
X109000000Y-81820000D03*
X109000000Y-80550000D03*
X109000000Y-79280000D03*
X109000000Y-78010000D03*
X109000000Y-76740000D03*
D12*
X97350000Y-83060000D03*
X97350000Y-84460000D03*
X97350000Y-85860000D03*
X98750000Y-83060000D03*
X98750000Y-84460000D03*
X98750000Y-85860000D03*
X100150000Y-83060000D03*
X100150000Y-84460000D03*
X100150000Y-85860000D03*
%TD*%
D13*
%TO.C,JP1*%
X110250000Y-110950000D03*
X110250000Y-100050000D03*
%TD*%
D14*
%TO.C,Q1*%
X95450000Y-116312500D03*
X93550000Y-116312500D03*
X94500000Y-118187500D03*
%TD*%
M02*
